<svg width="2433" height="1570" viewBox="0 0 2433 1570" fill="none" xmlns="http://www.w3.org/2000/svg">
<path d="M1164.95 1.23628C1131.75 2.56962 1106.02 4.56962 1068.95 8.43628C1002.95 15.503 1003.89 15.3696 957.754 24.703C866.687 43.103 814.154 57.503 735.754 85.503C608.42 130.97 479.354 197.77 361.354 279.37C349.887 287.37 340.154 293.903 339.754 293.903C339.22 293.903 338.954 293.103 338.954 292.17C338.954 288.703 328.554 269.103 323.087 262.303C303.887 238.436 270.42 226.836 239.62 233.236C195.754 242.303 166.154 286.703 174.154 331.236C179.087 358.97 199.22 383.77 225.354 394.57C229.487 396.303 232.82 398.303 232.687 399.103C232.42 400.036 90.9537 742.17 57.487 822.836L53.487 832.436L32.5537 832.836C14.1537 833.236 11.2203 833.503 8.02033 835.903C-2.913 844.17 -2.64633 861.77 8.687 868.57C12.8203 871.236 17.3537 871.236 257.487 871.236C500.287 871.236 502.02 871.236 506.287 868.57C518.154 861.236 517.62 842.703 505.354 835.236C501.487 832.836 498.554 832.57 480.82 832.57H460.82L371.22 616.836C322.02 498.303 281.487 400.436 281.354 399.503C281.087 398.57 284.154 396.57 288.554 394.703C305.62 387.77 317.487 378.17 327.487 363.503C336.687 350.036 340.554 337.77 341.487 319.37L342.287 304.303L384.954 286.97C441.22 264.303 479.087 249.636 511.62 238.17C526.287 232.97 544.154 226.57 551.22 224.036C558.42 221.37 579.487 214.703 597.887 209.103C616.42 203.636 640.954 196.17 652.42 192.57C688.42 181.37 788.02 157.37 846.287 146.036C899.887 135.503 983.887 123.236 1028.95 119.236C1118.29 111.503 1124.02 111.236 1200.95 110.836C1277.35 110.57 1332.82 112.17 1366.95 115.903C1376.82 116.97 1397.62 118.97 1412.95 120.57C1525.22 131.77 1659.22 157.503 1769.62 189.103C1864.95 216.436 1964.42 251.37 2063.09 292.17L2090.69 303.503L2091.22 319.636C2091.75 333.77 2092.42 337.236 2095.89 346.17C2104.15 366.97 2118.15 382.036 2138.55 392.036L2150.82 398.17L2148.82 402.97C2147.75 405.636 2107.35 503.236 2059.09 619.903L1971.35 831.903L1950.82 832.57C1933.89 833.103 1929.49 833.636 1926.55 835.636C1914.95 843.236 1914.82 861.503 1926.29 868.57C1930.55 871.236 1932.29 871.236 2175.09 871.236C2415.22 871.236 2419.75 871.236 2423.89 868.57C2435.22 861.77 2435.49 844.17 2424.55 835.903C2421.35 833.503 2418.42 833.236 2399.89 832.836L2378.82 832.436L2376.82 828.17C2375.75 825.77 2335.09 728.17 2286.42 611.236C2202.55 409.103 2198.29 398.57 2200.82 397.37C2218.55 389.636 2224.15 386.036 2234.42 375.903C2252.29 358.17 2259.49 340.57 2259.35 315.236C2259.35 303.77 2258.69 299.236 2255.75 290.303C2242.29 248.836 2199.22 223.903 2157.22 233.37C2127.75 240.036 2104.29 260.97 2094.42 289.503L2092.95 293.77L2068.55 276.836C2003.62 231.503 1941.89 194.97 1868.29 158.036C1778.29 113.103 1696.02 81.2363 1593.62 51.903C1570.95 45.3696 1489.35 26.703 1460.02 21.3696C1430.42 15.903 1350.95 6.03628 1324.29 4.56962C1310.69 3.76962 1291.22 2.70295 1280.95 1.90295C1246.69 -0.363717 1210.69 -0.630384 1164.95 1.23628ZM249.62 616.57V832.57H158.954H68.287L70.8203 826.17C72.1537 822.703 111.887 726.836 158.954 613.236C206.02 499.503 245.087 405.236 245.754 403.503C246.42 401.903 247.487 400.57 248.287 400.57C249.22 400.57 249.62 470.036 249.62 616.57ZM356.554 616.036C405.354 734.036 445.487 830.97 445.487 831.636C445.62 832.17 404.687 832.436 354.687 832.303L263.62 831.903L263.22 617.903C263.087 500.17 263.22 403.103 263.62 402.17C264.02 401.103 265.087 400.57 265.887 400.836C266.82 401.236 307.62 498.036 356.554 616.036ZM2167.62 616.703V831.903L2077.09 832.303L1986.69 832.57L1987.35 829.77C1989.62 820.97 2164.95 400.57 2166.15 400.97C2167.22 401.37 2167.62 462.436 2167.62 616.703ZM2273.62 614.703C2322.42 732.57 2362.42 829.77 2362.69 830.703C2363.09 832.303 2348.82 832.57 2272.42 832.57H2181.62V616.57C2181.62 444.703 2182.02 400.57 2183.35 400.57C2184.29 400.57 2222.82 492.036 2273.62 614.703Z" fill="#273F4B"/>
<path d="M1187.62 227.236C1022.02 234.303 866.82 301.503 748.02 417.636C690.554 473.903 648.287 532.036 613.62 602.57C576.02 678.97 554.82 755.236 546.82 843.236C544.687 866.303 544.687 930.836 546.82 953.236C557.754 1068.84 592.82 1171.1 653.354 1263.9C754.02 1418.44 914.42 1525.64 1094.29 1558.57C1346.69 1604.84 1601.49 1504.57 1755.09 1298.57C1830.29 1197.64 1874.02 1081.64 1885.75 952.57C1887.89 929.236 1887.89 866.303 1885.75 843.236C1877.75 755.37 1856.55 678.97 1818.95 602.57C1784.29 532.036 1742.02 473.903 1684.55 417.636C1551.75 287.77 1373.49 219.503 1187.62 227.236ZM1248.95 289.903C1388.55 297.903 1516.15 350.57 1620.95 443.37C1660.82 478.57 1696.82 520.57 1727.22 567.236C1743.35 592.036 1750.02 603.77 1763.75 631.77C1833.22 772.836 1844.42 938.836 1794.82 1088.97C1726.55 1295.5 1550.15 1452.3 1338.15 1494.97C1292.82 1504.17 1267.75 1506.57 1216.29 1506.57C1164.82 1506.57 1139.75 1504.17 1094.42 1494.97C978.554 1471.64 870.82 1413.5 785.754 1328.44C579.354 1122.04 548.287 801.103 711.087 558.303C762.02 482.17 835.22 414.303 915.62 368.436C1015.89 311.236 1134.29 283.37 1248.95 289.903Z" fill="#273F4B"/>
<path d="M853.62 430.836C837.754 443.236 819.487 459.103 801.887 476.036L786.954 490.57V898.036V1305.64L804.02 1322.17C820.554 1338.17 848.287 1362.04 860.82 1370.97L866.954 1375.37V1129.64C866.954 898.17 867.087 883.77 869.354 880.57C871.887 876.836 941.754 808.57 943.087 808.57C944.02 808.57 952.82 833.503 992.954 949.903C1010.82 1001.64 1033.62 1067.24 1043.62 1095.9C1053.62 1124.44 1070.55 1172.84 1081.09 1203.24C1121.49 1319.24 1128.95 1340.57 1130.69 1342.84C1132.29 1344.97 1135.22 1345.24 1164.42 1345.24C1199.49 1345.24 1199.75 1345.24 1198.15 1337.24C1197.62 1334.97 1194.95 1327.1 1192.15 1319.5C1189.22 1312.04 1186.95 1303.64 1186.95 1300.84C1186.95 1295.24 1255.49 1087.77 1258.42 1084.7C1259.35 1083.64 1260.42 1082.97 1260.69 1083.37C1261.49 1084.17 1284.42 1149.24 1310.29 1223.9C1350.15 1338.84 1351.62 1342.84 1354.95 1344.57C1356.42 1345.37 1369.89 1345.9 1386.82 1345.9C1411.62 1345.9 1416.42 1345.64 1418.15 1343.77C1419.35 1342.7 1420.29 1341.24 1420.29 1340.7C1420.29 1340.17 1417.62 1331.77 1414.29 1321.9C1410.95 1312.04 1408.29 1302.44 1408.29 1300.44C1408.29 1298.44 1420.55 1260.57 1435.35 1216.3C1450.29 1172.04 1492.42 1046.84 1528.95 937.903C1575.49 799.236 1597.35 735.77 1601.89 726.17C1610.55 708.17 1619.62 698.303 1633.09 691.77C1642.95 687.103 1647.49 682.57 1644.02 681.236C1643.09 680.836 1626.69 680.703 1607.75 680.836C1575.75 681.236 1573.09 681.37 1571.75 683.77C1570.55 685.636 1570.82 686.436 1572.82 687.77C1577.89 690.836 1584.42 697.103 1586.42 700.703C1589.09 705.903 1588.82 719.236 1585.62 731.903C1583.35 741.236 1524.95 915.636 1432.69 1188.97C1416.55 1236.44 1402.82 1275.9 1401.89 1276.84C1401.09 1277.64 1400.02 1278.04 1399.62 1277.77C1398.95 1277.1 1338.29 1105.1 1314.95 1037.9C1307.49 1016.3 1287.62 959.503 1270.95 911.903C1206.82 728.97 1208.69 734.97 1207.35 716.436C1206.42 702.303 1208.55 696.57 1217.22 691.37C1222.95 687.903 1224.29 685.103 1221.35 682.17C1220.15 680.97 1203.62 680.57 1155.22 680.57H1090.82L1091.22 683.503C1091.49 685.77 1094.29 687.77 1102.02 691.503C1115.89 698.303 1124.42 707.103 1132.42 722.57C1141.75 740.57 1145.49 750.836 1207.75 929.903C1219.22 962.57 1233.75 1004.57 1240.42 1023.24C1246.95 1042.04 1252.29 1059.37 1252.29 1061.9C1252.29 1066.7 1182.69 1274.7 1180.29 1277.1C1179.35 1278.04 1178.42 1277.9 1177.62 1277.1C1176.82 1276.3 1158.42 1224.44 1136.82 1161.77C1115.22 1099.1 1086.29 1016.04 1072.69 977.236C1012.42 804.97 996.287 758.703 996.287 757.37C996.287 755.103 1238.02 521.903 1251.62 511.103C1280.15 488.17 1300.55 477.37 1339.09 464.436L1364.42 455.903L1364.02 451.903L1363.62 447.903L1332.29 447.636C1315.09 447.37 1276.95 447.77 1247.62 448.303L1194.29 449.236V452.436C1194.29 455.37 1195.22 455.903 1204.29 457.903C1224.55 462.303 1234.95 471.77 1237.22 487.903C1238.95 501.37 1249.62 490.17 1054.02 679.636C909.087 819.77 873.887 853.236 871.087 853.236H867.62L867.22 637.503C867.087 518.97 866.554 421.903 865.887 421.903C865.354 422.036 859.887 426.036 853.62 430.836Z" fill="#273F4B"/>
</svg>
