<svg width="3263" height="2106" viewBox="0 0 3263 2106" fill="none" xmlns="http://www.w3.org/2000/svg">
<path d="M1565.62 1.76425C1531.08 3.09759 1496.55 4.83092 1488.95 5.63092C1440.42 10.5643 1360.28 19.3643 1351.88 20.5643C1346.42 21.3643 1322.15 25.8976 1297.88 30.6976C1166.02 56.5643 1082.01 79.631 971.882 120.031C801.482 182.564 633.882 270.831 474.282 382.031C465.082 388.431 456.815 393.764 456.148 393.764C455.482 393.764 454.148 391.231 453.215 388.031C450.415 378.298 441.748 362.698 434.015 352.964C415.615 329.764 388.148 314.831 357.615 311.098C298.682 303.898 242.682 346.698 233.215 406.164C231.082 418.698 232.148 441.764 235.215 453.098C238.682 465.631 248.148 484.164 256.548 494.831C268.948 510.564 286.548 523.098 309.482 532.164C312.948 533.631 313.082 533.764 311.348 538.031C310.282 540.431 256.682 669.898 192.148 825.764C127.615 981.631 74.0149 1110.7 73.0816 1112.7L71.4816 1116.43H46.2816C19.4816 1116.43 14.6816 1117.36 8.14826 1123.5C-4.78507 1135.5 -1.85174 1157.76 13.6149 1166.03L19.2149 1169.1L341.215 1169.5C580.948 1169.76 665.082 1169.5 670.415 1168.43C675.882 1167.23 678.815 1165.5 683.215 1161.1C696.548 1147.76 692.148 1125.76 674.682 1118.3C671.348 1116.96 663.748 1116.43 644.415 1116.43C621.215 1116.43 618.548 1116.16 617.348 1114.03C616.682 1112.83 564.548 987.498 501.482 835.764C438.415 683.898 384.415 554.031 381.482 546.964L376.148 534.164L386.415 530.031C431.882 511.364 458.815 471.631 458.815 423.498V408.564L468.282 404.698C563.882 365.098 627.082 340.431 693.215 317.098C710.415 310.964 732.415 303.231 741.882 299.764C751.482 296.298 783.882 286.164 813.882 276.964C844.015 267.898 876.415 258.031 885.882 255.098C912.548 246.831 1053.75 211.764 1079.21 207.098C1091.75 204.831 1122.28 198.831 1147.22 193.764C1206.28 181.764 1205.48 181.898 1283.22 171.898C1366.42 161.098 1364.95 161.231 1424.55 156.431C1451.75 154.298 1481.08 151.764 1489.88 150.964C1513.22 148.831 1709.35 148.698 1758.55 150.831C1803.48 152.698 1815.75 153.631 1866.55 159.098C1886.68 161.231 1913.08 164.031 1925.22 165.098C1954.95 167.898 1972.42 170.164 2017.88 177.231C2039.22 180.564 2064.42 184.431 2073.88 185.898C2106.02 190.831 2246.81 220.564 2291.21 231.764C2404.01 260.298 2517.21 296.164 2639.88 342.031C2678.68 356.564 2756.01 387.098 2787.48 400.431L2803.61 407.231V422.831C2803.61 469.231 2827.21 506.698 2869.21 526.964C2875.35 530.031 2881.21 532.431 2882.15 532.431C2883.08 532.431 2883.88 533.098 2883.88 534.031C2883.88 534.831 2829.75 666.164 2763.61 825.898L2643.48 1116.3L2615.88 1116.7C2588.28 1117.1 2588.28 1117.1 2583.08 1120.7C2569.08 1130.43 2567.21 1149.23 2579.21 1161.1C2583.61 1165.5 2586.55 1167.23 2592.01 1168.43C2597.35 1169.5 2681.48 1169.76 2921.21 1169.5L3243.22 1169.1L3248.82 1166.03C3264.28 1157.76 3267.22 1135.5 3254.28 1123.5C3247.62 1117.23 3243.08 1116.43 3215.48 1116.43H3189.62L3069.08 826.298C3002.82 666.564 2948.55 535.364 2948.55 534.698C2948.55 533.898 2951.75 532.298 2955.48 530.964C2972.68 525.098 2992.01 511.764 3004.02 497.231C3012.68 486.698 3023.88 465.498 3027.22 453.098C3030.28 441.631 3031.22 418.698 3029.22 406.164C3019.75 346.698 2963.75 303.898 2904.95 311.098C2891.35 312.698 2872.01 318.698 2862.55 324.031C2837.75 338.164 2816.41 363.764 2809.21 388.031C2808.28 391.231 2807.21 393.764 2806.95 393.764C2806.55 393.764 2795.75 386.298 2782.81 377.231C2602.81 251.098 2411.48 155.498 2213.88 93.0977C2129.75 66.5643 2121.22 64.2976 2041.88 46.5643C1955.22 27.2309 1945.75 25.4976 1883.88 17.7643C1865.88 15.4976 1842.55 12.4309 1832.02 10.9643C1821.35 9.49759 1797.35 7.49759 1778.42 6.43092C1759.62 5.36425 1730.15 3.63092 1713.08 2.56425C1661.22 -0.635746 1632.02 -0.76908 1565.62 1.76425ZM335.615 826.698L335.215 1115.76L213.482 1116.16C145.215 1116.3 91.8816 1115.9 92.1483 1115.23C92.2816 1114.7 146.282 984.431 211.882 825.898C306.282 598.031 331.748 537.764 333.615 537.764C335.748 537.764 335.882 552.164 335.615 826.698ZM478.015 826.298C543.615 984.564 597.215 1114.56 597.215 1115.23C597.215 1115.9 545.748 1116.43 475.215 1116.43H353.215V826.964V537.631L356.015 538.031C358.548 538.431 375.882 579.498 478.015 826.298ZM2906.55 827.098V1116.43H2785.21C2718.55 1116.43 2663.88 1116.03 2663.88 1115.63C2663.88 1115.23 2717.35 985.764 2782.68 828.031C2848.01 670.164 2901.88 540.298 2902.15 539.364C2902.55 538.564 2903.61 537.764 2904.68 537.764C2906.28 537.764 2906.55 580.698 2906.55 827.098ZM3048.95 824.698C3114.28 982.564 3168.15 1112.83 3168.68 1114.03C3169.48 1116.3 3163.08 1116.43 3047.35 1116.43H2925.21V827.098C2925.21 546.164 2925.35 537.764 2927.75 537.764C2929.75 537.764 2951.35 588.831 3048.95 824.698Z" fill="#273F4B"/>
<path d="M1579.22 305.231C1576.28 305.497 1565.48 306.297 1555.22 307.097C1502.02 311.231 1437.88 322.964 1383.88 338.431C1193.48 393.231 1026.95 508.697 907.882 668.431C822.948 782.431 765.615 917.497 742.682 1057.36C723.215 1175.76 727.482 1298.56 755.215 1414.7C781.482 1524.43 830.415 1632.03 896.415 1724.96C1045.35 1934.7 1277.88 2071.9 1531.22 2099.63C1596.95 2106.83 1665.48 2106.83 1731.22 2099.63C1845.35 2087.1 1961.22 2050.7 2061.62 1995.63C2357.75 1833.23 2538.95 1521.36 2531.48 1186.43C2529.88 1114.7 2521.48 1052.43 2504.68 985.097C2434.82 706.564 2233.75 476.297 1966.55 368.697C1886.42 336.564 1806.68 317.097 1715.88 307.631C1696.55 305.631 1594.15 303.764 1579.22 305.231ZM1662.95 388.431C1724.28 391.097 1773.22 398.164 1830.68 412.564C2082.28 475.631 2290.28 656.964 2388.82 899.097C2406.28 942.031 2424.15 1002.3 2433.08 1048.43C2448.82 1130.03 2452.15 1218.56 2442.42 1300.43C2414.42 1537.23 2283.88 1749.9 2084.55 1883.76C1877.48 2022.7 1614.68 2058.96 1377.88 1981.1C1073.48 1881.1 854.282 1611.9 819.348 1295.1C812.015 1229.5 813.348 1152.16 822.682 1087.76C853.615 874.697 967.882 682.164 1140.55 552.031C1182.15 520.697 1222.55 495.764 1269.88 472.431C1304.95 455.097 1331.62 443.897 1366.28 432.031C1443.62 405.364 1526.28 390.297 1606.55 388.031C1613.48 387.764 1622.28 387.497 1625.88 387.364C1629.62 387.231 1646.15 387.764 1662.95 388.431Z" fill="#273F4B"/>
<path d="M1146.55 576.564C1121.88 595.764 1100.82 614.298 1077.62 636.964L1055.88 658.164V1204.43V1750.7L1078.28 1772.56C1103.22 1797.1 1119.22 1811.1 1144.55 1830.96L1161.88 1844.43L1162.55 1514.83C1163.22 1187.9 1163.22 1185.1 1165.88 1180.96C1167.35 1178.7 1190.28 1155.76 1216.82 1130.03C1254.95 1092.83 1265.08 1083.63 1265.88 1085.5C1269.48 1094.56 1294.82 1167.23 1333.88 1280.43C1380.82 1416.56 1392.28 1449.63 1428.55 1552.43C1440.02 1585.1 1458.02 1636.7 1468.55 1667.1C1495.08 1744.03 1513.08 1794.96 1515.22 1799.23C1516.28 1801.1 1518.15 1803.1 1519.22 1803.63C1520.42 1804.03 1539.88 1804.43 1562.42 1804.43C1601.62 1804.43 1603.62 1804.3 1605.88 1801.76C1608.95 1798.43 1608.42 1796.3 1599.22 1770.96C1594.02 1756.7 1591.88 1748.83 1591.88 1744.16C1591.88 1739.23 1598.42 1717.9 1618.55 1657.36C1669.88 1503.1 1686.82 1453.9 1688.68 1453.23C1689.88 1452.7 1691.08 1453.76 1692.02 1456.16C1695.62 1465.1 1734.68 1576.43 1759.88 1649.1C1800.55 1766.3 1812.28 1798.96 1814.95 1801.9C1817.22 1804.3 1819.62 1804.43 1857.88 1804.43C1880.15 1804.43 1899.35 1804.03 1900.42 1803.63C1905.62 1801.63 1905.35 1798.7 1897.22 1774.03C1892.28 1758.96 1889.22 1747.63 1889.22 1743.9C1889.22 1739.76 1896.68 1716.03 1914.68 1662.83C1928.55 1621.5 1984.28 1455.5 2038.42 1293.76C2092.55 1132.03 2139.08 994.298 2141.88 987.764C2156.42 952.564 2172.68 933.898 2196.28 925.098C2203.08 922.564 2207.35 917.898 2206.02 914.431C2205.35 912.698 2198.95 912.431 2158.55 912.431C2114.28 912.431 2111.75 912.564 2109.35 914.964C2105.62 918.698 2107.08 921.764 2115.08 926.831C2128.42 935.364 2132.15 945.631 2129.35 966.031C2127.22 982.031 2122.28 998.564 2095.88 1076.43C2083.35 1113.5 2052.42 1205.23 2027.22 1280.43C2002.02 1355.63 1964.42 1467.23 1943.48 1528.43C1922.55 1589.63 1900.28 1655.63 1894.02 1675.1C1882.68 1709.76 1880.02 1715.76 1877.22 1712.96C1875.62 1711.36 1816.42 1544.16 1765.88 1398.43C1753.88 1363.9 1728.15 1290.16 1708.55 1234.43C1676.68 1143.63 1634.82 1023.76 1627.62 1002.43C1620.55 981.364 1616.68 952.031 1619.88 942.564C1621.88 936.431 1627.75 929.498 1634.28 925.498C1642.02 920.831 1642.55 919.631 1638.55 915.364L1635.75 912.431H1549.75C1474.42 912.431 1463.75 912.698 1463.08 914.431C1461.75 917.898 1466.02 922.564 1472.82 925.098C1488.28 930.831 1502.55 942.164 1510.95 955.364C1523.75 975.231 1532.95 998.164 1564.42 1088.43C1574.95 1118.83 1591.22 1165.36 1600.55 1191.76C1609.88 1218.16 1623.88 1258.7 1631.88 1281.76C1639.88 1304.83 1653.88 1345.23 1663.08 1371.63C1672.55 1398.56 1679.88 1421.5 1679.88 1424.16C1679.88 1428.56 1588.68 1701.36 1584.28 1710.03C1583.35 1712.16 1582.02 1713.76 1581.35 1713.76C1578.28 1713.76 1582.42 1725.1 1493.88 1469.1C1472.82 1408.16 1436.28 1303.23 1412.55 1235.76C1388.82 1168.3 1361.88 1090.96 1352.42 1064.03L1335.48 1014.96L1345.35 1005.1C1402.68 948.431 1662.82 698.431 1674.55 688.831C1694.55 672.431 1723.62 653.098 1741.88 644.031C1756.28 636.831 1782.28 626.964 1813.48 617.098C1824.42 613.498 1829.35 611.364 1829.88 609.631C1830.95 606.564 1829.35 600.431 1827.35 600.298C1821.35 599.898 1664.28 600.964 1636.55 601.631L1601.88 602.431V606.964V611.631L1614.42 614.031C1636.28 618.431 1647.75 625.631 1654.55 639.631C1661.48 653.631 1661.35 666.431 1654.02 677.231C1649.48 684.031 1171.62 1145.76 1169.22 1145.76C1168.02 1145.76 1166.02 1144.7 1164.82 1143.36C1162.68 1141.1 1162.55 1118.56 1162.28 852.831L1161.88 564.698L1146.55 576.564Z" fill="#273F4B"/>
<path d="M52.5484 1192.43C46.9484 1194.7 43.4817 1200.16 42.9484 1207.36L42.415 1214.43L75.215 1266.43C93.3484 1294.96 109.348 1319.76 110.948 1321.5C112.415 1323.1 115.882 1324.96 118.415 1325.76C125.082 1327.63 565.482 1327.63 572.148 1325.76C574.815 1324.96 578.415 1322.7 580.148 1320.7C587.882 1311.5 648.015 1215.1 648.815 1210.7C649.748 1204.7 646.015 1196.96 640.682 1193.63C636.682 1191.23 628.015 1191.1 345.882 1191.23C186.015 1191.23 54.015 1191.76 52.5484 1192.43Z" fill="#273F4B"/>
<path d="M2621.61 1193.9C2616.41 1197.23 2612.68 1205.76 2614.01 1211.63C2614.55 1213.9 2629.88 1239.5 2648.28 1268.56C2672.41 1306.83 2682.68 1322.03 2685.75 1323.9C2689.75 1326.3 2696.81 1326.43 2916.55 1326.43C3140.81 1326.43 3143.21 1326.43 3147.75 1323.76C3151.21 1321.76 3159.88 1308.96 3186.01 1267.9C3218.68 1216.7 3219.88 1214.56 3219.88 1208.16C3219.88 1202.16 3219.35 1200.96 3214.68 1196.3L3209.48 1191.1H2917.75C2627.08 1191.1 2625.88 1191.1 2621.61 1193.9Z" fill="#273F4B"/>
</svg>
