<svg width="17220" height="2106" viewBox="0 0 17220 2106" fill="none" xmlns="http://www.w3.org/2000/svg">
<path d="M1565.62 1.76438C1531.08 3.09771 1496.55 4.83104 1488.95 5.63104C1440.42 10.5644 1360.28 19.3644 1351.88 20.5644C1346.42 21.3644 1322.15 25.8977 1297.88 30.6977C1166.02 56.5644 1082.01 79.6311 971.882 120.031C801.482 182.564 633.882 270.831 474.282 382.031C465.082 388.431 456.815 393.764 456.148 393.764C455.482 393.764 454.148 391.231 453.215 388.031C450.415 378.298 441.748 362.698 434.015 352.964C415.615 329.764 388.148 314.831 357.615 311.098C298.682 303.898 242.682 346.698 233.215 406.164C231.082 418.698 232.148 441.764 235.215 453.098C238.682 465.631 248.148 484.164 256.548 494.831C268.948 510.564 286.548 523.098 309.482 532.164C312.948 533.631 313.082 533.764 311.348 538.031C310.282 540.431 256.682 669.898 192.148 825.764C127.615 981.631 74.0149 1110.7 73.0816 1112.7L71.4816 1116.43H46.2816C19.4816 1116.43 14.6816 1117.36 8.14826 1123.5C-4.78507 1135.5 -1.85174 1157.76 13.6149 1166.03L19.2149 1169.1L341.215 1169.5C580.948 1169.76 665.082 1169.5 670.415 1168.43C675.882 1167.23 678.815 1165.5 683.215 1161.1C696.548 1147.76 692.148 1125.76 674.682 1118.3C671.348 1116.96 663.748 1116.43 644.415 1116.43C621.215 1116.43 618.548 1116.16 617.348 1114.03C616.682 1112.83 564.548 987.498 501.482 835.764C438.415 683.898 384.415 554.031 381.482 546.964L376.148 534.164L386.415 530.031C431.882 511.364 458.815 471.631 458.815 423.498V408.564L468.282 404.698C563.882 365.098 627.082 340.431 693.215 317.098C710.415 310.964 732.415 303.231 741.882 299.764C751.482 296.298 783.882 286.164 813.882 276.964C844.015 267.898 876.415 258.031 885.882 255.098C912.548 246.831 1053.75 211.764 1079.21 207.098C1091.75 204.831 1122.28 198.831 1147.22 193.764C1206.28 181.764 1205.48 181.898 1283.22 171.898C1366.42 161.098 1364.95 161.231 1424.55 156.431C1451.75 154.298 1481.08 151.764 1489.88 150.964C1513.22 148.831 1709.35 148.698 1758.55 150.831C1803.48 152.698 1815.75 153.631 1866.55 159.098C1886.68 161.231 1913.08 164.031 1925.22 165.098C1954.95 167.898 1972.42 170.164 2017.88 177.231C2039.22 180.564 2064.42 184.431 2073.88 185.898C2106.02 190.831 2246.81 220.564 2291.21 231.764C2404.01 260.298 2517.21 296.164 2639.88 342.031C2678.68 356.564 2756.01 387.098 2787.48 400.431L2803.61 407.231V422.831C2803.61 469.231 2827.21 506.698 2869.21 526.964C2875.35 530.031 2881.21 532.431 2882.15 532.431C2883.08 532.431 2883.88 533.098 2883.88 534.031C2883.88 534.831 2829.75 666.164 2763.61 825.898L2643.48 1116.3L2615.88 1116.7C2588.28 1117.1 2588.28 1117.1 2583.08 1120.7C2569.08 1130.43 2567.21 1149.23 2579.21 1161.1C2583.61 1165.5 2586.55 1167.23 2592.01 1168.43C2597.35 1169.5 2681.48 1169.76 2921.21 1169.5L3243.22 1169.1L3248.82 1166.03C3264.28 1157.76 3267.22 1135.5 3254.28 1123.5C3247.62 1117.23 3243.08 1116.43 3215.48 1116.43H3189.62L3069.08 826.298C3002.82 666.564 2948.55 535.364 2948.55 534.698C2948.55 533.898 2951.75 532.298 2955.48 530.964C2972.68 525.098 2992.01 511.764 3004.02 497.231C3012.68 486.698 3023.88 465.498 3027.22 453.098C3030.28 441.631 3031.22 418.698 3029.22 406.164C3019.75 346.698 2963.75 303.898 2904.95 311.098C2891.35 312.698 2872.01 318.698 2862.55 324.031C2837.75 338.164 2816.41 363.764 2809.21 388.031C2808.28 391.231 2807.21 393.764 2806.95 393.764C2806.55 393.764 2795.75 386.298 2782.81 377.231C2602.81 251.098 2411.48 155.498 2213.88 93.0978C2129.75 66.5644 2121.22 64.2977 2041.88 46.5644C1955.22 27.231 1945.75 25.4977 1883.88 17.7644C1865.88 15.4977 1842.55 12.431 1832.02 10.9644C1821.35 9.49771 1797.35 7.49771 1778.42 6.43104C1759.62 5.36438 1730.15 3.63104 1713.08 2.56438C1661.22 -0.635624 1632.02 -0.768958 1565.62 1.76438ZM335.615 826.698L335.215 1115.76L213.482 1116.16C145.215 1116.3 91.8816 1115.9 92.1483 1115.23C92.2816 1114.7 146.282 984.431 211.882 825.898C306.282 598.031 331.748 537.764 333.615 537.764C335.748 537.764 335.882 552.164 335.615 826.698ZM478.015 826.298C543.615 984.564 597.215 1114.56 597.215 1115.23C597.215 1115.9 545.748 1116.43 475.215 1116.43H353.215V826.964V537.631L356.015 538.031C358.548 538.431 375.882 579.498 478.015 826.298ZM2906.55 827.098V1116.43H2785.21C2718.55 1116.43 2663.88 1116.03 2663.88 1115.63C2663.88 1115.23 2717.35 985.764 2782.68 828.031C2848.01 670.164 2901.88 540.298 2902.15 539.364C2902.55 538.564 2903.61 537.764 2904.68 537.764C2906.28 537.764 2906.55 580.698 2906.55 827.098ZM3048.95 824.698C3114.28 982.564 3168.15 1112.83 3168.68 1114.03C3169.48 1116.3 3163.08 1116.43 3047.35 1116.43H2925.21V827.098C2925.21 546.164 2925.35 537.764 2927.75 537.764C2929.75 537.764 2951.35 588.831 3048.95 824.698Z" fill="#273F4B"/>
<path d="M1579.22 305.231C1576.28 305.498 1565.48 306.298 1555.22 307.098C1502.02 311.231 1437.88 322.964 1383.88 338.431C1193.48 393.231 1026.95 508.698 907.882 668.431C822.948 782.431 765.615 917.498 742.682 1057.36C723.215 1175.76 727.482 1298.56 755.215 1414.7C781.482 1524.43 830.415 1632.03 896.415 1724.96C1045.35 1934.7 1277.88 2071.9 1531.22 2099.63C1596.95 2106.83 1665.48 2106.83 1731.22 2099.63C1845.35 2087.1 1961.22 2050.7 2061.62 1995.63C2357.75 1833.23 2538.95 1521.36 2531.48 1186.43C2529.88 1114.7 2521.48 1052.43 2504.68 985.098C2434.82 706.564 2233.75 476.298 1966.55 368.698C1886.42 336.564 1806.68 317.098 1715.88 307.631C1696.55 305.631 1594.15 303.764 1579.22 305.231ZM1662.95 388.431C1724.28 391.098 1773.22 398.164 1830.68 412.564C2082.28 475.631 2290.28 656.964 2388.82 899.098C2406.28 942.031 2424.15 1002.3 2433.08 1048.43C2448.82 1130.03 2452.15 1218.56 2442.42 1300.43C2414.42 1537.23 2283.88 1749.9 2084.55 1883.76C1877.48 2022.7 1614.68 2058.96 1377.88 1981.1C1073.48 1881.1 854.282 1611.9 819.348 1295.1C812.015 1229.5 813.348 1152.16 822.682 1087.76C853.615 874.698 967.882 682.164 1140.55 552.031C1182.15 520.698 1222.55 495.764 1269.88 472.431C1304.95 455.098 1331.62 443.898 1366.28 432.031C1443.62 405.364 1526.28 390.298 1606.55 388.031C1613.48 387.764 1622.28 387.498 1625.88 387.364C1629.62 387.231 1646.15 387.764 1662.95 388.431Z" fill="#273F4B"/>
<path d="M1146.55 576.565C1121.88 595.765 1100.82 614.298 1077.62 636.965L1055.88 658.165V1204.43V1750.7L1078.28 1772.56C1103.22 1797.1 1119.22 1811.1 1144.55 1830.96L1161.88 1844.43L1162.55 1514.83C1163.22 1187.9 1163.22 1185.1 1165.88 1180.96C1167.35 1178.7 1190.28 1155.76 1216.82 1130.03C1254.95 1092.83 1265.08 1083.63 1265.88 1085.5C1269.48 1094.56 1294.82 1167.23 1333.88 1280.43C1380.82 1416.56 1392.28 1449.63 1428.55 1552.43C1440.02 1585.1 1458.02 1636.7 1468.55 1667.1C1495.08 1744.03 1513.08 1794.96 1515.22 1799.23C1516.28 1801.1 1518.15 1803.1 1519.22 1803.63C1520.42 1804.03 1539.88 1804.43 1562.42 1804.43C1601.62 1804.43 1603.62 1804.3 1605.88 1801.76C1608.95 1798.43 1608.42 1796.3 1599.22 1770.96C1594.02 1756.7 1591.88 1748.83 1591.88 1744.16C1591.88 1739.23 1598.42 1717.9 1618.55 1657.36C1669.88 1503.1 1686.82 1453.9 1688.68 1453.23C1689.88 1452.7 1691.08 1453.76 1692.02 1456.16C1695.62 1465.1 1734.68 1576.43 1759.88 1649.1C1800.55 1766.3 1812.28 1798.96 1814.95 1801.9C1817.22 1804.3 1819.62 1804.43 1857.88 1804.43C1880.15 1804.43 1899.35 1804.03 1900.42 1803.63C1905.62 1801.63 1905.35 1798.7 1897.22 1774.03C1892.28 1758.96 1889.22 1747.63 1889.22 1743.9C1889.22 1739.76 1896.68 1716.03 1914.68 1662.83C1928.55 1621.5 1984.28 1455.5 2038.42 1293.76C2092.55 1132.03 2139.08 994.298 2141.88 987.765C2156.42 952.565 2172.68 933.898 2196.28 925.098C2203.08 922.565 2207.35 917.898 2206.02 914.431C2205.35 912.698 2198.95 912.431 2158.55 912.431C2114.28 912.431 2111.75 912.565 2109.35 914.965C2105.62 918.698 2107.08 921.765 2115.08 926.831C2128.42 935.365 2132.15 945.631 2129.35 966.031C2127.22 982.031 2122.28 998.565 2095.88 1076.43C2083.35 1113.5 2052.42 1205.23 2027.22 1280.43C2002.02 1355.63 1964.42 1467.23 1943.48 1528.43C1922.55 1589.63 1900.28 1655.63 1894.02 1675.1C1882.68 1709.76 1880.02 1715.76 1877.22 1712.96C1875.62 1711.36 1816.42 1544.16 1765.88 1398.43C1753.88 1363.9 1728.15 1290.16 1708.55 1234.43C1676.68 1143.63 1634.82 1023.76 1627.62 1002.43C1620.55 981.365 1616.68 952.031 1619.88 942.565C1621.88 936.431 1627.75 929.498 1634.28 925.498C1642.02 920.831 1642.55 919.631 1638.55 915.365L1635.75 912.431H1549.75C1474.42 912.431 1463.75 912.698 1463.08 914.431C1461.75 917.898 1466.02 922.565 1472.82 925.098C1488.28 930.831 1502.55 942.165 1510.95 955.365C1523.75 975.231 1532.95 998.165 1564.42 1088.43C1574.95 1118.83 1591.22 1165.36 1600.55 1191.76C1609.88 1218.16 1623.88 1258.7 1631.88 1281.76C1639.88 1304.83 1653.88 1345.23 1663.08 1371.63C1672.55 1398.56 1679.88 1421.5 1679.88 1424.16C1679.88 1428.56 1588.68 1701.36 1584.28 1710.03C1583.35 1712.16 1582.02 1713.76 1581.35 1713.76C1578.28 1713.76 1582.42 1725.1 1493.88 1469.1C1472.82 1408.16 1436.28 1303.23 1412.55 1235.76C1388.82 1168.3 1361.88 1090.96 1352.42 1064.03L1335.48 1014.96L1345.35 1005.1C1402.68 948.431 1662.82 698.431 1674.55 688.831C1694.55 672.431 1723.62 653.098 1741.88 644.031C1756.28 636.831 1782.28 626.965 1813.48 617.098C1824.42 613.498 1829.35 611.365 1829.88 609.631C1830.95 606.565 1829.35 600.431 1827.35 600.298C1821.35 599.898 1664.28 600.965 1636.55 601.631L1601.88 602.431V606.965V611.631L1614.42 614.031C1636.28 618.431 1647.75 625.631 1654.55 639.631C1661.48 653.631 1661.35 666.431 1654.02 677.231C1649.48 684.031 1171.62 1145.76 1169.22 1145.76C1168.02 1145.76 1166.02 1144.7 1164.82 1143.36C1162.68 1141.1 1162.55 1118.56 1162.28 852.831L1161.88 564.698L1146.55 576.565Z" fill="#273F4B"/>
<path d="M52.5484 1192.43C46.9484 1194.7 43.4817 1200.16 42.9484 1207.36L42.415 1214.43L75.215 1266.43C93.3484 1294.96 109.348 1319.76 110.948 1321.5C112.415 1323.1 115.882 1324.96 118.415 1325.76C125.082 1327.63 565.482 1327.63 572.148 1325.76C574.815 1324.96 578.415 1322.7 580.148 1320.7C587.882 1311.5 648.015 1215.1 648.815 1210.7C649.748 1204.7 646.015 1196.96 640.682 1193.63C636.682 1191.23 628.015 1191.1 345.882 1191.23C186.015 1191.23 54.015 1191.76 52.5484 1192.43Z" fill="#273F4B"/>
<path d="M2621.61 1193.9C2616.41 1197.23 2612.68 1205.76 2614.01 1211.63C2614.55 1213.9 2629.88 1239.5 2648.28 1268.56C2672.41 1306.83 2682.68 1322.03 2685.75 1323.9C2689.75 1326.3 2696.81 1326.43 2916.55 1326.43C3140.81 1326.43 3143.21 1326.43 3147.75 1323.76C3151.21 1321.76 3159.88 1308.96 3186.01 1267.9C3218.68 1216.7 3219.88 1214.56 3219.88 1208.16C3219.88 1202.16 3219.35 1200.96 3214.68 1196.3L3209.48 1191.1H2917.75C2627.08 1191.1 2625.88 1191.1 2621.61 1193.9Z" fill="#273F4B"/>
<path d="M11378 748.627V1246.2H11407H11435.9V748.627V251.051H11407H11378V748.627Z" fill="#273F4B"/>
<path d="M8460.46 319.174C8438.42 325.853 8412.15 333.868 8402.13 336.985L8383.65 342.55V357.912V373.496H8420.39H8457.12V659.797V946.098L8448.44 954.78C8440.65 962.795 8438.86 963.463 8427.96 963.463C8421.28 963.463 8409.25 964.131 8401.02 965.021L8385.88 966.357V983.722V1001.31H8500.53H8615.19V983.722V966.134L8591.37 964.576C8559.08 962.795 8556.19 961.904 8549.51 954.112L8543.95 947.434V627.07V306.707L8522.35 306.93C8502.54 306.93 8496.75 308.043 8460.46 319.174Z" fill="#273F4B"/>
<path d="M8846.72 324.295L8789.95 341.66L8789.28 357.467L8788.61 373.496H8824.46H8860.08V660.91V948.324L8853.62 954.558C8846.05 962.35 8843.6 962.795 8812.88 964.576L8788.84 966.134V983.722V1001.31H8903.49H9018.14V983.722V966.357L9003.23 965.021C8994.77 964.131 8983.19 963.463 8977.4 963.463C8971.62 963.463 8963.82 961.904 8960.26 960.123C8946.01 952.777 8946.9 975.04 8946.9 625.067V306.707L8925.31 306.93C8904.83 307.152 8900.37 308.043 8846.72 324.295Z" fill="#273F4B"/>
<path d="M13219.2 320.288C13195.3 327.634 13169.1 335.649 13160.8 338.098L13145.7 342.551V357.912V373.496H13181.3H13216.9V459.876V546.256L13186.4 540.913C13159.9 536.46 13150.8 535.793 13120.1 536.906C13066.7 538.464 13033.7 547.369 12999.4 569.855C12945.8 604.808 12910.8 658.239 12896.1 728.144C12889.7 757.754 12889.2 809.849 12894.8 841.017C12911 929.178 12959.6 990.624 13027 1008.21C13050.9 1014.22 13089.1 1014.44 13112.5 1008.21C13139.9 1001.09 13174.2 983.722 13205.4 960.791L13216.9 952.109V976.821V1001.31H13291.5H13366.1V983.722V966.134L13346.7 964.576C13319.3 962.572 13315.6 961.682 13310.4 955.226C13306 949.66 13306 946.766 13306 628.184V306.707L13284.4 306.93C13264.4 307.153 13258.8 308.266 13219.2 320.288ZM13173.7 583.88C13184.7 585.884 13198.9 588.778 13205.4 590.782L13216.9 594.121V756.195V918.269L13190.9 930.514C13176.4 937.415 13159 944.317 13152.4 945.875C13136.6 949.66 13103.4 949.66 13087.8 945.875C13048.8 936.302 13015.7 904.689 12998.5 859.94C12988.5 834.338 12985.4 817.196 12983.8 783.133C12980.3 700.761 13006.1 637.089 13056.2 604.362C13089.8 582.322 13126.8 575.866 13173.7 583.88Z" fill="#273F4B"/>
<path d="M16346 324.295L16288.1 341.66L16287.4 357.69L16286.8 373.496H16322.6H16358.2V460.544C16358.2 534.012 16357.8 547.37 16355.1 546.479C16353.3 545.811 16339.1 543.14 16323.5 540.468C16283.9 533.567 16234.2 534.902 16201.3 543.585C16111.8 566.961 16051 638.87 16034.1 740.612C16029.4 769.776 16030.7 821.426 16037.2 851.036C16055.5 935.635 16104.9 993.964 16171 1009.32C16192.6 1014.45 16232.4 1013.78 16254.3 1008.21C16274.7 1002.87 16308.1 986.172 16337.1 966.58L16358.2 952.332V976.821V1001.31H16432.8H16507.4V983.723V966.358L16493.8 964.799C16486.2 964.131 16476.2 963.463 16471.3 963.463C16459.5 963.463 16450.4 958.343 16447.5 949.883C16445.7 944.763 16445.1 851.704 16445.1 624.845V306.708L16424.6 306.93C16405.4 306.93 16399.6 308.266 16346 324.295ZM16324.8 585.884C16332.8 587.666 16343.5 590.114 16348.9 591.45L16358.2 594.122L16357.8 755.973L16357.1 917.824L16336 928.511C16304.1 944.54 16288.1 948.77 16260.3 948.77C16210.8 948.77 16176.8 929.178 16151.2 885.543C16117.6 828.995 16113.8 733.488 16142.1 670.706C16162.3 626.18 16200.2 593.454 16242.5 583.881C16259.8 579.873 16303 580.987 16324.8 585.884Z" fill="#273F4B"/>
<path d="M5603.02 337.875C5580.53 348.339 5568.95 366.149 5568.73 390.193C5568.51 403.551 5569.4 407.558 5575.41 418.022C5594.78 452.529 5640.42 459.208 5666.69 430.934C5686.72 409.784 5688.51 377.281 5670.92 354.35C5656.67 335.649 5624.61 327.857 5603.02 337.875Z" fill="#273F4B"/>
<path d="M8077.54 336.985C8037.24 351.233 8027.89 406 8061.06 434.274C8070.64 442.511 8087.33 449.19 8098.69 449.19C8109.15 449.19 8126.29 442.734 8134.75 435.832C8147 425.814 8155.01 407.781 8154.79 390.639C8154.79 382.847 8153.23 372.828 8151 367.263C8146.33 355.686 8128.96 339.657 8116.94 336.095C8105.37 332.533 8088.67 332.978 8077.54 336.985Z" fill="#273F4B"/>
<path d="M9295.76 336.54C9269.27 346.113 9253.46 373.274 9258.58 400.657C9261.26 414.46 9265.26 421.807 9275.73 431.602C9289.08 444.515 9297.54 447.854 9315.36 447.854C9334.28 447.854 9345.19 442.956 9358.1 428.263C9390.38 391.752 9364.78 333.423 9316.47 333.646C9309.79 333.646 9300.44 334.981 9295.76 336.54Z" fill="#273F4B"/>
<path d="M12377 355.018C12376.3 356.131 12327.1 489.486 12267.4 651.782C12207.5 814.079 12157.4 947.879 12155.7 949.215C12154.1 950.55 12141.2 954.112 12127.2 956.784L12101.6 961.904V981.496V1001.31H12196.2H12290.8V981.718V961.904L12261.6 959.456C12231.6 957.007 12225.8 955.003 12222.9 945.43C12222 942.981 12234.2 906.47 12253.4 854.375L12285.2 767.549L12395 768.217L12505 768.662L12537 854.152C12554.6 901.127 12569.1 941.868 12569.1 944.539C12569.1 954.78 12565.1 956.784 12536.8 959.233C12522.1 960.346 12508.7 961.904 12507.4 962.35C12505.4 963.018 12504.5 969.029 12504.5 982.386V1001.31H12616.9H12729.4V981.718V962.127L12703.3 957.229C12689.1 954.558 12675.9 950.996 12674.2 949.215C12672.4 947.656 12662.8 924.28 12652.6 897.565C12642.5 870.627 12592.5 737.272 12541.3 601.023L12448.2 353.459H12413C12393.6 353.459 12377.4 354.127 12377 355.018ZM12442 601.468C12466.7 667.366 12486.5 721.688 12486 722.356C12485.6 722.801 12444 722.801 12393.6 722.578L12302.4 721.91L12342.2 613.935C12396.1 468.113 12393.6 474.792 12395.4 478.354C12396.5 480.135 12417.5 535.57 12442 601.468Z" fill="#273F4B"/>
<path d="M3572.64 388.635V408.449L3601.58 410.452C3626.96 412.456 3631.19 413.346 3635.64 417.576L3640.54 422.697L3641.21 682.06C3641.88 968.583 3642.54 951.886 3627.85 956.561C3623.84 957.675 3609.82 959.456 3596.68 960.346L3572.64 961.682V981.496V1001.31H3691.74H3810.85V981.496V961.682L3784.8 960.346C3770.33 959.456 3755.42 957.675 3751.41 956.561C3736.94 952.109 3737.38 955.226 3737.38 832.112V720.797H3770.56H3803.5L3891.89 847.473L3980.05 974.149V987.729V1001.31H4062.42H4144.79V981.496V961.682L4113.85 960.123C4096.71 959.233 4080.68 957.229 4078.23 955.893C4075.56 954.558 4026.36 884.43 3968.92 800.053L3864.28 646.884L3959.12 532.898C4011.44 470.339 4054.85 418.244 4055.74 417.354C4056.63 416.463 4071.77 413.792 4089.36 411.788L4121.42 408.003L4122.09 388.412L4122.75 369.043H4022.35H3922.17V388.857V408.449L3946.88 410.675C3967.14 412.456 3972.26 413.792 3976.04 417.576C3979.6 421.138 3980.27 423.365 3978.71 426.482C3977.6 428.708 3930.63 487.037 3874.3 555.606L3771.89 680.724H3754.75H3737.38V553.603C3737.38 470.785 3738.27 425.146 3739.61 422.252C3743.84 414.46 3753.19 411.788 3782.58 410.23L3810.85 408.671V388.857V369.043H3691.74H3572.64V388.635Z" fill="#273F4B"/>
<path d="M6956.6 388.858V408.45L6983.76 413.793L7010.7 419.136L7087.73 718.127L7164.76 1016.89L7199.04 1016.45L7233.33 1015.78L7310.36 754.415C7371.14 548.261 7387.83 494.384 7389.39 498.614C7390.28 501.508 7425.9 619.057 7468.42 759.758L7545.45 1015.78L7580.18 1016.45L7614.91 1016.89L7619.81 996.413C7622.48 985.059 7654.99 850.591 7691.94 697.422L7759.4 419.136L7787.67 413.793L7815.95 408.672V388.858V369.044H7720.22H7624.49V388.636V408.45L7656.77 411.344C7687.05 414.015 7689.5 414.461 7693.5 419.804C7695.95 422.698 7697.96 426.705 7697.96 428.264C7697.96 431.38 7593.54 872.854 7592.43 873.744C7592.21 874.19 7557.7 760.871 7516.07 622.173L7440.37 370.157L7403.64 369.489L7366.91 369.044L7300.78 588.779C7223.09 847.251 7218.86 860.609 7217.97 857.715C7211.29 836.788 7105.76 431.158 7105.76 426.705C7105.76 417.132 7110.66 414.015 7129.58 412.457C7139.16 411.566 7152.51 410.231 7159.19 409.34L7171.44 408.004L7172.11 388.413L7172.77 369.044H7064.58H6956.6V388.858Z" fill="#273F4B"/>
<path d="M4481.86 538.464C4466.05 541.136 4435.33 550.932 4421.97 557.833C4344.94 596.571 4300.64 677.83 4300.64 779.794C4300.64 855.711 4322.68 912.927 4368.54 956.562C4407.5 993.518 4459.59 1012.89 4519.92 1012.89C4568.24 1012.89 4603.63 1003.54 4660.18 975.931C4702.04 955.449 4699.36 958.788 4698.7 926.284L4698.03 899.124L4681.33 909.142C4653.28 926.284 4608.09 947.434 4591.61 951.219C4529.94 965.244 4474.51 950.551 4438.67 910.7C4411.73 880.645 4391.91 820.313 4391.91 768.44V754.192H4545.75H4699.81L4698.47 723.469C4696.02 660.02 4678.88 614.158 4645.71 580.764C4622.78 557.833 4595.17 543.807 4561.11 538.464C4544.19 535.57 4498.33 535.793 4481.86 538.464ZM4545.53 586.33C4567.34 592.786 4586.71 613.713 4596.51 641.542C4601.85 656.68 4606.3 688.516 4605.19 703.21L4604.52 713.006H4501H4397.48L4398.15 700.761C4398.37 694.082 4400.82 680.947 4403.27 671.819C4421.52 604.363 4482.52 567.629 4545.53 586.33Z" fill="#273F4B"/>
<path d="M5567.4 553.603L5512.85 570.745L5512.18 587.888L5511.52 605.03H5544.02H5576.3V777.345C5576.3 947.434 5576.3 949.66 5571.85 955.226C5566.73 961.682 5562.72 962.572 5531.33 964.799L5509.51 966.134V983.722V1001.31H5620.83H5732.14V983.722V966.357L5717.22 965.021C5708.76 964.131 5697.41 963.463 5691.62 963.463C5685.83 963.463 5678.49 962.35 5675.37 960.791C5662.68 955.003 5663.13 963.463 5663.13 740.834V536.015L5642.64 536.238C5623.28 536.238 5618.38 537.351 5567.4 553.603Z" fill="#273F4B"/>
<path d="M6180.74 540.245C6157.81 546.033 6132.65 556.497 6093.91 576.088L6059.41 593.676V570.523V547.147H6040.04C6023.56 547.147 6016.22 548.482 5992.62 555.829C5977.25 560.727 5951.43 568.742 5935.4 573.862L5905.79 582.99V598.574V613.935H5939.19H5972.58V781.798C5972.58 947.211 5972.58 949.66 5968.13 955.226C5963.01 961.682 5959 962.572 5927.61 964.799L5905.79 966.134V983.722V1001.31H6012.65H6119.51V983.499C6119.51 966.58 6119.29 965.689 6114.62 965.467C6111.72 965.467 6100.59 964.576 6089.91 963.686C6074.1 962.35 6069.2 961.014 6065.42 957.007L6060.52 952.109V791.371V630.632L6080.55 622.395C6113.95 608.592 6136.88 604.362 6170.05 605.698C6188.75 606.366 6202.11 607.924 6208.79 610.373C6221.7 615.048 6235.95 627.07 6243.07 639.092C6254.87 659.352 6255.32 666.03 6255.32 813.856V950.328L6249.98 955.671C6243.74 961.904 6240.63 962.795 6214.8 964.576L6195.21 966.134V983.722V1001.31H6299.84H6404.48V983.722V966.134L6385.11 964.576C6357.28 962.572 6354.17 961.682 6347.71 954.112L6342.14 947.434V802.502C6342.14 711.892 6341.25 652.005 6339.7 642.877C6330.79 587.665 6299.62 550.486 6252.65 539.355C6233.72 534.902 6200.11 535.347 6180.74 540.245Z" fill="#273F4B"/>
<path d="M8038.58 553.825L7984.03 571.19V587.442V603.917L8015.87 604.585L8047.48 605.253V777.79C8047.48 886.211 8046.59 951.886 8045.26 954.558C8042.58 959.678 8031.68 963.463 8019.65 963.463C8014.53 963.463 8004.07 964.131 7996.5 964.799L7982.92 966.357V983.722V1001.31H8093.12H8203.32V983.722V966.134L8181.73 964.799C8150.11 962.572 8146.11 961.682 8140.99 955.226C8136.53 949.66 8136.53 947.656 8136.53 742.837V536.015L8114.94 536.238C8094.23 536.46 8090.45 537.351 8038.58 553.825Z" fill="#273F4B"/>
<path d="M9256.36 553.603L9201.81 570.745L9201.15 587.888L9200.48 605.03H9232.98H9265.26V778.235V951.664L9259.7 956.784C9255.02 961.237 9250.79 962.35 9232.54 963.686C9220.52 964.576 9208.49 965.467 9205.82 965.689C9200.92 965.689 9200.7 966.58 9200.7 983.499V1001.31H9310.9H9421.1V983.722V966.134L9399.51 964.799C9368.34 962.795 9364.56 961.904 9358.55 955.448L9353.2 949.66L9352.53 742.837L9352.09 536.015L9331.38 536.238C9312.24 536.46 9307.12 537.573 9256.36 553.603Z" fill="#273F4B"/>
<path d="M9778.42 538.465C9705.18 548.483 9648.19 580.319 9636.39 617.721C9627.7 644.436 9629.93 662.246 9642.17 668.925C9648.19 672.265 9656.42 673.155 9692.04 673.601L9735.01 674.491L9735.46 632.637L9736.12 590.783L9749.48 586.553C9769.07 580.319 9816.72 578.761 9834.08 583.881C9875.04 595.68 9890.63 624.845 9890.85 689.852V713.228L9839.2 726.141C9708.74 758.2 9642.84 790.258 9621.69 831.667C9610.34 853.93 9606.78 894.003 9613.68 923.168C9623.47 964.799 9654.64 996.413 9697.83 1009.1C9713.19 1013.56 9744.14 1014 9763.06 1010.22C9793.34 1004.2 9839.42 981.942 9874.38 957.007C9881.28 951.887 9887.96 947.879 9888.85 947.879C9890.41 947.879 9893.3 958.788 9899.98 989.956L9902.43 1001.31H9972.33H10042.2V983.723V966.135L10020.6 964.577C9991.26 962.796 9987.92 961.905 9981.91 955.449L9976.56 949.661L9975.45 792.484L9974.34 635.086L9968.1 616.83C9954.52 576.534 9929.59 553.158 9887.51 541.581C9871.48 537.129 9802.69 535.125 9778.42 538.465ZM9890.85 830.999V912.259L9879.27 919.828C9849.44 938.752 9814.71 953 9787.77 957.23C9750.15 963.018 9721.88 946.098 9708.07 909.81C9699.61 887.77 9700.5 860.386 9710.52 839.904C9722.77 814.525 9764.18 787.809 9818.5 769.776C9838.09 763.32 9884.4 749.962 9888.18 749.962C9890.18 749.74 9890.85 767.327 9890.85 830.999Z" fill="#273F4B"/>
<path d="M10485.3 537.351C10466.3 540.913 10430.9 554.716 10395.1 572.526L10353.9 593.008V570.077V547.147H10333.9C10318.1 547.147 10309.6 548.482 10293.4 553.603C10282 557.165 10256.4 565.179 10236.6 571.636L10200.3 582.99V598.351V613.935H10233.7H10267.1V778.458C10267.1 892.889 10266.4 944.985 10264.6 949.883C10261.5 958.565 10252.6 963.463 10239.9 963.463C10234.6 963.463 10223.7 964.131 10215.4 965.021L10200.3 966.357V983.722V1001.31H10307.2H10414V983.722V966.134L10394.7 964.576C10367.3 962.572 10363.5 961.682 10358.4 955.226C10353.9 949.66 10353.9 946.543 10353.9 790.703V631.746L10362.4 627.516C10376.2 620.392 10407.6 610.151 10424.3 607.256C10433.6 605.475 10450.5 604.807 10466.6 605.475C10495.5 606.366 10509.5 610.818 10524.7 623.731C10534.7 632.191 10544.9 654.231 10547.6 672.932C10548.7 681.837 10549.8 744.619 10549.8 818.086V947.434L10544 954.335C10538 961.459 10534.9 962.35 10507.1 964.576L10489.7 966.134V983.722V1001.31H10593.2H10696.8V983.722V966.357L10685.2 964.799C10678.7 964.131 10668.9 963.463 10663.4 963.463C10651.6 963.463 10639.6 957.007 10637.8 949.66C10637.1 946.766 10636.4 876.86 10636 794.265C10635.3 657.793 10634.9 642.654 10631.3 629.519C10622 595.68 10603.9 568.519 10581.4 554.048C10562.5 542.026 10547.2 537.796 10517.6 537.128C10502.9 536.683 10488.4 536.906 10485.3 537.351Z" fill="#273F4B"/>
<path d="M14354.3 538.242C14279.1 551.822 14221.9 596.348 14191.8 664.695C14157.8 742.17 14163.1 841.908 14205.2 911.813C14248.1 983.723 14324.7 1020.01 14416.9 1012.22C14470.1 1007.54 14514.4 987.507 14550.3 951.887C14599.5 902.686 14624.6 827.437 14617.5 750.185C14609 658.239 14566.1 590.337 14494.6 556.275C14464.1 541.581 14446.3 537.797 14402.4 536.906C14381.7 536.683 14359.9 537.129 14354.3 538.242ZM14435.4 584.771C14444.1 588.111 14453.2 594.344 14462.5 603.25C14501.1 639.093 14520.2 695.863 14520.2 774.229C14520.2 852.594 14501.1 909.364 14462.5 945.208C14446.5 960.347 14431.6 967.025 14408.2 969.92C14372.6 974.372 14344.3 964.354 14320.5 939.197C14285.5 902.018 14269.1 848.587 14269.1 773.115C14269.3 673.155 14302.5 603.027 14359 583.213C14378.6 576.311 14415.8 577.202 14435.4 584.771Z" fill="#273F4B"/>
<path d="M14979 537.575C14959.7 540.469 14933.4 548.038 14918.7 554.94C14858.8 582.546 14828.8 629.298 14828.8 694.974C14828.8 723.248 14832.1 739.499 14842.3 760.649C14851 778.237 14875.3 804.284 14894.2 816.084C14906.7 824.098 14931.4 835.007 14940.5 837.011C14943.6 837.456 14942.1 840.573 14932.7 851.482C14900.9 889.106 14890.9 922.946 14902.2 955.672C14904.7 962.796 14906.2 969.03 14905.8 969.475C14905.3 970.143 14899.1 971.924 14891.8 973.928C14884.6 975.709 14872.2 980.829 14863.9 985.059C14812.5 1012 14792 1081.46 14819 1137.11C14829.7 1158.71 14854.4 1183.64 14876.6 1195.44C14922.9 1219.71 14996.6 1225.28 15059.2 1209.47C15154.2 1185.43 15224.6 1118.41 15228.8 1048.06C15233.5 970.143 15170.1 929.847 15014.9 912.482C14993.1 910.033 14974.6 907.362 14973.7 906.694C14973 905.803 14972.4 895.562 14972.4 883.763C14972.4 866.621 14973.5 860.387 14976.8 853.708L14981.3 845.248L15005.8 844.358C15035.1 843.467 15057.4 839.237 15082.1 830.332C15128.6 813.19 15164.9 778.905 15178.7 739.054C15183.2 726.364 15183.9 719.685 15183.9 694.083C15183.9 661.134 15181.9 652.451 15167.8 624.4L15160.5 609.484H15207.2H15254V587.221V564.958H15192.1H15130.2L15108.2 555.83C15069.4 540.024 15058.7 537.797 15020.2 537.13C15001.3 536.684 14982.8 536.907 14979 537.575ZM15040.9 580.542C15076.1 597.239 15098.4 646.218 15095.3 699.649C15093.7 725.474 15089.7 740.39 15078.8 761.54C15069 780.018 15053.4 794.489 15036.3 800.945C15019.6 807.401 14989.1 806.511 14973 799.387C14939.2 784.025 14917.8 740.835 14917.8 688.072C14918 631.97 14940.7 592.119 14980.8 577.871C14997.1 572.082 15026 573.418 15040.9 580.542ZM15009.1 983.501C15063.2 991.293 15084.6 996.413 15106.2 1006.65C15124.9 1015.56 15136.9 1025.58 15143.3 1037.82C15147.1 1044.95 15148 1050.96 15148.2 1065.87C15148.2 1083.68 15147.6 1085.91 15138.7 1104.61C15122.6 1138.01 15091.5 1163.16 15055.6 1171.62C15038.9 1175.41 14998.9 1176.08 14981.9 1172.51C14929.8 1161.6 14886.9 1107.06 14892 1058.08C14894 1039.6 14905.8 1015.34 14919.4 1002.42C14927.6 994.41 14956.8 977.045 14962.1 976.822C14962.6 976.822 14983.7 979.716 15009.1 983.501Z" fill="#273F4B"/>
<path d="M15589 539.577C15542.7 546.701 15499.5 564.067 15476.2 584.994C15447.5 610.596 15438.3 657.348 15459.5 669.147C15465.5 672.264 15473.9 673.155 15509.3 673.6L15552.3 674.491L15552.8 632.636L15553.4 590.782L15566.8 586.552C15585.7 580.318 15634 578.76 15650.5 583.435C15676.8 591.227 15693.5 607.479 15701.5 633.527C15706.8 650.669 15710.4 710.111 15706.4 712.783C15705 713.673 15680.1 720.13 15650.9 727.476C15503.1 764.21 15443.2 798.94 15429.6 855.488C15425.9 871.74 15426.3 906.47 15430.8 923.39C15440.8 962.573 15468.2 993.295 15504.7 1005.99C15553.4 1023.13 15611.3 1009.55 15678.1 965.689C15691.5 956.784 15703.5 949.215 15704.8 948.77C15706.4 948.102 15709 955.894 15712.4 970.587C15715.1 983.277 15717.9 995.299 15718.4 997.303C15719.5 1001.09 15724.8 1001.31 15789.6 1001.31H15859.5V983.722V966.135L15837.9 964.576C15808.6 962.795 15805.2 961.905 15799.2 955.448L15793.9 949.66L15792.5 793.597C15791.2 621.727 15791.6 627.961 15776.9 597.016C15768.9 580.096 15747.3 559.169 15729.1 550.486C15699.9 536.683 15638.5 532.008 15589 539.577ZM15707.7 831.667L15708.2 911.813L15702.1 916.266C15698.6 918.715 15686.3 925.616 15674.8 931.85C15626.4 957.675 15587 964.576 15560.8 951.664C15545.4 944.094 15536.1 933.853 15526.9 914.485C15520.9 901.572 15520 897.788 15520 879.977C15520.3 856.601 15522.9 845.915 15532.5 831.444C15550.8 803.838 15599.1 778.904 15675.9 757.531C15690.6 753.301 15703.7 750.184 15704.8 750.63C15706.1 751.075 15707.3 780.462 15707.7 831.667Z" fill="#273F4B"/>
<path d="M16865.6 539.355C16823.7 547.147 16785.2 567.406 16755.4 597.239C16709.5 642.878 16687.7 700.538 16687.7 775.342C16687.7 824.543 16695.3 858.828 16714.7 897.788C16743.2 954.781 16795.5 995.077 16858 1008.21C16896.3 1016.45 16954.2 1013.33 16988.7 1001.53C17058.6 977.489 17112.3 914.485 17129.6 836.565C17135.4 810.295 17136.5 755.083 17131.9 727.254C17118.7 647.998 17077.1 588.111 17013.9 557.165C16983.6 542.249 16963.1 537.797 16919.3 536.906C16893.6 536.461 16877.4 537.129 16865.6 539.355ZM16955.1 586.552C17007.2 611.042 17037.2 679.834 17037.2 774.229C17037.2 886.211 16994.7 961.46 16926.8 969.92C16885 975.04 16850.7 960.347 16827.1 927.175C16797.3 884.875 16783.9 831.222 16786.3 761.984C16789.9 664.918 16823.5 600.133 16880.3 581.432C16886.1 579.428 16898.1 578.538 16914.8 578.983C16938.2 579.428 16941.7 580.096 16955.1 586.552Z" fill="#273F4B"/>
<path d="M4863.89 564.734C4863.89 585.216 4862.11 583.88 4893.27 586.329C4903.74 586.997 4913.31 588.333 4914.65 589.223C4915.76 589.891 4950.71 682.728 4992.34 795.378L5067.82 1000.2L5098.76 1000.86L5129.93 1001.31L5212.08 795.378C5265.73 661.355 5295.56 589.223 5297.79 588.555C5299.79 588.11 5308.48 586.997 5316.94 586.107C5346.77 583.658 5344.77 584.993 5344.77 564.734V547.146H5262.39H5180.02V564.734V582.099L5188.48 583.658C5192.93 584.326 5202.51 584.993 5209.41 584.993C5224.55 584.993 5232.12 588.11 5235.45 595.234C5238.35 601.468 5240.8 594.566 5170 774.228C5144.62 838.568 5123.03 893.557 5121.69 896.674C5120.13 901.127 5119.24 901.572 5117.68 898.9C5112.56 889.327 5013.05 606.143 5013.05 600.8C5013.05 589.669 5019.5 586.552 5046 584.771C5059.13 583.88 5070.49 582.99 5071.6 582.99C5072.49 582.767 5073.16 574.752 5073.16 564.957V547.146H4968.52H4863.89V564.734Z" fill="#273F4B"/>
<path d="M13524.2 564.735C13524.2 585.217 13522.4 583.881 13551.3 586.33C13562 586.998 13572.2 588.779 13574 590.338C13575.8 591.673 13611 684.732 13652.4 797.16L13727.6 1001.53L13758.6 1000.87L13789.5 1000.2L13871.5 795.602C13916.4 683.174 13954.5 590.338 13956.3 589.447C13958.1 588.556 13967.4 586.998 13977.2 586.108C14006.8 583.659 14005 584.994 14005 564.735V547.147H13922.7H13840.3V564.958C13840.3 574.753 13840.5 582.768 13841 582.991C13841.2 582.991 13851.6 583.881 13864.1 584.772C13888.8 586.553 13895.9 589.892 13895.9 599.688C13895.9 607.035 13779.7 901.796 13777.7 899.569C13776.8 898.679 13752.4 831.445 13723.4 750.185C13685.3 643.323 13671.1 601.024 13672 597.016C13674 589.67 13685.3 584.994 13701.6 584.994C13708.7 584.994 13718.3 584.327 13723 583.659L13731.2 582.1V564.735V547.147H13627.7H13524.2V564.735Z" fill="#273F4B"/>
<path d="M9795.12 1360.63L9765.07 1369.98L9764.4 1378L9763.73 1386.24L9783.32 1386.9L9802.91 1387.57L9803.58 1547.64L9804.03 1707.94L9799.13 1713.06C9795.57 1716.84 9792 1718.18 9784.21 1718.18C9766.18 1718.18 9763.95 1719.51 9763.95 1730.64V1740.44H9827.4H9890.85V1730.64C9890.85 1719.51 9888.62 1718.18 9870.59 1718.18C9851.67 1718.18 9853 1733.54 9853 1530.5V1350.84L9839.2 1351.06C9829.63 1351.28 9815.83 1354.18 9795.12 1360.63Z" fill="#273F4B"/>
<path d="M12062.6 1360.63L12031.4 1370.21L12030.8 1378.44L12030.1 1386.46H12050.1H12070.4V1563.67V1741.11L12125.6 1739.77C12188.8 1738.44 12202.6 1736.21 12230 1722.63C12263 1706.38 12285.2 1677.88 12293.9 1640.26C12298.4 1621.78 12298.4 1581.26 12294.1 1562.78C12286.3 1530.06 12264.5 1500.67 12238.7 1488.65C12207.8 1474.18 12172.4 1475.73 12131.4 1493.54C12125.8 1495.77 12120.7 1497.77 12120.3 1497.77C12119.8 1497.77 12119.4 1464.6 12119.4 1424.31V1350.84L12106.7 1351.06C12098.4 1351.06 12082.6 1354.62 12062.6 1360.63ZM12198 1516.25C12230.9 1531.17 12244.3 1559 12244.3 1611.31C12244.3 1640.48 12241.1 1657.62 12232.9 1673.65C12218.7 1701.48 12182.6 1717.29 12137 1715.51L12120.5 1714.84L12119.8 1616.44L12119.4 1518.03L12127.6 1515.58C12155.4 1507.57 12179.5 1507.79 12198 1516.25Z" fill="#273F4B"/>
<path d="M13694.5 1360.63L13663.3 1369.98L13662.6 1378L13662 1386.24L13681.6 1386.9L13701.1 1387.57L13701.8 1436.33L13702.3 1484.86L13695.1 1483.53C13658.6 1476.85 13629 1477.74 13603 1486.64C13552.7 1504.01 13519.7 1556.55 13519.7 1618.88C13519.7 1647.83 13524.2 1668.09 13535.1 1690.57C13560.7 1742.44 13611.4 1759.81 13664.2 1734.87C13673.3 1730.42 13685.6 1723.52 13691.6 1719.29L13702.3 1711.5V1725.97V1740.44H13743.4H13784.6V1730.64C13784.6 1719.51 13782.9 1718.18 13767.9 1718.18C13749.9 1718.18 13751.2 1733.09 13751.2 1530.95V1350.84L13738.5 1351.06C13730.3 1351.06 13714.3 1354.62 13694.5 1360.63ZM13694 1508.91L13702.3 1511.35V1602.19V1693.02L13687.1 1700.14C13632.4 1725.3 13588.1 1702.82 13574 1643.15C13569.1 1622.45 13570.9 1582.15 13577.4 1563.45C13587.4 1534.95 13607 1514.92 13633.2 1506.46C13640.8 1504.01 13683.6 1505.57 13694 1508.91Z" fill="#273F4B"/>
<path d="M15545.6 1360.63L15515.6 1369.98L15514.9 1378L15514.2 1386.24L15533.8 1386.9L15553.4 1387.57L15554.1 1436.33L15554.5 1485.08L15545.2 1483.3C15508.7 1477.29 15490.4 1477.29 15464.4 1483.75C15421.8 1494.21 15388.2 1529.83 15375.1 1577.92C15369.5 1597.73 15369.5 1640.48 15374.9 1660.29C15384.7 1696.58 15404 1723.96 15428.5 1735.99C15462.8 1752.91 15500 1748.01 15538.7 1721.74C15545.2 1717.29 15551.4 1713.72 15552.5 1713.72C15553.6 1713.72 15554.5 1719.73 15554.5 1727.08V1740.44H15595.7H15636.9V1730.64C15636.9 1719.73 15634.7 1718.18 15617.5 1718.18C15600.2 1718.18 15601.3 1730.87 15601.3 1529.61V1350.84L15588.6 1351.06C15580.4 1351.28 15564.8 1354.62 15545.6 1360.63ZM15544.5 1509.13L15553.4 1512.24L15554.1 1601.52L15554.5 1691.02L15549.4 1694.35C15524.3 1710.83 15492.4 1714.84 15469.7 1704.37C15441.7 1691.46 15425 1661.85 15421.8 1619.11C15418.1 1565.9 15442.6 1520.26 15481.7 1507.57C15493.5 1503.78 15532.1 1504.67 15544.5 1509.13Z" fill="#273F4B"/>
<path d="M7198.82 1357.29C7193.03 1361.97 7122.9 1443.01 7121.79 1446.79C7121.35 1447.9 7126.91 1448.8 7134.26 1448.8C7147.62 1448.8 7148.06 1448.57 7188.58 1422.97C7211.06 1408.72 7231.55 1394.92 7234.22 1392.47C7244.01 1383.56 7242.68 1363.97 7231.77 1356.4C7224.87 1351.51 7205.5 1352.17 7198.82 1357.29Z" fill="#273F4B"/>
<path d="M9992.15 1402.93C9974.34 1426.75 9959.87 1446.79 9959.87 1447.46C9959.87 1448.13 9966.55 1448.8 9974.56 1448.8H9989.25L10017.3 1422.08L10045.1 1395.36L10072.5 1422.08L10099.7 1448.8H10114.4C10122.4 1448.8 10129.1 1448.13 10129.1 1447.46C10129.1 1446.57 10114.8 1426.53 10097.5 1402.93L10065.6 1359.97L10044.9 1359.74H10024.4L9992.15 1402.93Z" fill="#273F4B"/>
<path d="M5915.81 1373.32C5884.86 1400.49 5921.15 1446.12 5955.88 1423.42C5967.01 1416.07 5971.24 1396.92 5964.34 1382.67C5959.22 1371.77 5949.65 1366.42 5935.4 1366.42C5925.61 1366.42 5922.49 1367.54 5915.81 1373.32Z" fill="#273F4B"/>
<path d="M7531.65 1370.88C7512.95 1382.23 7513.17 1412.73 7531.87 1424.08C7550.57 1435.66 7574.4 1426.75 7579.96 1406.27C7583.3 1394.03 7579.52 1381.78 7569.94 1373.32C7563.26 1367.54 7560.15 1366.42 7550.35 1366.42C7542.78 1366.42 7536.33 1367.98 7531.65 1370.88Z" fill="#273F4B"/>
<path d="M10774.2 1374.88C10766.5 1382.23 10765.1 1385.12 10764.2 1394.47C10763.3 1403.38 10764.2 1406.72 10768.5 1412.95C10776.5 1424.75 10783.8 1429.2 10795.4 1429.2C10808.8 1429.2 10818.1 1423.42 10823.7 1412.06C10835 1388.46 10821.2 1366.42 10794.9 1366.42C10784.7 1366.42 10782.5 1367.31 10774.2 1374.88Z" fill="#273F4B"/>
<path d="M15715.5 1370.88C15701.5 1379.33 15697 1400.04 15706.1 1414.73C15720.4 1437.89 15756.7 1432.54 15763.8 1406.27C15767.1 1394.03 15763.4 1381.78 15753.8 1373.32C15747.1 1367.54 15744 1366.42 15734.2 1366.42C15726.6 1366.42 15720.2 1367.98 15715.5 1370.88Z" fill="#273F4B"/>
<path d="M16343.3 1370.87C16323.7 1382.67 16324.8 1414.96 16345.3 1425.64C16360.9 1433.66 16380.7 1427.87 16388.3 1413.17C16395.9 1398.26 16389.6 1376.22 16376 1369.32C16367.6 1365.09 16351.5 1365.75 16343.3 1370.87Z" fill="#273F4B"/>
<path d="M3701.1 1381.12C3608.93 1401.6 3553.05 1483.97 3563.73 1583.49C3572.86 1667.19 3629.85 1730.64 3708.66 1744.89C3743.84 1751.35 3797.27 1746.23 3836.45 1733.09L3852.04 1727.75L3852.71 1685.23L3853.15 1642.48H3837.79H3822.43L3819.09 1657.4C3817.08 1665.86 3814.41 1678.55 3813.08 1685.9C3809.52 1704.15 3806.4 1708.16 3791.48 1713.95C3765.88 1723.74 3723.58 1719.96 3693.3 1705.49C3665.25 1691.91 3638.54 1656.51 3629.63 1621.11C3620.73 1586.6 3620.73 1537.18 3629.41 1503.34C3641.65 1455.47 3677.94 1418.3 3721.8 1408.72C3740.28 1404.71 3773.45 1406.72 3789.26 1412.95C3810.63 1421.41 3812.41 1423.86 3816.86 1453.25L3820.87 1478.85L3837.12 1479.52L3853.15 1480.19L3852.71 1438.33L3852.04 1396.7L3820.87 1388.02C3791.26 1379.78 3787.7 1379.11 3752.97 1378.44C3725.81 1377.78 3712.23 1378.44 3701.1 1381.12Z" fill="#273F4B"/>
<path d="M7348.65 1449.69L7337.07 1477.07L7319.49 1485.53C7301.68 1493.77 7301.68 1493.77 7301.68 1502.45V1511.13H7318.37H7334.85L7335.51 1610.65C7336.18 1707.49 7336.41 1710.61 7341.08 1720.85C7347.31 1734.43 7358.45 1741.78 7377.81 1744.89C7396.52 1747.79 7420.78 1744.67 7443.94 1736.21L7460.85 1730.2L7461.52 1719.73C7461.97 1713.95 7461.75 1709.27 7461.3 1709.27C7460.63 1709.27 7455.96 1710.83 7450.61 1712.83C7445.27 1714.61 7434.58 1716.17 7427.02 1716.4C7408.09 1716.4 7398.07 1711.05 7390.73 1696.8L7385.16 1686.12L7384.49 1598.62L7383.83 1511.13H7420.78H7457.52V1497.77V1484.42H7420.78H7384.05V1453.25V1422.08H7372.03H7360.23L7348.65 1449.69Z" fill="#273F4B"/>
<path d="M16507.8 1431.43C16505.6 1436.77 16500.5 1449.24 16496.3 1459.26L16488.9 1477.51L16470.2 1485.75L16451.7 1493.99V1502.67V1511.13H16469.5H16487.4V1607.31C16487.4 1709.49 16488 1715.73 16497.8 1729.09C16513.4 1749.34 16556.4 1751.79 16600.4 1734.43L16614.2 1728.86V1718.84C16614.2 1710.16 16613.8 1709.05 16610.5 1710.38C16608.2 1711.27 16600.2 1713.28 16592.9 1714.84C16568.4 1719.96 16549.9 1713.28 16541.7 1696.58C16537.9 1688.79 16537.4 1681 16536.8 1599.52L16536.1 1511.13H16573.1H16609.8V1497.77V1484.42H16573.1H16536.3V1453.25V1422.08H16524.1H16512.1L16507.8 1431.43Z" fill="#273F4B"/>
<path d="M3998.97 1479.96C3958.45 1485.53 3925.73 1508.68 3907.47 1544.97C3884.99 1589.94 3887.21 1650.94 3913.04 1691.02C3936.64 1727.53 3971.14 1745.56 4016.78 1745.56C4073.55 1745.56 4116.97 1715.06 4135 1662.52C4143.01 1639.59 4144.79 1603.74 4139.23 1578.81C4128.99 1530.94 4096.71 1494.21 4055.52 1483.75C4039.05 1479.29 4015 1477.74 3998.97 1479.96ZM4036.6 1504.67C4048.62 1508.01 4065.54 1524.71 4073.55 1540.96C4084.46 1563.23 4087.8 1579.92 4087.8 1612.43C4087.8 1657.4 4077.34 1688.34 4055.52 1707.94C4039.27 1722.63 4018.79 1726.41 3997.19 1719.07C3942.87 1700.59 3928.4 1575.03 3974.48 1520.48C3987.4 1504.9 4013.67 1498.22 4036.6 1504.67Z" fill="#273F4B"/>
<path d="M4331.8 1479.96C4317.78 1482.41 4293.51 1491.99 4274.59 1502.45L4258.34 1511.35V1497.77V1484.42H4248.76C4243.64 1484.42 4224.94 1488.87 4207.13 1494.43C4189.32 1500 4174.63 1504.45 4174.4 1504.45C4173.96 1504.45 4173.74 1508.46 4173.74 1513.36V1522.26H4191.55H4209.36V1616.66C4209.36 1723.52 4210.25 1718.18 4191.99 1718.18C4173.51 1718.18 4171.29 1719.73 4171.96 1730.2L4172.62 1739.33L4232.29 1739.99L4291.73 1740.44V1730.64C4291.73 1719.96 4289.5 1718.18 4273.47 1718.18C4257.89 1718.18 4258.34 1721.52 4258.34 1621.56V1531.61L4269.02 1527.16C4284.38 1520.48 4297.3 1518.03 4314.66 1517.81C4338.04 1517.81 4349.39 1524.49 4357.85 1543.41C4361.41 1551.2 4361.86 1561.22 4362.53 1629.12C4363.19 1716.4 4363.19 1716.62 4348.5 1717.73C4330.47 1718.84 4329.58 1719.51 4329.58 1730.42V1740.44H4386.35H4443.12V1730.42C4443.12 1719.51 4442.23 1718.84 4424.19 1717.73C4409.72 1716.62 4409.72 1717.06 4409.72 1619.77V1533.39L4414.84 1530.28C4431.54 1519.59 4474.51 1514.25 4490.09 1520.7C4499.89 1524.71 4508.57 1535.62 4511.91 1547.87C4513.47 1553.43 4514.36 1585.49 4514.36 1635.14C4514.36 1710.38 4514.14 1713.72 4510.13 1715.95C4507.68 1717.06 4502.34 1718.18 4498.33 1718.18C4483.41 1718.18 4480.96 1719.96 4480.96 1730.64V1740.44H4539.96H4598.96V1730.64C4598.96 1719.73 4596.73 1718.18 4579.81 1718.18C4562.89 1718.18 4563.34 1720.63 4563.34 1628.9C4563.11 1546.53 4562 1532.06 4553.99 1513.36C4543.08 1487.98 4514.14 1474.4 4482.52 1480.19C4467.16 1482.86 4438.44 1494.66 4418.41 1506.46L4403.71 1514.92L4394.58 1503.34C4380.11 1484.64 4356.29 1475.73 4331.8 1479.96Z" fill="#273F4B"/>
<path d="M4773.05 1480.19C4759.7 1482.41 4734.32 1493.77 4719.18 1504.01L4709.16 1510.91L4708.49 1497.77L4707.82 1484.42H4698.7C4693.8 1484.42 4674.65 1489.09 4656.62 1494.88L4623.45 1505.12V1513.8V1522.26H4641.26H4659.07V1674.76C4659.07 1849.08 4661.74 1830.6 4636.81 1833.28L4623.45 1834.61V1844.18V1853.98H4686.9H4750.35V1844.18V1834.61L4733.2 1833.05C4707.38 1831.05 4708.05 1832.39 4708.05 1783.41V1742.22L4727.64 1744.22C4753.24 1746.67 4779.51 1745.56 4795.98 1741.55C4841.4 1730.2 4874.57 1695.47 4885.26 1647.83C4890.38 1624.67 4888.6 1575.92 4882.14 1557.88C4874.57 1536.29 4865.89 1521.82 4852.98 1508.24C4838.73 1493.1 4821.59 1483.75 4802.66 1480.19C4788.19 1477.51 4789.53 1477.51 4773.05 1480.19ZM4791.53 1521.82C4812.01 1532.5 4827.38 1555.88 4833.83 1586.16C4845.85 1642.71 4821.36 1703.26 4780.85 1717.51C4766.82 1722.41 4734.32 1722.41 4719.18 1717.73L4709.16 1714.61L4708.49 1622.89C4708.05 1535.62 4708.27 1531.17 4712.05 1529.16C4714.5 1527.83 4723.63 1524.27 4732.76 1521.15C4753.24 1514.03 4777.28 1514.25 4791.53 1521.82Z" fill="#273F4B"/>
<path d="M5068.48 1479.74C5057.35 1483.3 5051.79 1487.53 5029.3 1509.57L5006.37 1532.06V1508.24V1484.42H4997.24C4992.34 1484.42 4972.75 1489.09 4953.83 1494.88L4919.54 1505.34V1513.8V1522.26H4939.58H4959.62V1613.32C4959.62 1664.97 4958.73 1706.82 4957.61 1709.94C4955.17 1716.17 4952.72 1717.29 4934.68 1719.29L4921.77 1720.63V1730.64V1740.44H4987.45H5053.12V1730.64C5053.12 1721.52 5052.68 1720.85 5046.22 1719.51C5042.44 1718.84 5033.31 1718.18 5026.18 1718.18C5005.7 1718.18 5006.37 1721.52 5006.37 1632.69V1556.99L5018.17 1546.08C5043.55 1522.49 5070.26 1517.59 5084.07 1534.28C5086.07 1536.73 5090.75 1537.85 5097.87 1537.85H5108.78V1512.02V1486.42L5101.66 1483.53C5091.86 1479.52 5075.61 1477.74 5068.48 1479.74Z" fill="#273F4B"/>
<path d="M5240.58 1479.96C5212.3 1483.97 5194.71 1492.21 5173.12 1512.69C5145.29 1538.96 5131.27 1578.37 5133.94 1622.89C5137.72 1684.11 5173.34 1730.42 5226.77 1742.89C5243.92 1746.67 5276.2 1746.23 5293.34 1741.78C5335.42 1730.87 5369.48 1694.8 5380.61 1649.16C5385.06 1631.57 5384.39 1589.27 5379.5 1571.24C5362.13 1507.35 5306.92 1471.06 5240.58 1479.96ZM5278.87 1504.9C5290.45 1508.46 5308.7 1526.27 5315.6 1540.96C5324.95 1561 5329.18 1583.26 5329.18 1611.09C5329.18 1651.83 5320.05 1683.45 5302.47 1703.48C5290.45 1716.84 5279.76 1721.52 5259.05 1721.52C5243.69 1721.52 5239.91 1720.63 5230.78 1715.51C5204.29 1699.7 5188.93 1661.85 5188.93 1611.54C5188.93 1560.11 5206.29 1520.71 5234.57 1507.57C5247.26 1501.56 5264.17 1500.67 5278.87 1504.9Z" fill="#273F4B"/>
<path d="M5567.4 1481.08C5559.38 1482.86 5541.12 1490.2 5526.88 1497.33L5500.83 1510.24L5500.16 1498L5499.49 1485.53L5490.59 1484.86C5484.58 1484.19 5470.77 1487.53 5447.84 1494.66L5413.78 1505.34V1513.8V1522.26H5432.7H5451.63V1615.32C5451.63 1721.96 5452.3 1718.18 5434.26 1718.18C5416.01 1718.18 5413.78 1719.51 5413.78 1730.64V1740.44L5473.45 1739.99L5532.89 1739.33L5533.56 1730.2C5534.22 1719.96 5531.77 1718.18 5515.97 1718.18C5499.72 1718.18 5500.38 1723.3 5501.05 1621.33L5501.72 1530.28L5519.53 1524.04C5540.01 1516.92 5566.73 1515.58 5579.42 1520.93C5587.88 1524.49 5596.78 1535.18 5600.57 1546.53C5602.13 1551.65 5603.02 1580.15 5603.02 1633.8C5603.02 1710.38 5602.79 1713.72 5598.79 1715.95C5596.34 1717.06 5590.99 1718.18 5586.99 1718.18C5572.07 1718.18 5569.62 1719.96 5569.62 1730.64V1740.44H5627.5H5685.39V1730.64C5685.39 1719.51 5683.61 1718.18 5668.91 1718.18C5651.33 1718.18 5651.99 1721.96 5651.99 1620.89V1531.61L5662.68 1527.16C5678.26 1520.48 5690.95 1517.81 5709.88 1517.81C5731.92 1517.81 5742.16 1523.15 5749.95 1538.96L5755.52 1550.09L5756.18 1630.46C5756.85 1721.52 5757.52 1718.18 5739.93 1718.18C5725.02 1718.18 5723.24 1719.51 5723.24 1730.64V1740.44H5782.23H5841.23V1730.64C5841.23 1719.73 5839 1718.18 5822.75 1718.18C5804.5 1718.18 5805.61 1723.07 5805.61 1637.36C5805.39 1540.74 5803.6 1524.49 5789.8 1503.78C5781.12 1490.65 5767.76 1482.63 5750.17 1479.74C5729.25 1476.4 5710.1 1481.3 5673.81 1499.55C5656.89 1508.01 5643.09 1514.03 5643.09 1512.91C5643.09 1508.68 5621.49 1487.98 5613.03 1484.19C5600.12 1478.63 5583.87 1477.51 5567.4 1481.08Z" fill="#273F4B"/>
<path d="M5905.35 1488.2L5872.4 1498.66V1508.24V1517.81H5890.21H5908.02V1615.77C5908.02 1726.64 5909.58 1718.18 5889.32 1718.18C5874.18 1718.18 5872.4 1719.51 5872.4 1730.64V1740.44H5933.62H5994.84V1730.64C5994.84 1719.51 5992.62 1718.18 5974.58 1718.18C5955.88 1718.18 5957 1725.75 5957 1593.95V1477.74L5947.65 1477.96C5942.3 1477.96 5923.38 1482.63 5905.35 1488.2Z" fill="#273F4B"/>
<path d="M6110.61 1479.74C6078.77 1484.19 6054.95 1498.66 6043.82 1520.26C6037.36 1532.5 6034.47 1553.43 6037.14 1565.68C6042.71 1590.39 6052.73 1599.74 6100.59 1624.67C6135.99 1643.15 6150.68 1653.17 6155.58 1662.52C6160.48 1671.87 6160.92 1689.23 6156.47 1697.92C6151.8 1706.6 6139.33 1717.29 6129.31 1720.4C6116.4 1724.63 6093.91 1722.18 6078.33 1714.61L6064.97 1708.16L6061.85 1685.23L6058.74 1662.52H6045.82H6032.69V1697.92V1733.54L6044.49 1736.88C6068.53 1743.78 6079 1745.34 6103.93 1745.56C6156.25 1745.78 6190.53 1726.41 6201.89 1689.9C6215.47 1645.6 6201.66 1623.78 6140.66 1593.28C6093.91 1569.91 6085.68 1562.56 6084.34 1542.3C6083.45 1526.05 6088.57 1516.25 6101.7 1509.35C6118.4 1500.89 6152.24 1503.78 6164.26 1514.69C6166.71 1516.92 6168.49 1523.38 6169.38 1535.62L6170.94 1553.43H6184.3H6197.43V1521.37V1489.31L6178.07 1484.86C6154.91 1479.52 6127.53 1477.51 6110.61 1479.74Z" fill="#273F4B"/>
<path d="M6318.77 1480.19C6300.96 1482.63 6280.03 1491.54 6268.01 1502C6246.41 1521.15 6239.96 1561.89 6254.87 1584.38C6263.56 1597.29 6279.14 1608.2 6314.76 1626.68C6348.6 1644.04 6363.29 1654.95 6367.97 1666.3C6377.1 1687.9 6363.07 1714.17 6339.25 1720.63C6325.67 1724.19 6304.96 1721.96 6289.16 1714.84L6275.8 1708.83L6273.13 1689.68C6269.34 1660.52 6270.23 1662.3 6255.76 1662.96L6243.07 1663.63L6242.41 1697.47C6241.74 1736.88 6239.51 1733.31 6270.23 1740.66C6295.17 1746.67 6332.35 1747.34 6353.05 1741.77C6389.56 1732.2 6410.27 1711.05 6415.61 1677.44C6419.17 1654.28 6414.05 1636.69 6399.58 1623.34C6388.23 1612.87 6381.33 1608.42 6346.6 1591.05C6310.75 1572.8 6299.4 1563.67 6295.61 1549.42C6290.72 1531.84 6300.73 1512.02 6316.99 1506.46C6328.79 1502.67 6356.84 1504.9 6368.19 1510.69C6376.65 1515.14 6377.54 1516.47 6378.88 1526.05C6379.55 1532.06 6380.66 1540.52 6381.33 1544.97L6382.66 1553.43H6395.8H6408.93V1522.26C6408.93 1486.64 6410.49 1489.31 6385.56 1483.75C6364.41 1479.07 6337.47 1477.74 6318.77 1480.19Z" fill="#273F4B"/>
<path d="M6560.77 1480.19C6513.12 1486.42 6476.61 1517.59 6460.81 1565.45C6455.69 1581.04 6455.02 1587.27 6454.79 1611.31C6454.79 1643.6 6458.36 1659.62 6470.82 1683.67C6491.53 1722.85 6530.49 1745.56 6578.13 1745.56C6615.31 1745.56 6643.81 1734.65 6667.18 1711.05C6689.89 1688.12 6702.14 1658.96 6704.36 1622.45C6708.37 1555.21 6671.86 1496.88 6616.87 1483.52C6598.84 1479.07 6577.46 1477.74 6560.77 1480.19ZM6598.61 1504.9C6611.97 1508.9 6628.22 1524.71 6636.01 1541.41C6645.37 1561 6649.82 1583.49 6649.82 1612.43C6649.82 1651.83 6640.91 1681.89 6623.55 1702.15C6611.08 1716.84 6600.39 1721.52 6579.02 1721.52C6562.99 1721.52 6560.1 1720.85 6550.08 1714.84C6526.04 1699.92 6511.57 1666.53 6509.78 1621.11C6506.67 1550.31 6534.27 1502.23 6577.91 1502.23C6584.37 1502.23 6593.94 1503.34 6598.61 1504.9Z" fill="#273F4B"/>
<path d="M7150.06 1480.19C7102.42 1487.09 7067.25 1517.81 7052.33 1565.68C7045.65 1587.05 7043.87 1628.23 7048.77 1651.39C7058.34 1696.58 7088.4 1728.64 7133.59 1741.77C7152.96 1747.34 7184.57 1746.9 7207.06 1740.66C7226.43 1735.32 7265.83 1717.06 7267.39 1712.61C7268.06 1711.05 7268.28 1703.71 7267.84 1696.36L7267.17 1682.78L7249.36 1693.02C7223.31 1708.16 7206.17 1713.72 7184.57 1713.72C7174.78 1713.72 7161.42 1712.17 7155.19 1710.38C7140.27 1705.93 7122.9 1691.68 7113.33 1675.88C7104.43 1661.41 7096.86 1633.58 7096.86 1615.54V1602.41L7182.12 1601.96L7267.17 1601.3L7266.95 1581.04C7266.5 1548.31 7258.04 1525.6 7239.12 1505.34C7225.98 1491.54 7208.62 1483.3 7186.8 1479.96C7169.43 1477.51 7167.43 1477.51 7150.06 1480.19ZM7192.36 1511.8C7205.28 1520.26 7213.51 1538.51 7214.63 1560.55L7215.3 1577.92H7156.97H7098.42L7099.75 1568.12C7102.87 1545.42 7113.55 1526.27 7128.92 1515.81C7142.72 1506.46 7149.84 1504.45 7167.43 1505.34C7180.34 1505.79 7185.24 1507.12 7192.36 1511.8Z" fill="#273F4B"/>
<path d="M7520.97 1487.31C7480.89 1500.22 7483.79 1498.66 7484.68 1508.24L7485.34 1516.7L7503.82 1517.36L7522.08 1518.03V1614.43C7522.08 1723.74 7522.97 1718.18 7504.05 1718.18C7486.46 1718.18 7484.23 1719.73 7484.23 1730.64V1740.44H7546.57H7608.9V1730.64C7608.9 1719.51 7606.68 1718.18 7588.64 1718.18C7569.72 1718.18 7571.06 1727.53 7570.61 1595.73L7569.94 1478.85L7559.93 1478.4C7553.47 1478.18 7539.89 1481.3 7520.97 1487.31Z" fill="#273F4B"/>
<path d="M7751.83 1480.19C7714.21 1485.75 7681.04 1508.24 7662.11 1540.96C7651.87 1559.22 7646.08 1584.38 7646.08 1612.43C7646.08 1656.06 7656.99 1686.34 7682.37 1711.72C7705.97 1735.54 7730.9 1745.56 7766.97 1745.56C7791.46 1745.56 7807.04 1742 7834.87 1729.98L7854.91 1721.52L7855.58 1706.15C7856.02 1697.92 7855.35 1691.46 7854.46 1691.91C7853.57 1692.35 7845.11 1696.36 7835.99 1701.03C7795.47 1720.85 7755.17 1716.62 7728.23 1689.68C7708.86 1670.31 7699.29 1642.48 7699.51 1605.75C7699.74 1557.44 7716.21 1522.26 7745.6 1507.35C7759.85 1500 7782.78 1498.89 7792.13 1505.12C7798.14 1508.9 7798.14 1509.35 7798.14 1532.06V1555.21L7808.16 1559.22C7825.3 1565.68 7844 1560.11 7850.9 1546.53C7855.13 1538.51 7854.46 1520.04 7849.57 1511.13C7837.32 1487.98 7793.46 1474.17 7751.83 1480.19Z" fill="#273F4B"/>
<path d="M7991.6 1479.96C7937.06 1486.64 7905 1508.46 7905 1538.74C7905 1553.65 7909.23 1555.66 7938.84 1555.66H7962.88V1532.28V1509.13L7972.46 1506.46C7984.93 1502.89 8010.97 1502.89 8021.21 1506.46C8040.36 1512.91 8050.82 1534.51 8049.26 1564.56L8048.6 1578.37L8015.2 1586.83C7943.96 1605.08 7909.9 1622.22 7898.1 1646.27C7890.75 1661.18 7890.75 1689.9 7897.88 1705.93C7911.23 1735.32 7940.4 1750.23 7974.46 1744.67C7989.82 1742.22 8017.87 1729.75 8036.13 1717.29C8042.59 1712.83 8048.15 1709.27 8048.6 1709.27C8049.04 1709.27 8050.38 1714.61 8051.94 1720.85C8053.27 1727.3 8055.05 1734.43 8055.72 1736.43C8056.61 1739.99 8060.4 1740.44 8095.57 1740.44H8134.31V1730.64C8134.31 1719.73 8132.08 1718.18 8114.94 1718.18C8108.26 1718.18 8104.03 1716.84 8100.91 1713.72C8096.68 1709.49 8096.46 1706.38 8096.46 1624C8096.46 1533.39 8095.57 1524.27 8085.33 1507.57C8071.53 1485.31 8035.02 1474.62 7991.6 1479.96ZM8049.71 1644.26V1690.57L8032.57 1699.7C7989.82 1722.41 7963.11 1720.18 7949.08 1693.02C7943.29 1681.67 7942.63 1660.07 7947.97 1650.05C7956.87 1632.69 7982.7 1617.55 8024.11 1604.86C8036.35 1601.3 8047.04 1598.18 8048.15 1598.18C8049.04 1597.96 8049.71 1618.88 8049.71 1644.26Z" fill="#273F4B"/>
<path d="M8422.61 1479.96C8358.49 1488.87 8316.64 1542.74 8316.86 1616.43C8317.09 1693.69 8366.29 1745.56 8439.31 1745.56C8464.24 1745.56 8481.39 1741.55 8509.44 1729.08C8539.27 1715.95 8539.94 1715.28 8539.05 1697.69L8538.38 1683L8519.46 1693.91C8492.07 1709.72 8475.15 1714.39 8449.77 1713.28C8426.84 1712.16 8415.04 1707.71 8399.9 1694.8C8382.98 1680.55 8368.07 1642.04 8368.07 1613.76V1602.41H8454H8540.16L8538.82 1579.48C8536.38 1529.83 8512.33 1493.77 8474.93 1483.52C8458.46 1479.07 8438.86 1477.74 8422.61 1479.96ZM8463.13 1511.58C8476.71 1520.48 8484.5 1537.18 8485.62 1559.44L8486.73 1577.92H8428.4C8362.28 1577.92 8367.62 1580.15 8373.63 1556.77C8379.42 1534.06 8396.34 1514.47 8415.93 1507.12C8419.72 1505.57 8429.74 1504.9 8438.64 1505.34C8451.33 1505.79 8456.67 1507.12 8463.13 1511.58Z" fill="#273F4B"/>
<path d="M8837.82 1479.96C8803.53 1484.42 8771.92 1504.23 8753.44 1533.17C8730.73 1568.35 8725.17 1625.12 8739.86 1668.31C8746.09 1686.34 8762.12 1709.27 8776.59 1720.4C8819.34 1753.35 8879.45 1754.02 8939.11 1721.96L8952.47 1714.84L8953.14 1698.81L8953.81 1682.78L8936.44 1692.8C8906.39 1709.94 8897.93 1712.39 8870.1 1712.61C8848.28 1712.61 8844.27 1711.94 8833.36 1706.82C8804.2 1693.02 8787.06 1662.96 8783.05 1618.22L8781.49 1602.41H8867.65H8953.58V1583.93C8953.58 1526.05 8923.08 1486.42 8873.44 1479.96C8854.96 1477.74 8855.18 1477.74 8837.82 1479.96ZM8872.32 1508.68C8889.69 1516.7 8899.26 1533.62 8901.71 1561L8903.05 1577.92H8843.61H8784.39L8785.72 1568.35C8790.4 1538.07 8809.1 1514.03 8833.36 1506.46C8843.83 1503.34 8863.2 1504.45 8872.32 1508.68Z" fill="#273F4B"/>
<path d="M9368.79 1480.19C9299.99 1490.65 9257.25 1547.2 9261.7 1622.45C9264.15 1662.74 9276.17 1691.24 9300.44 1713.95C9324.71 1736.88 9348.53 1746.01 9384.37 1745.56C9408.41 1745.34 9426.89 1740.89 9452.94 1728.86L9472.31 1719.74V1705.49C9472.31 1697.47 9471.64 1691.46 9470.75 1691.91C9432.9 1711.28 9412.64 1716.17 9387.49 1711.94C9368.12 1708.6 9356.76 1702.82 9344.3 1690.35C9324.48 1670.53 9315.58 1644.49 9315.58 1605.75C9315.36 1564.34 9325.37 1537.18 9348.08 1516.7C9361.44 1504.68 9378.58 1498.67 9393.72 1500.89C9411.98 1503.34 9412.2 1503.79 9412.2 1530.28V1553.65L9421.77 1557.88C9446.48 1569.24 9470.08 1556.1 9470.08 1531.17C9469.86 1509.13 9455.61 1492.88 9429.12 1484.64C9412.2 1479.52 9386.15 1477.52 9368.79 1480.19Z" fill="#273F4B"/>
<path d="M9613.68 1479.96C9546.67 1489.09 9504.59 1547.2 9508.6 1624.67C9509.26 1638.47 9511.71 1653.84 9514.39 1662.52C9530.64 1714.84 9574.27 1745.56 9631.49 1745.56C9655.31 1745.56 9673.12 1741.33 9700.5 1729.08C9730.34 1715.95 9731 1715.28 9730.11 1697.69L9729.45 1683L9710.52 1693.91C9683.14 1709.72 9666.22 1714.39 9640.84 1713.28C9617.91 1712.16 9606.11 1707.71 9590.97 1694.8C9574.05 1680.33 9559.13 1641.81 9559.13 1612.43V1602.41H9644.85H9730.56V1586.16C9730.34 1534.28 9705.18 1494.21 9666 1483.52C9649.52 1479.07 9629.93 1477.74 9613.68 1479.96ZM9655.09 1512.02C9667.11 1520.04 9676.24 1539.4 9678.24 1561.67L9679.8 1577.92H9620.58C9553.12 1577.92 9558.69 1580.15 9564.7 1556.77C9570.49 1534.06 9587.41 1514.47 9607 1507.12C9610.78 1505.57 9620.8 1504.9 9629.71 1505.34C9642.84 1505.79 9647.52 1507.12 9655.09 1512.02Z" fill="#273F4B"/>
<path d="M10031.1 1479.96C9981.91 1486.2 9942.95 1522.04 9929.37 1573.47C9924.69 1591.5 9924.24 1636.25 9928.47 1653.61C9944.06 1716.4 9998.6 1753.13 10064.5 1744.67C10090.8 1741.55 10142.9 1721.07 10146 1712.83C10146.7 1711.28 10146.9 1703.93 10146.4 1696.58L10145.8 1683.22L10126.8 1694.13C10100.1 1709.49 10082.8 1714.39 10058.3 1713.28C10043.1 1712.61 10036.2 1711.28 10026.7 1706.82C9997.27 1692.8 9980.35 1663.41 9976.34 1618.88L9974.78 1602.41H10060.9H10146.9V1583.93C10146.9 1526.05 10116.2 1486.42 10065.8 1479.96C10048.5 1477.74 10048.5 1477.74 10031.1 1479.96ZM10066.1 1508.68C10076.5 1513.58 10087.7 1527.38 10091.2 1539.85C10092.6 1544.3 10094.1 1554.54 10095 1562.78L10096.3 1577.92H10036.9H9977.68L9979.01 1568.35C9983.69 1537.85 10002.2 1514.03 10026.7 1506.46C10037.1 1503.34 10056.5 1504.45 10066.1 1508.68Z" fill="#273F4B"/>
<path d="M10331.9 1481.08C10324.1 1482.86 10305.4 1490.2 10290.2 1497.55L10262.6 1510.91V1497.55V1484.42H10253.1C10245.1 1484.42 10184.9 1501.34 10178 1505.57C10176.9 1506.23 10175.8 1510.46 10175.8 1514.69V1522.26H10194.7H10213.7V1616.66C10213.7 1723.52 10214.6 1718.18 10196.3 1718.18C10177.8 1718.18 10175.6 1719.73 10176.3 1730.2L10176.9 1739.33L10236.6 1739.99L10296 1740.44V1730.64C10296 1719.51 10294.3 1718.18 10279.3 1718.18C10262 1718.18 10262.6 1722.63 10262.6 1621.33V1531.61L10271.1 1528.27C10308.7 1513.36 10346.8 1514.25 10361.3 1530.72C10370.8 1541.41 10371.5 1548.53 10371.7 1631.8C10371.7 1720.4 10372.2 1718.18 10356.6 1718.18C10340.6 1718.18 10338.3 1719.96 10338.3 1730.64V1740.44L10396.9 1739.99L10455.2 1739.33L10455.9 1730.2C10456.6 1719.73 10454.3 1718.18 10437.2 1718.18C10420.3 1718.18 10420.7 1720.85 10420.7 1626.68C10420.7 1534.73 10419.8 1526.05 10407.1 1506.46C10392.9 1483.97 10363.5 1474.17 10331.9 1481.08Z" fill="#273F4B"/>
<path d="M10593.2 1479.96C10564.5 1483.97 10540.3 1495.77 10520.9 1515.36C10496.8 1539.85 10485.3 1571.91 10485.3 1613.54C10485.3 1662.3 10502 1699.92 10534.5 1723.74C10573.7 1752.68 10629.1 1753.35 10684.1 1725.75L10694.5 1720.4V1705.93V1691.68L10676.3 1700.37C10644.5 1715.73 10616 1717.51 10589.9 1705.71C10557 1691.02 10538.7 1655.39 10538.7 1605.75C10538.7 1559 10554.7 1523.6 10582.6 1508.46C10597.5 1500.22 10614 1498.44 10626.6 1503.34L10636.7 1507.12V1530.28V1553.43L10645.6 1557.88C10669.2 1569.9 10693.4 1555.88 10693.2 1530.28C10692.8 1512.02 10683.4 1498.89 10664.5 1489.31C10647.1 1480.85 10616.4 1476.85 10593.2 1479.96Z" fill="#273F4B"/>
<path d="M10764.2 1488.42L10732.4 1498.66V1508.24V1517.81H10750.2H10768V1614.43C10768 1724.19 10769.1 1718.18 10750.2 1718.18C10734.2 1718.18 10732.4 1719.29 10732.4 1730.64V1740.44H10793.6H10854.8V1730.64C10854.8 1719.51 10852.6 1718.18 10834.6 1718.18C10815.9 1718.18 10817 1725.75 10817 1593.95V1477.74L10806.5 1477.96C10800.5 1478.18 10781.6 1482.86 10764.2 1488.42Z" fill="#273F4B"/>
<path d="M10996.2 1479.3C10964.4 1481.97 10931.4 1494.43 10917.4 1508.91C10905.1 1521.6 10900.3 1540.96 10906.9 1550.31C10909.8 1553.88 10913.4 1554.54 10935.9 1555.21L10961.7 1556.1V1532.73V1509.35L10973.5 1506.46C10991.5 1502 11014.5 1502.89 11025.6 1508.46C11042.3 1517.14 11048.5 1530.95 11048.5 1559.89V1579.03L11021.1 1585.49C10944.3 1603.52 10904.9 1624.45 10895.8 1651.83C10890.5 1668.31 10892.2 1695.69 10900 1710.61C10914.1 1737.99 10943.7 1750.9 10977.3 1744C10995.1 1740.22 11019.6 1729.09 11036.1 1717.29C11042.1 1713.06 11047.9 1709.94 11048.7 1710.38C11049.6 1711.05 11051.4 1717.95 11053 1725.97L11055.6 1740.44H11094.4H11133.1V1730.64C11133.1 1719.51 11131.3 1718.18 11115.5 1718.18C11097.1 1718.18 11097.9 1722.41 11097.1 1622.45C11096.2 1523.15 11095.5 1519.59 11079.7 1501.78C11069 1489.54 11054.3 1482.86 11032.5 1479.96C11016.2 1477.96 11012.9 1477.74 10996.2 1479.3ZM11048.5 1644.49V1691.02L11036.3 1697.92C10992.9 1722.41 10964.4 1721.07 10950.1 1693.91C10933.4 1661.85 10949.2 1633.35 10992.9 1615.99C11005.8 1610.87 11040.1 1599.74 11048.1 1598.18C11048.3 1597.96 11048.5 1618.88 11048.5 1644.49Z" fill="#273F4B"/>
<path d="M11469.3 1479.96C11455.7 1482.41 11438.3 1489.09 11415.2 1500.89L11396 1510.69L11395.4 1498.22L11394.7 1485.53L11385.8 1484.86C11379.8 1484.19 11366 1487.53 11343.1 1494.66L11309 1505.34V1513.8V1522.26H11327.9H11346.8V1615.32C11346.8 1721.96 11347.5 1718.18 11329.5 1718.18C11311.2 1718.18 11309 1719.51 11309 1730.64V1740.44L11368.7 1739.99L11428.1 1739.33L11428.8 1730.2C11429.4 1719.73 11427.2 1718.18 11410.3 1718.18C11405.2 1718.18 11400.1 1717.06 11398.5 1715.5C11396.5 1713.5 11395.8 1689.68 11395.8 1622.22V1531.61L11406.5 1527.16C11423.7 1519.81 11433.7 1517.81 11453.9 1517.81C11478.9 1517.81 11490 1523.15 11498.2 1538.96L11503.8 1549.87L11504.5 1629.57C11505.1 1707.04 11504.9 1709.27 11500.5 1713.72C11497.6 1716.62 11493.1 1718.18 11487.3 1718.18C11473.3 1718.18 11471.5 1719.73 11471.5 1730.64V1740.44H11529.4H11587.3V1730.64C11587.3 1719.73 11585.5 1718.18 11571.5 1718.18C11552.8 1718.18 11553.9 1723.52 11553.9 1635.14C11553.9 1532.95 11551.7 1518.92 11533 1498.22C11519.4 1483.3 11493.1 1475.73 11469.3 1479.96Z" fill="#273F4B"/>
<path d="M11716.2 1479.96C11661.6 1486.64 11629.6 1508.46 11629.6 1538.74C11629.6 1553.65 11633.8 1555.66 11663.4 1555.66H11687.5V1532.5V1509.57L11698.2 1506.46C11711.3 1502.9 11734.9 1502.67 11745.8 1506.46C11764.9 1512.91 11775.4 1534.51 11773.8 1564.34L11773.2 1578.37L11739.8 1586.83C11667.7 1605.3 11632.7 1623.34 11621.6 1648.49C11615.6 1661.63 11616.2 1691.68 11622.7 1705.93C11635.6 1735.1 11665.2 1750.01 11699 1744.67C11714.6 1742.22 11742.7 1729.75 11761.2 1717.29L11773.2 1709.27L11775.9 1718.62C11777.2 1723.97 11779 1730.87 11779.6 1734.21L11781 1740.44H11819.9H11858.9V1730.64C11858.9 1719.74 11856.7 1718.18 11839.7 1718.18C11834.8 1718.18 11828.8 1716.84 11826.4 1715.06C11822.4 1711.94 11822.2 1707.71 11821 1619.78L11819.9 1527.61L11813.3 1514.47C11805.2 1498.89 11792.3 1487.98 11775.9 1483.53C11760.7 1479.3 11734.4 1477.74 11716.2 1479.96ZM11774.3 1644.26V1690.57L11757.2 1699.7C11734.4 1711.72 11716.4 1716.84 11703.5 1715.06C11679.5 1711.72 11664.3 1686.79 11669.9 1659.85C11674.8 1636.92 11699.7 1619.55 11748.7 1604.86C11760.9 1601.3 11771.6 1598.18 11772.7 1598.18C11773.6 1597.96 11774.3 1618.88 11774.3 1644.26Z" fill="#273F4B"/>
<path d="M12361.6 1488.42L12328.6 1498.66V1508.24V1517.81H12346.2H12363.8L12364.7 1602.85C12365.6 1684.34 12365.8 1688.79 12370.5 1701.48C12377.4 1720.18 12385.4 1729.31 12402.8 1737.99C12416.4 1744.89 12419.7 1745.56 12436.2 1745.56C12460.4 1745.34 12485.4 1735.76 12513.9 1715.73C12517 1713.28 12520.3 1711.5 12521 1711.5C12521.7 1711.5 12522.3 1717.95 12522.3 1725.97V1740.44H12564.6H12606.9V1730.64C12606.9 1719.96 12604.5 1718.18 12589.1 1718.18C12584.7 1718.18 12578.9 1716.62 12576.2 1714.61L12571.3 1711.27V1594.39V1477.74H12562.2C12557.3 1477.74 12538.4 1482.41 12519.9 1488.2L12486.7 1498.66V1508.24V1517.81H12504.5H12522.3V1606.64V1695.47L12507 1701.26C12463.8 1717.95 12432.8 1712.16 12420.4 1685.23L12414.4 1672.54L12413.7 1575.03L12413 1477.74L12403.7 1477.96C12398.5 1477.96 12379.6 1482.63 12361.6 1488.42Z" fill="#273F4B"/>
<path d="M12713.8 1479.96C12665.9 1486.64 12637.4 1517.37 12641 1559.22C12643 1586.83 12655.7 1599.07 12709.3 1626.9C12749 1647.38 12761.7 1658.51 12763.9 1674.32C12767 1695.02 12753.6 1715.06 12733.4 1720.63C12719.6 1724.19 12698.9 1721.96 12683.1 1714.84L12669.7 1708.83L12667 1689.68C12663.3 1660.96 12664.4 1662.52 12649 1662.52H12635.9V1697.92V1733.32L12653.7 1737.99C12722.2 1756.69 12781 1742.22 12801.7 1701.48C12807.3 1690.79 12808.6 1685.23 12809.3 1669.64C12810.6 1633.8 12800.8 1622.22 12744.1 1593.06C12724.7 1583.26 12705.1 1571.46 12700.4 1567.01C12690.9 1557.88 12686.2 1544.3 12688.4 1532.06C12690.4 1521.6 12700.7 1509.8 12710.9 1506.46C12722.7 1502.67 12750.7 1504.9 12762.1 1510.69C12771 1515.36 12771.4 1516.03 12772.8 1528.27C12775.7 1554.77 12774.8 1553.43 12789.7 1553.43H12802.8V1522.26V1491.09L12796.8 1488.65C12776.1 1480.85 12737.8 1476.85 12713.8 1479.96Z" fill="#273F4B"/>
<path d="M12955.3 1480.19C12926.6 1484.42 12901.7 1497.11 12882.8 1516.92C12860.9 1539.85 12850 1566.79 12848 1603.3C12841.6 1718.84 12938.2 1779.62 13043.9 1726.64L13056.6 1720.4V1706.15V1691.91L13039.9 1700.37C12990.1 1725.52 12938.9 1713.5 12916.6 1671.65C12906.6 1652.72 12903 1640.03 12901.7 1615.77C12899 1574.58 12910.1 1539.63 12932.9 1518.26C12946.9 1504.9 12964.2 1498.66 12980.3 1500.89C12998.5 1503.34 12998.8 1503.79 12998.8 1530.28V1553.65L13008.3 1557.88C13026.4 1566.12 13045.3 1561.22 13052.6 1546.53C13063.3 1526.05 13052 1501.11 13027 1489.31C13008.1 1480.41 12978.5 1476.62 12955.3 1480.19Z" fill="#273F4B"/>
<path d="M13192.4 1480.19C13152.6 1484.86 13121.6 1500.22 13110.7 1520.93C13106.5 1529.16 13105.8 1547.86 13109.6 1551.65C13111.6 1553.65 13121 1554.77 13137.9 1555.21L13163.5 1556.1V1532.73V1509.35L13175.3 1506.46C13193.1 1502 13216.3 1502.89 13227 1508.24C13245 1517.59 13250.3 1528.94 13250.3 1558.33V1579.03L13227.4 1584.38C13176.2 1595.95 13132.6 1613.1 13115 1628.01C13101.8 1639.37 13096.3 1651.39 13094.9 1670.53C13093.2 1699.92 13104.5 1723.74 13127 1736.21C13156.4 1752.91 13188.7 1748.23 13231.4 1721.29C13242.3 1714.61 13251.2 1709.49 13251.4 1709.72C13251.9 1710.16 13253.4 1716.84 13255 1724.86L13258.1 1739.33H13297.1H13336L13336.7 1730.2C13337.4 1719.73 13335.1 1718.18 13316.9 1718.18C13298.6 1718.18 13299.3 1721.52 13299.3 1627.34C13299.3 1542.74 13298.2 1528.94 13290.4 1513.13C13284.8 1502.67 13273.9 1492.21 13262.6 1486.86C13254.1 1482.86 13221.8 1477.29 13212.5 1477.96C13210.7 1478.18 13201.6 1479.07 13192.4 1480.19ZM13249.4 1690.57C13247.7 1695.02 13211.1 1711.5 13197.3 1714.17C13179.3 1717.51 13168.8 1714.39 13158.4 1702.81C13142.1 1684.78 13141.5 1658.51 13156.6 1640.03C13165.1 1629.79 13191.3 1616.21 13219.2 1607.31C13230.7 1603.74 13242.3 1600.18 13244.8 1599.74C13249 1599.07 13249.2 1600.41 13249.9 1643.6C13250.1 1668.08 13249.9 1689.23 13249.4 1690.57Z" fill="#273F4B"/>
<path d="M13922.4 1480.19C13858.5 1489.54 13818 1541.85 13818 1615.1C13818.3 1681.44 13848.5 1725.08 13906 1741.77C13925.3 1747.34 13956.9 1746.9 13979.4 1740.66C13998.8 1735.32 14038.2 1717.06 14039.8 1712.61C14040.4 1711.05 14040.7 1703.71 14040.2 1696.36L14039.5 1682.78L14020.6 1693.69C13992.6 1709.94 13976.3 1714.39 13951.2 1713.28C13926.7 1712.17 13914.6 1707.49 13899.5 1693.69C13882.6 1678.1 13871.2 1649.16 13868.6 1614.21L13867.7 1602.41L13953.6 1601.96L14039.5 1601.3L14039.1 1580.15C14038.2 1524.49 14008.6 1487.09 13959.4 1479.96C13941.8 1477.51 13939.8 1477.51 13922.4 1480.19ZM13955.6 1507.35C13973.9 1514.03 13985.2 1533.39 13986.8 1560.55L13987.9 1577.92H13929.3H13870.8L13872.4 1566.12C13875.7 1540.52 13893.7 1515.81 13915.1 1508.01C13925.6 1504.01 13945.6 1503.78 13955.6 1507.35Z" fill="#273F4B"/>
<path d="M14310 1479.96C14286.4 1482.86 14270.6 1489.98 14256.6 1504.23C14241.9 1518.92 14236.6 1532.73 14236.6 1555.21C14236.6 1583.48 14248.8 1597.73 14293.3 1620.44C14327.2 1637.81 14348.8 1651.83 14353.5 1658.96C14368.4 1681.44 14355.9 1712.83 14329.4 1720.4C14314.3 1724.63 14293.8 1722.18 14278.4 1714.61C14264.6 1707.93 14265.5 1709.72 14260.8 1679.66L14258.2 1662.52H14245.3H14232.1V1697.92V1733.31L14249.9 1737.99C14339.2 1762.26 14405.8 1730.42 14405.8 1663.85C14405.8 1633.35 14392.2 1619.33 14334.3 1589.94C14298.7 1571.91 14286.9 1562.11 14284.2 1548.09C14281.1 1530.72 14289.8 1513.8 14304.9 1507.57C14316.3 1502.67 14340.3 1503.78 14354.6 1509.57L14366.8 1514.47L14369 1533.39L14371.3 1552.32L14385.3 1552.98L14399.1 1553.65V1522.26V1491.09L14393.1 1488.65C14372.8 1481.08 14334.5 1477.07 14310 1479.96Z" fill="#273F4B"/>
<path d="M14548 1480.19C14484.1 1489.54 14443.6 1541.85 14443.6 1615.1C14443.6 1654.73 14453.4 1684.11 14474.3 1707.27C14515.7 1753.35 14589.4 1758.25 14656 1719.29L14666.2 1713.28V1697.69V1682.33L14654.7 1688.79C14615.3 1711.28 14604.6 1714.61 14576.3 1713.28C14552.3 1712.17 14540 1707.49 14525.1 1693.69C14508.2 1678.1 14496.8 1649.16 14494.2 1614.21L14493.3 1602.41L14579.2 1601.96L14665.1 1601.3L14664.7 1580.15C14663.8 1524.49 14634.2 1487.09 14585 1479.96C14567.4 1477.51 14565.4 1477.51 14548 1480.19ZM14581.2 1507.35C14599.5 1514.03 14610.8 1533.39 14612.4 1560.56L14613.5 1577.92H14554.9H14496.4L14497.9 1566.12C14501.3 1540.52 14519.3 1515.81 14540.7 1508.01C14551.1 1504.01 14571.2 1503.78 14581.2 1507.35Z" fill="#273F4B"/>
<path d="M14728.1 1488.42L14695.2 1498.89V1508.24V1517.81H14714.1H14733V1600.63C14733 1689.9 14733.9 1697.92 14744.8 1716.62C14754 1731.98 14769.1 1741.33 14791.4 1744.89C14816.3 1748.68 14839.2 1742 14872.4 1721.29C14881.3 1715.95 14888.9 1711.5 14889.8 1711.5C14890.4 1711.5 14891.1 1717.95 14891.1 1725.97V1740.44H14932.3H14973.5V1730.64C14973.5 1719.74 14971.2 1718.18 14955.2 1718.18C14949.7 1718.18 14945.2 1716.62 14942.3 1713.73C14938.1 1709.5 14937.9 1706.38 14937.9 1593.51V1477.74H14929.6C14924.9 1477.74 14905.8 1482.41 14887.3 1488.2L14853.3 1498.89V1508.24V1517.81H14872.2H14891.1V1605.97V1693.91L14878.4 1699.7C14844.1 1714.84 14811.6 1713.95 14795.8 1697.47C14783.1 1684.34 14783.1 1685.23 14782 1577.92L14780.9 1478.85L14770.9 1478.41C14764.2 1478.18 14750 1481.52 14728.1 1488.42Z" fill="#273F4B"/>
<path d="M15088.1 1479.07C15035.4 1485.75 15008.4 1511.13 15008.2 1553.43C15008.2 1585.04 15022 1599.96 15078.1 1628.01C15108.8 1643.37 15122.2 1652.72 15127.1 1662.74C15132.2 1672.76 15132.9 1686.34 15128.4 1696.58C15124.6 1705.71 15111.9 1716.84 15101.3 1720.4C15088.1 1724.86 15065 1722.18 15049.8 1714.61L15036.9 1708.16L15033.6 1685.89L15030.2 1663.63L15017.6 1662.96L15004.6 1662.3V1697.92V1733.31L15012 1735.76C15044 1746.23 15090.1 1748.9 15114.8 1741.77C15153.1 1730.64 15173.6 1707.49 15177.6 1671.2C15181.2 1637.14 15164.7 1618.88 15104.8 1589.5C15065 1570.13 15055.8 1560.55 15055.8 1538.51C15055.8 1516.25 15070.8 1504.45 15098.6 1504.67C15118.2 1504.67 15133.5 1510.02 15137.6 1517.81C15139.1 1520.93 15140.9 1530.05 15141.6 1538.29L15143.1 1553.43H15156.3H15169.4V1521.37V1489.31L15150 1484.86C15130.2 1480.19 15100.4 1477.51 15088.1 1479.07Z" fill="#273F4B"/>
<path d="M15704.8 1487.31C15664.7 1500.22 15667.6 1498.66 15668.5 1508.24L15669.2 1516.7L15687.7 1517.36L15705.9 1518.03V1614.43C15705.9 1723.74 15706.8 1718.18 15687.9 1718.18C15670.3 1718.18 15668.1 1719.73 15668.1 1730.64V1740.44H15730.4H15792.7V1730.64C15792.7 1719.51 15790.5 1718.18 15772.5 1718.18C15753.6 1718.18 15754.9 1727.53 15754.5 1595.73L15753.8 1478.85L15743.8 1478.4C15737.1 1478.18 15724 1481.3 15704.8 1487.31Z" fill="#273F4B"/>
<path d="M15971.1 1480.41C15959.5 1483.53 15947 1493.1 15928.1 1513.13L15910.7 1531.17V1507.79V1484.42H15900.5C15894.7 1484.42 15876.5 1488.65 15858 1494.43C15840.4 1500 15825.5 1504.45 15824.8 1504.45C15824.4 1504.45 15823.9 1508.46 15823.9 1513.36V1522.26H15842.8H15861.8V1616.43C15861.8 1705.04 15861.5 1711.05 15857.8 1714.39C15855.5 1716.62 15850.6 1718.18 15847.1 1718.18C15843.5 1718.18 15836.8 1718.84 15832.4 1719.51C15824.1 1720.85 15823.9 1721.29 15823.9 1730.64V1740.44H15889.6H15955.3V1730.64C15955.3 1719.29 15953.5 1718.18 15930.8 1718.18C15922.3 1718.18 15915 1717.06 15913.4 1715.5C15911.4 1713.5 15910.7 1692.57 15910.7 1634.47V1556.32L15923 1544.75C15945.5 1523.38 15968 1518.92 15985.1 1531.84C15990.9 1536.29 15995.3 1537.85 16003.1 1537.85H16013.4L16012.7 1511.8L16012 1485.97L16004.2 1483.3C15992 1479.07 15979.3 1477.96 15971.1 1480.41Z" fill="#273F4B"/>
<path d="M16141.2 1480.19C16101.8 1486.2 16070.1 1508.9 16052.3 1544.3C16041 1566.34 16037.2 1585.27 16037 1615.77C16037 1657.4 16046.3 1683.67 16069.3 1708.38C16089.5 1729.75 16110.7 1740.44 16142.9 1744.89C16171.2 1748.9 16198.2 1743.33 16236.5 1725.3L16258 1715.28V1698.81V1682.56L16247.6 1689.01C16241.6 1692.57 16228.9 1699.48 16219.1 1704.15C16201.7 1712.39 16200.8 1712.61 16175.7 1712.61C16145.6 1712.61 16135.8 1709.27 16118.2 1692.8C16101.1 1676.77 16090.9 1651.83 16087.5 1617.99L16086 1602.41H16172.1H16258V1583.26C16258 1532.95 16233.6 1494.21 16194.6 1483.3C16179.2 1479.07 16157 1477.74 16141.2 1480.19ZM16176.8 1508.68C16194.4 1516.7 16204.2 1534.51 16206.2 1561.45L16207.5 1577.92H16148.3H16089.1L16090.2 1570.57C16096 1537.4 16111.1 1516.25 16134.9 1507.57C16147.2 1503.34 16166.3 1503.78 16176.8 1508.68Z" fill="#273F4B"/>
<path d="M16328.6 1488.42L16295.7 1498.66L16296.3 1507.79L16297 1516.7L16315.5 1517.36L16333.7 1518.03V1613.1C16333.7 1722.18 16334.4 1718.18 16316.4 1718.18C16298.1 1718.18 16295.9 1719.51 16295.9 1730.64V1740.44L16357.8 1739.99L16419.4 1739.33L16420.1 1730.2C16420.8 1719.73 16418.6 1718.18 16400.1 1718.18C16392.3 1718.18 16388.1 1716.84 16384.9 1713.72C16380.7 1709.49 16380.5 1706.38 16380.5 1593.5V1477.74L16371.1 1477.96C16365.8 1477.96 16346.7 1482.86 16328.6 1488.42Z" fill="#273F4B"/>
<path d="M16743.8 1479.96C16715.3 1483.97 16694.2 1494.21 16674.4 1514.03C16622.3 1566.12 16624.9 1669.2 16679.5 1717.06C16701.7 1736.43 16728.7 1745.78 16762.3 1745.56C16799.7 1745.34 16824.6 1735.54 16849.3 1710.61C16875.8 1684.11 16887 1655.17 16887 1612.43C16887 1583.26 16883.9 1569.68 16872.1 1544.97C16849.6 1497.33 16800.1 1472.39 16743.8 1479.96ZM16786.8 1507.57C16815.5 1520.93 16832.4 1559.66 16832.4 1612.43C16832.4 1663.41 16816.2 1702.15 16789.2 1716.62C16782.1 1720.4 16776.3 1721.52 16762.3 1721.52C16746.9 1721.52 16743.2 1720.63 16734 1715.5C16707.3 1699.7 16692.2 1662.3 16692.2 1611.76C16692.4 1544.53 16719.6 1502.23 16762.3 1502.23C16771.6 1502.23 16779 1503.78 16786.8 1507.57Z" fill="#273F4B"/>
<path d="M17001.6 1479.96C16953.8 1486.64 16925.3 1517.36 16928.8 1559.22C16930.8 1586.83 16943.5 1599.07 16997.2 1626.9C17036.8 1647.38 17049.5 1658.51 17051.7 1674.32C17054.8 1695.02 17041.5 1715.06 17021.2 1720.63C17007.4 1724.19 16986.7 1721.96 16970.9 1714.84L16957.5 1708.83L16954.9 1689.68C16951.1 1660.96 16952.2 1662.52 16936.8 1662.52H16923.7V1697.03C16923.7 1736.88 16921.3 1733.31 16952 1740.66C16976.9 1746.67 17014.1 1747.34 17034.8 1741.77C17075.3 1731.31 17097.6 1704.37 17097.8 1665.86C17098 1633.58 17086.7 1621.11 17031.9 1593.06C17012.5 1583.26 16992.9 1571.46 16988.3 1567.01C16978.7 1557.88 16974 1544.3 16976.2 1532.06C16978.2 1521.59 16988.5 1509.8 16998.7 1506.46C17010.5 1502.67 17038.6 1504.9 17049.9 1510.69C17058.4 1515.14 17059.3 1516.47 17060.6 1526.05C17061.3 1532.06 17062.4 1540.52 17063.1 1544.97L17064.4 1553.43H17077.5H17090.7V1522.26V1491.09L17084.7 1488.65C17064 1480.85 17025.7 1476.85 17001.6 1479.96Z" fill="#273F4B"/>
<path d="M8980.74 1494.88L8981.41 1505.57L8996.77 1507.79L9012.13 1510.02L9048.2 1563.45L9084.27 1616.88L9046.64 1665.86L9008.8 1714.84L8996.33 1716.84C8977.63 1719.51 8978.07 1719.29 8978.07 1730.42V1740.44H9028.16H9078.26V1730.64C9078.26 1719.51 9076.47 1718.18 9061.56 1718.18C9047.98 1718.18 9044.64 1713.5 9051.54 1704.15C9064.9 1686.12 9100.96 1640.03 9101.63 1640.7C9108.76 1649.16 9147.27 1708.83 9147.27 1711.72C9147.27 1715.73 9143.71 1717.29 9131.69 1718.62C9126.79 1719.29 9126.12 1720.4 9125.45 1729.75L9124.78 1740.44H9180.66H9236.54L9235.88 1729.75L9235.21 1719.29L9221.85 1717.51L9208.49 1715.5L9169.76 1658.73C9139.7 1614.65 9131.69 1601.07 9133.02 1598.18C9134.14 1595.95 9150.16 1575.03 9168.42 1551.87L9201.81 1509.35L9215.17 1507.57L9228.53 1505.57L9229.2 1494.88L9229.87 1484.42H9182.89H9135.92L9136.58 1494.88L9137.25 1505.57L9148.16 1506.68C9167.08 1508.68 9166.64 1511.13 9140.37 1545.19C9127.68 1561.89 9116.55 1575.47 9115.66 1575.47C9112.32 1575.92 9071.58 1515.81 9072.91 1512.47C9074.25 1508.9 9078.26 1507.35 9089.39 1506.23C9094.28 1505.57 9094.95 1504.45 9095.62 1494.88L9096.29 1484.42H9038.18H8980.08L8980.74 1494.88Z" fill="#273F4B"/>
<path d="M6774.04 1680.11C6758.46 1688.34 6751.56 1713.72 6760.69 1728.64C6764.92 1735.99 6765.36 1735.99 6782.06 1735.99H6799.2L6797.87 1751.35C6795.19 1783.18 6779.61 1800.33 6743.54 1810.79C6741.76 1811.23 6740.65 1815.24 6740.65 1820.81V1829.94L6750.22 1828.38C6764.25 1826.15 6790.3 1813.24 6801.65 1802.78C6823.47 1782.52 6833.26 1758.25 6831.26 1728.42C6830.15 1709.49 6826.58 1698.81 6818.35 1688.34C6808.77 1676.1 6788.52 1672.31 6774.04 1680.11Z" fill="#273F4B"/>
<path d="M17168.6 1680.11C17147.7 1691.24 17143.4 1718.62 17160.4 1735.32C17173 1748.23 17192.9 1749.34 17207.3 1737.99C17239.4 1712.83 17204.7 1660.74 17168.6 1680.11Z" fill="#273F4B"/>
</svg>
