<svg width="5099" height="2333" viewBox="0 0 5099 2333" fill="none" xmlns="http://www.w3.org/2000/svg">
<path d="M2497.74 1.2364C2464.54 2.56974 2438.81 4.56974 2401.74 8.43641C2335.74 15.5031 2336.68 15.3697 2290.54 24.7031C2199.48 43.1031 2146.94 57.5031 2068.54 85.5031C1941.21 130.97 1812.14 197.77 1694.14 279.37C1682.68 287.37 1672.94 293.903 1672.54 293.903C1672.01 293.903 1671.74 293.103 1671.74 292.17C1671.74 288.703 1661.34 269.103 1655.88 262.303C1636.68 238.436 1603.21 226.836 1572.41 233.236C1528.54 242.303 1498.94 286.703 1506.94 331.236C1511.88 358.97 1532.01 383.77 1558.14 394.57C1562.28 396.303 1565.61 398.303 1565.48 399.103C1565.21 400.036 1423.74 742.17 1390.28 822.836L1386.28 832.436L1365.34 832.836C1346.94 833.236 1344.01 833.503 1340.81 835.903C1329.88 844.17 1330.14 861.77 1341.48 868.57C1345.61 871.236 1350.14 871.236 1590.28 871.236C1833.08 871.236 1834.81 871.236 1839.08 868.57C1850.94 861.236 1850.41 842.703 1838.14 835.236C1834.28 832.836 1831.34 832.57 1813.61 832.57H1793.61L1704.01 616.836C1654.81 498.303 1614.28 400.436 1614.14 399.503C1613.88 398.57 1616.94 396.57 1621.34 394.703C1638.41 387.77 1650.28 378.17 1660.28 363.503C1669.48 350.036 1673.34 337.77 1674.28 319.37L1675.08 304.303L1717.74 286.97C1774.01 264.303 1811.88 249.636 1844.41 238.17C1859.08 232.97 1876.94 226.57 1884.01 224.036C1891.21 221.37 1912.28 214.703 1930.68 209.103C1949.21 203.636 1973.74 196.17 1985.21 192.57C2021.21 181.37 2120.81 157.37 2179.08 146.036C2232.68 135.503 2316.68 123.236 2361.74 119.236C2451.08 111.503 2456.81 111.236 2533.74 110.836C2610.14 110.57 2665.61 112.17 2699.74 115.903C2709.61 116.97 2730.41 118.97 2745.74 120.57C2858.01 131.77 2992.01 157.503 3102.41 189.103C3197.74 216.436 3297.21 251.37 3395.88 292.17L3423.48 303.503L3424.01 319.636C3424.54 333.77 3425.21 337.236 3428.68 346.17C3436.94 366.97 3450.94 382.036 3471.34 392.036L3483.61 398.17L3481.61 402.97C3480.54 405.636 3440.14 503.236 3391.88 619.903L3304.14 831.903L3283.61 832.57C3266.68 833.103 3262.28 833.636 3259.34 835.636C3247.74 843.236 3247.61 861.503 3259.08 868.57C3263.34 871.236 3265.08 871.236 3507.88 871.236C3748.01 871.236 3752.54 871.236 3756.68 868.57C3768.01 861.77 3768.28 844.17 3757.34 835.903C3754.14 833.503 3751.21 833.236 3732.68 832.836L3711.61 832.436L3709.61 828.17C3708.54 825.77 3667.88 728.17 3619.21 611.236C3535.34 409.103 3531.08 398.57 3533.61 397.37C3551.34 389.636 3556.94 386.036 3567.21 375.903C3585.08 358.17 3592.28 340.57 3592.14 315.236C3592.14 303.77 3591.48 299.236 3588.54 290.303C3575.08 248.836 3532.01 223.903 3490.01 233.37C3460.54 240.036 3437.08 260.97 3427.21 289.503L3425.74 293.77L3401.34 276.836C3336.41 231.503 3274.68 194.97 3201.08 158.036C3111.08 113.103 3028.81 81.2364 2926.41 51.9031C2903.74 45.3697 2822.14 26.7031 2792.81 21.3697C2763.21 15.9031 2683.74 6.03641 2657.08 4.56974C2643.48 3.76974 2624.01 2.70307 2613.74 1.90307C2579.48 -0.363595 2543.48 -0.630262 2497.74 1.2364ZM1582.41 616.57V832.57H1491.74H1401.08L1403.61 826.17C1404.94 822.703 1444.68 726.836 1491.74 613.236C1538.81 499.503 1577.88 405.236 1578.54 403.503C1579.21 401.903 1580.28 400.57 1581.08 400.57C1582.01 400.57 1582.41 470.036 1582.41 616.57ZM1689.34 616.036C1738.14 734.036 1778.28 830.97 1778.28 831.636C1778.41 832.17 1737.48 832.436 1687.48 832.303L1596.41 831.903L1596.01 617.903C1595.88 500.17 1596.01 403.103 1596.41 402.17C1596.81 401.103 1597.88 400.57 1598.68 400.836C1599.61 401.236 1640.41 498.036 1689.34 616.036ZM3500.41 616.703V831.903L3409.88 832.303L3319.48 832.57L3320.14 829.77C3322.41 820.97 3497.74 400.57 3498.94 400.97C3500.01 401.37 3500.41 462.436 3500.41 616.703ZM3606.41 614.703C3655.21 732.57 3695.21 829.77 3695.48 830.703C3695.88 832.303 3681.61 832.57 3605.21 832.57H3514.41V616.57C3514.41 444.703 3514.81 400.57 3516.14 400.57C3517.08 400.57 3555.61 492.036 3606.41 614.703Z" fill="#E6E8E9"/>
<path d="M2520.41 227.236C2354.81 234.303 2199.61 301.503 2080.81 417.636C2023.34 473.903 1981.08 532.036 1946.41 602.57C1908.81 678.97 1887.61 755.236 1879.61 843.236C1877.48 866.303 1877.48 930.836 1879.61 953.236C1890.54 1068.84 1925.61 1171.1 1986.14 1263.9C2086.81 1418.44 2247.21 1525.64 2427.08 1558.57C2679.48 1604.84 2934.28 1504.57 3087.88 1298.57C3163.08 1197.64 3206.81 1081.64 3218.54 952.57C3220.68 929.236 3220.68 866.303 3218.54 843.236C3210.54 755.37 3189.34 678.97 3151.74 602.57C3117.08 532.036 3074.81 473.903 3017.34 417.636C2884.54 287.77 2706.28 219.503 2520.41 227.236ZM2581.74 289.903C2721.34 297.903 2848.94 350.57 2953.74 443.37C2993.61 478.57 3029.61 520.57 3060.01 567.236C3076.14 592.036 3082.81 603.77 3096.54 631.77C3166.01 772.836 3177.21 938.836 3127.61 1088.97C3059.34 1295.5 2882.94 1452.3 2670.94 1494.97C2625.61 1504.17 2600.54 1506.57 2549.08 1506.57C2497.61 1506.57 2472.54 1504.17 2427.21 1494.97C2311.34 1471.64 2203.61 1413.5 2118.54 1328.44C1912.14 1122.04 1881.08 801.103 2043.88 558.303C2094.81 482.17 2168.01 414.303 2248.41 368.436C2348.68 311.236 2467.08 283.37 2581.74 289.903Z" fill="#E6E8E9"/>
<path d="M2186.41 430.836C2170.54 443.236 2152.28 459.103 2134.68 476.036L2119.74 490.57V898.036V1305.64L2136.81 1322.17C2153.34 1338.17 2181.08 1362.04 2193.61 1370.97L2199.74 1375.37V1129.64C2199.74 898.17 2199.88 883.77 2202.14 880.57C2204.68 876.836 2274.54 808.57 2275.88 808.57C2276.81 808.57 2285.61 833.503 2325.74 949.903C2343.61 1001.64 2366.41 1067.24 2376.41 1095.9C2386.41 1124.44 2403.34 1172.84 2413.88 1203.24C2454.28 1319.24 2461.74 1340.57 2463.48 1342.84C2465.08 1344.97 2468.01 1345.24 2497.21 1345.24C2532.28 1345.24 2532.54 1345.24 2530.94 1337.24C2530.41 1334.97 2527.74 1327.1 2524.94 1319.5C2522.01 1312.04 2519.74 1303.64 2519.74 1300.84C2519.74 1295.24 2588.28 1087.77 2591.21 1084.7C2592.14 1083.64 2593.21 1082.97 2593.48 1083.37C2594.28 1084.17 2617.21 1149.24 2643.08 1223.9C2682.94 1338.84 2684.41 1342.84 2687.74 1344.57C2689.21 1345.37 2702.68 1345.9 2719.61 1345.9C2744.41 1345.9 2749.21 1345.64 2750.94 1343.77C2752.14 1342.7 2753.08 1341.24 2753.08 1340.7C2753.08 1340.17 2750.41 1331.77 2747.08 1321.9C2743.74 1312.04 2741.08 1302.44 2741.08 1300.44C2741.08 1298.44 2753.34 1260.57 2768.14 1216.3C2783.08 1172.04 2825.21 1046.84 2861.74 937.903C2908.28 799.236 2930.14 735.77 2934.68 726.17C2943.34 708.17 2952.41 698.303 2965.88 691.77C2975.74 687.103 2980.28 682.57 2976.81 681.236C2975.88 680.836 2959.48 680.703 2940.54 680.836C2908.54 681.236 2905.88 681.37 2904.54 683.77C2903.34 685.636 2903.61 686.436 2905.61 687.77C2910.68 690.836 2917.21 697.103 2919.21 700.703C2921.88 705.903 2921.61 719.236 2918.41 731.903C2916.14 741.236 2857.74 915.636 2765.48 1188.97C2749.34 1236.44 2735.61 1275.9 2734.68 1276.84C2733.88 1277.64 2732.81 1278.04 2732.41 1277.77C2731.74 1277.1 2671.08 1105.1 2647.74 1037.9C2640.28 1016.3 2620.41 959.503 2603.74 911.903C2539.61 728.97 2541.48 734.97 2540.14 716.436C2539.21 702.303 2541.34 696.57 2550.01 691.37C2555.74 687.903 2557.08 685.103 2554.14 682.17C2552.94 680.97 2536.41 680.57 2488.01 680.57H2423.61L2424.01 683.503C2424.28 685.77 2427.08 687.77 2434.81 691.503C2448.68 698.303 2457.21 707.103 2465.21 722.57C2474.54 740.57 2478.28 750.836 2540.54 929.903C2552.01 962.57 2566.54 1004.57 2573.21 1023.24C2579.74 1042.04 2585.08 1059.37 2585.08 1061.9C2585.08 1066.7 2515.48 1274.7 2513.08 1277.1C2512.14 1278.04 2511.21 1277.9 2510.41 1277.1C2509.61 1276.3 2491.21 1224.44 2469.61 1161.77C2448.01 1099.1 2419.08 1016.04 2405.48 977.236C2345.21 804.97 2329.08 758.703 2329.08 757.37C2329.08 755.103 2570.81 521.903 2584.41 511.103C2612.94 488.17 2633.34 477.37 2671.88 464.436L2697.21 455.903L2696.81 451.903L2696.41 447.903L2665.08 447.636C2647.88 447.37 2609.74 447.77 2580.41 448.303L2527.08 449.236V452.436C2527.08 455.37 2528.01 455.903 2537.08 457.903C2557.34 462.303 2567.74 471.77 2570.01 487.903C2571.74 501.37 2582.41 490.17 2386.81 679.636C2241.88 819.77 2206.68 853.236 2203.88 853.236H2200.41L2200.01 637.503C2199.88 518.97 2199.34 421.903 2198.68 421.903C2198.14 422.036 2192.68 426.036 2186.41 430.836Z" fill="#E6E8E9"/>
<path d="M1373.08 888.97C1366.81 891.103 1362.54 898.836 1364.54 904.17C1366.94 910.703 1411.74 981.103 1415.88 984.836L1419.74 988.57H1590.41H1760.94L1764.14 985.503C1766.01 983.903 1778.41 965.236 1791.88 944.036C1817.74 903.236 1818.81 900.836 1814.01 893.503C1812.68 891.503 1809.61 889.503 1806.81 888.703C1799.08 886.57 1379.34 886.836 1373.08 888.97Z" fill="#E6E8E9"/>
<path d="M3291.08 888.703C3285.74 890.303 3282.41 894.836 3282.41 900.97C3282.41 905.236 3286.14 912.036 3307.21 945.236C3320.81 966.836 3333.21 985.503 3334.81 986.57C3337.34 988.303 3358.41 988.57 3508.01 988.57H3678.28L3681.61 985.503C3683.48 983.903 3695.88 965.503 3709.21 944.57C3730.54 911.37 3733.61 905.903 3733.61 901.103C3733.74 894.436 3730.68 890.436 3723.88 888.57C3717.74 886.836 3296.81 886.97 3291.08 888.703Z" fill="#E6E8E9"/>
<path d="M2918.41 1918.57V2104.57H2928.41H2938.41V1918.57V1732.57H2928.41H2918.41V1918.57Z" fill="#E6E8E9"/>
<path d="M1828.41 1758.7C1820.41 1761.24 1810.54 1764.3 1806.81 1765.37L1799.74 1767.37V1773.37V1779.24H1813.08H1826.41V1886.57C1826.41 1992.17 1826.41 1993.9 1823.74 1996.57C1821.88 1998.44 1819.34 1999.24 1815.48 1999.24C1812.28 1999.24 1807.48 1999.64 1804.81 2000.04C1799.74 2000.97 1799.74 2000.97 1799.74 2007.37V2013.9H1842.28H1884.81L1885.34 2007.37L1885.74 2000.84L1881.08 2000.04C1878.54 1999.64 1874.01 1999.24 1871.08 1999.24C1868.14 1999.24 1864.28 1998.3 1862.68 1997.1L1859.74 1995.1V1874.44V1753.9L1851.48 1754.04C1846.01 1754.17 1838.01 1755.77 1828.41 1758.7Z" fill="#E6E8E9"/>
<path d="M1979.08 1758.7C1971.08 1761.24 1961.21 1764.3 1957.48 1765.37L1950.41 1767.37V1773.37V1779.24H1963.74H1977.08V1886.57C1977.08 1992.17 1977.08 1993.9 1974.41 1996.57C1972.54 1998.44 1970.01 1999.24 1966.14 1999.24C1962.94 1999.24 1958.14 1999.64 1955.48 2000.04C1950.41 2000.97 1950.41 2000.97 1950.41 2007.37V2013.9H1993.74H2037.08V2007.37C2037.08 2000.97 2037.08 2000.97 2032.14 2000.04C2029.34 1999.64 2024.68 1999.24 2021.74 1999.24C2018.81 1999.24 2014.94 1998.3 2013.34 1997.1L2010.41 1995.1V1874.44V1753.9L2002.14 1754.04C1996.68 1754.17 1988.68 1755.77 1979.08 1758.7Z" fill="#E6E8E9"/>
<path d="M3599.34 1760.84L3576.94 1767.64L3577.34 1773.1L3577.74 1778.57L3591.48 1778.97L3605.08 1779.37V1811.24C3605.08 1828.84 3604.54 1843.24 3604.01 1843.24C3603.34 1843.24 3596.68 1842.3 3588.94 1841.1C3538.41 1833.37 3501.08 1856.04 3486.14 1903.24C3483.48 1911.9 3483.08 1916.04 3483.08 1933.24C3483.08 1950.17 3483.61 1954.84 3486.14 1963.9C3496.28 1998.7 3518.94 2017.9 3550.14 2017.9C3564.68 2017.9 3580.14 2011.9 3597.48 1999.77C3600.94 1997.24 3604.01 1995.24 3604.41 1995.24C3604.81 1995.24 3605.08 1999.37 3605.08 2004.57V2013.9H3632.41H3659.74V2007.37C3659.74 2001.24 3659.61 2000.84 3655.61 2000.04C3653.34 1999.64 3649.21 1999.24 3646.41 1999.24C3636.41 1999.24 3637.08 2008.57 3637.08 1874.17V1753.9L3629.48 1754.04C3624.14 1754.04 3614.54 1756.3 3599.34 1760.84ZM3595.08 1858.97L3604.41 1861.24L3604.81 1921.64L3605.08 1982.04L3593.48 1987.64C3582.01 1993.1 3581.48 1993.24 3567.74 1993.24C3555.21 1993.24 3553.08 1992.84 3547.08 1989.64C3533.74 1982.7 3523.88 1968.84 3519.08 1950.57C3516.41 1940.3 3516.41 1914.7 3519.08 1903.5C3524.28 1881.37 3538.81 1864.3 3557.48 1858.57C3565.21 1856.04 3583.88 1856.3 3595.08 1858.97Z" fill="#E6E8E9"/>
<path d="M4783.08 1757.5C4777.21 1759.24 4767.48 1762.3 4761.48 1764.04L4750.41 1767.37V1773.37V1779.24H4763.75H4777.08V1811.24C4777.08 1828.84 4776.55 1843.24 4776.01 1843.24C4775.35 1843.24 4768.68 1842.3 4760.95 1841.1C4738.68 1837.77 4718.95 1840.3 4701.08 1848.97C4690.55 1854.04 4672.95 1871.1 4667.35 1881.5C4651.08 1911.77 4650.41 1951.1 4665.48 1981.9C4673.88 1998.97 4690.95 2012.97 4707.48 2016.44C4727.88 2020.7 4745.48 2016.04 4768.41 2000.7L4776.41 1995.24L4776.81 2004.57L4777.21 2013.9H4804.41H4831.75V2007.37C4831.75 2000.04 4830.68 1999.24 4820.15 1999.24C4816.15 1999.24 4813.61 1998.44 4811.75 1996.57C4809.08 1993.9 4809.08 1992.17 4809.08 1873.9V1753.9L4801.48 1754.04C4797.21 1754.04 4788.95 1755.64 4783.08 1757.5ZM4769.75 1859.5L4776.41 1861.24L4776.81 1921.64L4777.08 1982.04L4765.48 1987.64C4754.15 1993.1 4753.35 1993.24 4740.41 1993.24C4728.55 1993.24 4726.28 1992.84 4719.61 1989.5C4707.35 1983.5 4697.61 1970.97 4692.15 1954.04C4689.08 1944.44 4688.41 1917.9 4690.95 1905.9C4696.15 1881.5 4712.01 1862.97 4732.28 1857.77C4738.01 1856.3 4761.75 1857.37 4769.75 1859.5Z" fill="#E6E8E9"/>
<path d="M758.678 1767.1C752.545 1771.1 749.078 1777.37 749.078 1784.97C749.078 1792.44 751.478 1797.64 757.078 1802.3C768.411 1811.9 786.545 1805.77 790.411 1791.1C792.545 1783.37 790.811 1776.84 785.078 1770.7C780.411 1765.77 779.478 1765.37 771.611 1764.97C764.811 1764.57 762.278 1764.97 758.678 1767.1Z" fill="#E6E8E9"/>
<path d="M1682.68 1766.84C1676.41 1769.9 1672.68 1775.77 1672.01 1783.9C1670.28 1805.24 1696.94 1815.5 1709.88 1798.44C1717.08 1789.1 1714.81 1774.3 1705.34 1767.9C1699.48 1763.9 1689.48 1763.5 1682.68 1766.84Z" fill="#E6E8E9"/>
<path d="M2136.01 1767.1C2129.88 1771.1 2126.41 1777.37 2126.41 1784.97C2126.41 1792.44 2128.81 1797.64 2134.41 1802.3C2145.61 1811.77 2163.74 1805.9 2167.74 1791.37C2169.88 1783.37 2168.14 1776.97 2162.41 1770.7C2157.74 1765.77 2156.81 1765.37 2148.94 1764.97C2142.14 1764.57 2139.61 1764.97 2136.01 1767.1Z" fill="#E6E8E9"/>
<path d="M3279.21 1802.17C3272.94 1819.24 3254.41 1869.5 3238.01 1913.9L3208.41 1994.44L3198.41 1996.57L3188.41 1998.7L3188.01 2006.3L3187.61 2013.9H3223.08H3258.41V2006.7C3258.41 1998.44 3257.74 1997.9 3247.34 1997.9C3239.34 1997.9 3234.01 1995.64 3233.34 1992.04C3233.08 1990.7 3238.01 1975.24 3244.41 1957.77L3256.14 1925.9H3297.08H3338.01L3350.28 1958.84C3357.48 1978.04 3362.28 1992.84 3361.74 1994.17C3360.68 1996.84 3357.08 1997.9 3348.81 1997.9C3339.08 1997.9 3338.41 1998.57 3338.41 2006.7V2013.9H3380.41H3422.54L3422.14 2006.3L3421.74 1998.57L3412.68 1997.1C3407.61 1996.3 3402.68 1994.7 3401.61 1993.64C3400.14 1992.17 3317.08 1774.04 3317.08 1771.64C3317.08 1771.37 3311.21 1771.24 3303.88 1771.24H3290.68L3279.21 1802.17ZM3314.14 1862.57C3322.94 1886.04 3330.54 1906.3 3331.08 1907.5C3332.01 1909.77 3329.88 1909.9 3297.08 1909.9C3269.61 1909.9 3262.28 1909.5 3262.81 1908.17C3263.08 1907.37 3270.81 1886.57 3279.74 1862.17C3288.81 1837.77 3296.68 1818.3 3297.21 1818.84C3297.74 1819.37 3305.34 1839.1 3314.14 1862.57Z" fill="#E6E8E9"/>
<path d="M3.74463 1784.44V1792.17L14.5446 1792.84C23.2113 1793.37 25.878 1794.04 27.2113 1795.9C28.8113 1797.9 29.078 1816.17 29.078 1896.04V1993.77L26.1446 1995.77C24.278 1997.1 20.278 1997.9 15.6113 1997.9C4.27796 1997.9 3.74463 1998.3 3.74463 2006.7V2013.9H48.4113H93.078V2006.57C93.078 2002.57 92.9446 1999.24 92.8113 1999.1C92.5446 1999.1 87.078 1998.57 80.5446 1998.04C71.3446 1997.24 68.278 1996.44 66.8113 1994.57C65.478 1992.57 65.078 1983.24 65.078 1950.3V1908.57H77.478H89.7446L122.811 1956.04C152.278 1998.44 155.745 2003.9 155.745 2008.57V2013.9H186.411H217.078V2006.7C217.078 1998.3 216.411 1997.9 202.145 1997.9C196.278 1997.9 192.678 1997.24 191.345 1996.04C187.611 1992.17 112.945 1881.77 113.345 1880.57C113.611 1879.9 129.745 1860.17 149.345 1836.84L184.811 1794.3L196.278 1793.24L207.745 1792.3V1784.44V1776.57H171.078H134.411V1784.44V1792.17L143.211 1792.97C153.611 1793.77 157.211 1796.17 154.278 1800.3C153.211 1801.64 135.611 1823.37 115.211 1848.3L77.878 1893.9H71.478H65.078V1846.04C65.078 1804.97 65.3446 1797.77 67.078 1796.04C69.078 1794.04 75.2113 1792.84 86.4113 1792.17L92.4113 1791.9V1784.57V1777.24L48.1446 1776.84L3.74463 1776.57V1784.44Z" fill="#E6E8E9"/>
<path d="M1266.41 1784.3V1792.17L1276.68 1794.04L1287.08 1795.9L1315.74 1907.24L1344.41 2018.57L1357.21 2018.97L1369.88 2019.37L1398.41 1922.57C1414.14 1869.37 1427.34 1825.9 1427.88 1825.9C1428.28 1825.9 1430.01 1830.3 1431.61 1835.5C1433.21 1840.84 1446.28 1884.44 1460.68 1932.17L1486.81 2019.24H1499.61H1512.54L1538.94 1909.5C1553.48 1849.24 1565.88 1798.97 1566.54 1797.77C1567.21 1796.44 1571.08 1794.97 1577.74 1793.9L1587.74 1792.17V1784.3V1776.57L1552.14 1776.84L1516.41 1777.24V1784.57V1791.9L1526.41 1792.84C1539.61 1794.17 1542.01 1794.84 1542.94 1797.5C1543.48 1798.7 1534.94 1837.24 1524.14 1882.97C1508.28 1949.77 1504.14 1965.64 1503.21 1962.84C1502.54 1960.97 1489.61 1918.44 1474.54 1868.3L1447.08 1777.24L1433.74 1776.84L1420.28 1776.44L1393.21 1866.84C1378.28 1916.57 1365.61 1957.77 1365.08 1958.3C1364.54 1958.84 1359.88 1943.24 1354.68 1923.64C1323.34 1804.97 1321.88 1799.1 1323.21 1796.84C1324.28 1795.24 1327.88 1794.17 1335.88 1793.24L1347.08 1791.9V1784.57V1777.24L1306.81 1776.84L1266.41 1776.57V1784.3Z" fill="#E6E8E9"/>
<path d="M341.345 1841.24C322.945 1844.57 305.345 1855.37 294.145 1870.04C281.611 1886.57 275.745 1906.17 275.745 1931.24C275.745 1959.24 282.678 1978.17 298.811 1994.57C327.211 2023.24 372.145 2025.5 416.411 2000.44L423.745 1996.3V1985.77V1975.24L418.678 1978.44C408.945 1984.57 391.745 1992.57 384.145 1994.57C374.278 1997.1 361.078 1997.1 351.078 1994.57C335.611 1990.57 322.011 1977.64 315.611 1960.7C312.411 1952.17 309.211 1935.9 309.078 1927.5V1921.9H366.411H423.745V1911.9C423.745 1881.37 411.078 1856.97 390.011 1846.57C375.211 1839.5 360.411 1837.77 341.345 1841.24ZM365.611 1858.04C368.411 1858.84 373.345 1861.9 376.545 1864.84C383.745 1871.5 387.745 1881.5 388.678 1895.5L389.478 1905.9H349.878H310.411L310.945 1902.84C311.345 1901.24 312.011 1897.64 312.411 1894.7C316.678 1868.57 341.478 1851.37 365.611 1858.04Z" fill="#E6E8E9"/>
<path d="M764.411 1841.24C761.478 1842.3 752.011 1845.24 743.478 1847.9L727.744 1852.84V1858.7V1864.57H739.744H751.744V1929.24C751.744 1992.17 751.611 1994.04 749.078 1996.57C747.211 1998.44 744.678 1999.24 740.544 1999.24C737.344 1999.24 732.811 1999.64 730.544 2000.04C726.544 2000.84 726.411 2001.24 726.411 2007.37V2013.9H767.744H809.078V2007.37C809.078 2001.24 808.944 2000.84 804.944 2000.04C802.678 1999.64 798.144 1999.24 794.944 1999.24C790.811 1999.24 788.278 1998.44 786.411 1996.57C783.744 1993.9 783.744 1992.17 783.744 1916.57V1839.24L776.811 1839.37C772.944 1839.37 767.344 1840.3 764.411 1841.24Z" fill="#E6E8E9"/>
<path d="M980.411 1840.57C972.411 1842.3 959.211 1847.5 945.478 1854.44C938.678 1857.77 932.811 1860.57 932.411 1860.57C932.011 1860.57 931.745 1856.7 931.745 1851.9V1843.24H925.478C921.611 1843.37 910.278 1846.17 897.078 1850.3L875.078 1857.24L874.678 1862.97L874.278 1868.57H886.944H899.745V1931.24C899.745 1992.17 899.611 1994.04 897.078 1996.57C895.211 1998.44 892.678 1999.24 888.544 1999.24C885.344 1999.24 880.811 1999.64 878.544 2000.04C874.544 2000.84 874.411 2001.24 874.411 2007.37V2013.9H914.411H954.411V2007.37C954.411 2000.04 953.345 1999.24 942.811 1999.24C938.811 1999.24 936.278 1998.44 934.411 1996.57C931.745 1993.9 931.745 1992.44 932.011 1934.44L932.411 1874.84L941.611 1871.24C960.545 1863.64 982.278 1863.24 993.078 1870.44C996.145 1872.44 999.345 1876.3 1001.21 1880.17C1004.41 1886.57 1004.41 1886.84 1004.81 1940.57C1005.21 1994.44 1005.21 1994.57 1002.28 1996.84C1000.68 1998.17 997.478 1999.24 995.078 1999.24C992.678 1999.24 988.811 1999.64 986.545 2000.04C982.545 2000.84 982.411 2001.24 982.411 2007.37V2013.9H1021.74H1061.08V2007.37C1061.08 2001.24 1060.94 2000.84 1056.94 2000.04C1054.68 1999.64 1050.54 1999.24 1047.74 1999.24C1044.41 1999.24 1042.01 1998.3 1040.28 1996.44C1037.88 1993.77 1037.74 1990.3 1037.08 1934.04C1036.41 1875.24 1036.41 1874.44 1033.21 1866.57C1029.08 1856.17 1018.81 1845.9 1009.74 1842.84C1001.74 1840.04 987.611 1838.97 980.411 1840.57Z" fill="#E6E8E9"/>
<path d="M1685.08 1841.9C1681.08 1843.24 1671.61 1846.3 1664.14 1848.7L1650.41 1852.97V1858.7V1864.57H1662.41H1674.41V1929.64C1674.41 2003.24 1674.94 1999.24 1664.14 1999.24C1661.21 1999.24 1656.81 1999.64 1654.54 2000.04C1650.54 2000.84 1650.41 2001.24 1650.41 2007.37V2013.9L1691.48 2013.64L1732.41 2013.24L1732.81 2007.1L1733.21 2000.97L1728.14 2000.04C1725.34 1999.64 1720.68 1999.24 1717.74 1999.24C1706.01 1999.1 1706.41 2002.44 1706.41 1915.37V1839.24L1699.48 1839.37C1695.61 1839.37 1689.08 1840.57 1685.08 1841.9Z" fill="#E6E8E9"/>
<path d="M2141.74 1841.24C2138.81 1842.3 2129.34 1845.24 2120.81 1847.9L2105.08 1852.84V1858.7V1864.57H2117.08H2129.08V1929.24C2129.08 1992.17 2128.94 1994.04 2126.41 1996.57C2124.54 1998.44 2122.01 1999.24 2117.88 1999.24C2114.68 1999.24 2110.14 1999.64 2107.88 2000.04C2103.88 2000.84 2103.74 2001.24 2103.74 2007.37V2013.9H2145.08H2186.41V2007.37C2186.41 2001.24 2186.28 2000.84 2182.28 2000.04C2180.01 1999.64 2175.48 1999.24 2172.28 1999.24C2168.14 1999.24 2165.61 1998.44 2163.74 1996.57C2161.08 1993.9 2161.08 1992.17 2161.08 1916.57V1839.24L2154.14 1839.37C2150.28 1839.37 2144.68 1840.3 2141.74 1841.24Z" fill="#E6E8E9"/>
<path d="M2321.48 1840.7C2295.21 1844.04 2275.21 1854.17 2268.28 1867.37C2267.21 1869.64 2265.88 1874.17 2265.48 1877.64C2264.94 1882.7 2265.34 1884.57 2267.48 1887.24C2270.01 1890.44 2270.94 1890.57 2286.94 1890.97L2303.74 1891.5V1876.04V1860.57L2307.48 1859.1C2313.21 1856.84 2328.68 1855.64 2336.81 1856.7C2346.41 1858.04 2353.88 1863.24 2358.14 1871.64C2361.08 1877.1 2361.48 1879.9 2361.61 1892.04L2361.74 1906.04L2339.08 1911.9C2300.28 1921.77 2282.41 1929.1 2269.61 1940.97C2260.28 1949.37 2257.74 1956.17 2257.74 1971.9C2257.74 1981.9 2258.41 1985.1 2261.21 1991.24C2266.14 2001.77 2272.01 2007.9 2282.14 2012.84C2290.41 2016.84 2292.01 2017.24 2303.74 2017.1C2314.68 2017.1 2317.74 2016.57 2326.81 2012.97C2332.68 2010.57 2342.54 2005.37 2349.08 2001.37C2355.48 1997.24 2361.08 1993.9 2361.48 1993.9C2361.88 1993.9 2363.21 1998.44 2364.41 2003.9L2366.68 2013.9H2392.54H2418.41V2007.37C2418.41 2001.24 2418.28 2000.84 2414.28 2000.04C2412.01 1999.64 2407.88 1999.24 2405.21 1999.24C2402.54 1999.24 2398.94 1998.3 2397.34 1997.1L2394.41 1995.1V1941.5C2394.41 1885.9 2393.61 1875.5 2388.81 1864.3C2385.61 1856.84 2376.54 1848.04 2368.54 1844.44C2358.01 1839.77 2339.48 1838.3 2321.48 1840.7ZM2362.14 1950.17L2361.74 1981.24L2347.74 1988.3C2320.01 2002.3 2303.61 2000.17 2294.94 1981.24C2286.54 1963.24 2294.01 1946.57 2315.48 1935.5C2325.61 1930.17 2354.14 1920.17 2361.48 1919.37C2362.01 1919.24 2362.28 1933.24 2362.14 1950.17Z" fill="#E6E8E9"/>
<path d="M2582.81 1840.57C2575.21 1842.17 2561.21 1847.77 2547.61 1854.7C2541.34 1857.9 2535.88 1860.57 2535.34 1860.57C2534.81 1860.57 2534.41 1856.7 2534.41 1851.9V1843.24H2528.81C2525.61 1843.24 2513.08 1846.3 2500.81 1850.17L2478.41 1856.97V1862.84V1868.57H2490.41H2502.41V1931.64C2502.41 2003.77 2503.21 1999.24 2490.94 1999.24C2479.48 1999.24 2478.41 1999.9 2478.41 2007.37V2013.9H2517.74H2557.08V2007.37C2557.08 2000.04 2555.88 1999.24 2545.61 1999.24C2542.68 1999.24 2539.08 1998.44 2537.61 1997.37C2535.21 1995.5 2535.08 1993.1 2534.68 1935.5L2534.28 1875.64L2542.68 1872.17C2555.48 1866.84 2562.01 1865.5 2574.41 1865.37C2583.88 1865.37 2586.94 1865.9 2592.41 1868.57C2599.48 1872.17 2604.14 1877.9 2606.41 1885.77C2607.21 1888.57 2607.74 1911.9 2607.74 1942.84V1995.1L2604.81 1997.1C2603.21 1998.3 2599.74 1999.24 2597.08 1999.24C2587.61 1999.24 2586.41 2000.17 2586.41 2007.37V2013.9H2625.08H2663.74V2007.37C2663.74 2001.24 2663.61 2000.84 2659.61 2000.04C2657.34 1999.64 2653.21 1999.24 2650.41 1999.24C2641.08 1999.24 2641.34 2001.24 2640.68 1937.24C2640.14 1875.37 2639.74 1872.44 2632.54 1860.04C2628.01 1852.3 2619.61 1845.24 2612.01 1842.57C2604.28 1840.04 2590.14 1838.97 2582.81 1840.57Z" fill="#E6E8E9"/>
<path d="M4029.61 1840.57C3985.88 1846.97 3957.48 1885.37 3960.14 1934.57C3960.68 1942.57 3961.88 1952.57 3962.94 1956.57C3965.88 1966.97 3974.68 1984.17 3981.08 1991.5C3988.41 2000.04 4004.68 2010.57 4015.48 2013.9C4028.01 2017.9 4049.34 2018.84 4062.41 2016.04C4090.28 2010.17 4112.28 1990.04 4121.88 1961.9C4130.54 1936.17 4128.01 1904.04 4115.34 1879.9C4109.21 1868.17 4094.54 1854.17 4082.28 1848.04C4067.08 1840.57 4048.14 1837.9 4029.61 1840.57ZM4060.41 1858.57C4072.01 1864.17 4081.34 1877.37 4086.68 1895.9C4089.34 1905.1 4089.74 1909.5 4089.74 1928.57C4089.74 1953.1 4088.14 1961.37 4080.81 1976.57C4072.01 1994.57 4058.81 2002.84 4040.41 2001.64C4024.81 2000.57 4014.81 1993.24 4006.41 1976.44C3993.61 1951.1 3993.48 1906.97 4006.01 1880.84C4010.81 1870.97 4021.34 1860.3 4029.08 1857.5C4037.21 1854.57 4053.21 1855.1 4060.41 1858.57Z" fill="#E6E8E9"/>
<path d="M4257.48 1841.1C4230.55 1846.3 4212.15 1862.44 4206.95 1885.5C4202.68 1905.1 4207.08 1922.84 4219.75 1935.37C4226.81 1942.44 4241.21 1951.24 4245.75 1951.24C4248.95 1951.24 4248.15 1953.5 4241.88 1961.1C4234.01 1970.84 4231.21 1978.44 4232.15 1988.17C4232.55 1992.44 4233.21 1997.24 4233.75 1998.84C4234.55 2001.24 4234.01 2001.9 4230.95 2002.7C4210.28 2007.77 4198.01 2023.5 4197.88 2044.57C4197.88 2052.57 4198.68 2056.17 4201.35 2062.17C4208.15 2076.97 4221.88 2087.64 4239.88 2091.9C4250.68 2094.44 4276.15 2094.44 4288.01 2091.9C4312.68 2086.7 4336.95 2071.1 4347.35 2053.77C4356.41 2038.7 4357.61 2023.5 4350.81 2010.97C4342.15 1994.97 4317.61 1984.97 4276.15 1980.44C4259.88 1978.7 4259.88 1978.7 4259.08 1974.97C4258.15 1970.97 4259.35 1961.24 4261.21 1957.77C4262.01 1956.17 4265.21 1955.37 4274.28 1954.84C4296.15 1953.24 4313.21 1945.77 4325.75 1932.44C4335.61 1921.9 4337.75 1915.9 4337.75 1898.57C4337.75 1884.84 4337.48 1883.37 4333.61 1875.5L4329.61 1867.24H4347.35H4365.21L4364.81 1858.84L4364.41 1850.57L4339.08 1849.77C4314.81 1848.97 4313.21 1848.84 4301.88 1844.7C4287.75 1839.5 4272.41 1838.3 4257.48 1841.1ZM4284.41 1856.44C4290.81 1859.37 4297.61 1866.84 4301.48 1875.1C4303.88 1880.17 4304.28 1883.9 4304.41 1897.24C4304.41 1911.24 4304.01 1914.04 4301.35 1919.9C4291.35 1941.77 4266.68 1947.5 4250.95 1931.77C4233.75 1914.7 4235.21 1873.77 4253.35 1860.17C4262.15 1853.64 4274.95 1852.04 4284.41 1856.44ZM4273.08 2006.7C4297.88 2010.04 4310.55 2014.04 4318.15 2021.1C4328.81 2030.7 4327.08 2048.44 4314.15 2062.57C4306.15 2071.37 4296.95 2076.04 4284.28 2077.9C4259.88 2081.24 4239.35 2070.44 4231.75 2050.44C4225.48 2033.64 4231.35 2017.37 4246.81 2008.57C4254.95 2003.9 4253.61 2004.04 4273.08 2006.7Z" fill="#E6E8E9"/>
<path d="M4492.41 1840.7C4464.68 1844.44 4442.95 1856.57 4438.68 1870.7C4436.95 1876.84 4436.55 1884.44 4438.15 1886.84C4440.15 1889.9 4446.81 1891.24 4461.08 1891.24H4475.61L4476.01 1875.64L4476.41 1860.04L4482.41 1858.3C4485.75 1857.24 4493.48 1856.44 4499.61 1856.44C4514.41 1856.44 4523.35 1860.44 4528.81 1869.64C4532.15 1875.5 4532.41 1876.97 4532.41 1891.1V1906.3L4512.41 1911.24C4465.35 1922.97 4442.41 1934.3 4433.75 1950.04C4430.01 1956.7 4429.75 1958.17 4429.75 1971.24C4429.75 1987.5 4431.88 1993.77 4441.08 2003.77C4451.75 2015.37 4469.88 2020.44 4486.55 2016.57C4495.35 2014.57 4515.21 2005.37 4524.95 1998.7C4528.81 1996.04 4532.55 1993.9 4533.08 1993.9C4533.61 1993.9 4534.55 1996.17 4534.95 1998.84C4535.48 2001.64 4536.55 2006.17 4537.21 2008.84L4538.55 2013.9H4564.41H4590.41V2007.37C4590.41 2001.24 4590.28 2000.84 4586.28 2000.04C4584.01 1999.64 4579.61 1999.24 4576.41 1999.24C4572.41 1999.24 4570.15 1998.44 4568.28 1996.44C4565.88 1993.77 4565.75 1990.17 4565.08 1933.37C4564.28 1864.3 4564.41 1865.24 4552.28 1852.97C4546.81 1847.37 4543.75 1845.64 4536.28 1843.24C4525.48 1839.9 4506.28 1838.84 4492.41 1840.7ZM4533.08 1950.44V1981.64L4519.48 1988.44C4502.81 1996.44 4492.95 1998.84 4483.88 1996.57C4476.55 1994.84 4469.08 1988.17 4465.75 1980.3C4463.48 1974.57 4463.08 1963.5 4465.08 1956.3C4468.41 1944.44 4487.48 1932.44 4516.55 1924.04C4525.35 1921.5 4532.55 1919.37 4532.81 1919.24C4532.95 1919.24 4533.08 1933.24 4533.08 1950.44Z" fill="#E6E8E9"/>
<path d="M4968.95 1840.57C4938.01 1845.5 4914.41 1866.17 4904.15 1897.24C4900.95 1906.84 4900.55 1909.9 4900.55 1928.57C4900.41 1947.9 4900.68 1950.04 4904.28 1961.1C4916.68 1998.84 4947.21 2019.5 4987.88 2017.5C5020.01 2015.9 5043.48 2000.44 5057.35 1971.9C5060.15 1966.04 5063.35 1956.97 5064.41 1951.9C5066.68 1940.84 5066.95 1918.97 5064.95 1907.77C5061.75 1889.9 5050.68 1869.64 5038.01 1858.57C5030.41 1851.9 5016.01 1844.44 5006.15 1842.04C4997.21 1839.9 4977.75 1839.1 4968.95 1840.57ZM5000.41 1858.97C5012.01 1864.84 5022.15 1880.04 5027.35 1899.24C5030.68 1911.64 5030.68 1945.5 5027.21 1958.57C5022.28 1977.77 5012.01 1992.84 5000.41 1998.57C4992.15 2002.57 4976.55 2002.97 4968.01 1999.24C4954.95 1993.64 4945.21 1979.64 4939.61 1958.57C4935.75 1944.04 4935.48 1916.57 4938.95 1901.24C4944.55 1876.97 4955.75 1861.64 4971.75 1856.44C4977.75 1854.44 4994.55 1855.9 5000.41 1858.97Z" fill="#E6E8E9"/>
<path d="M485.611 1845.1C485.211 1846.17 485.078 1849.24 485.345 1852.04L485.745 1857.24L495.478 1858.57L505.345 1859.9L533.611 1936.57L561.745 2013.24L573.211 2013.64L584.545 2014.04L614.945 1937.64C631.745 1895.64 645.878 1860.84 646.411 1860.17C646.811 1859.64 651.211 1858.84 656.145 1858.3L665.078 1857.5V1850.44V1843.24H634.411H603.745V1850.57V1857.9H612.278C620.545 1857.9 625.078 1859.77 625.078 1863.24C625.078 1864.84 582.278 1974.3 581.211 1975.5C580.278 1976.57 541.078 1867.24 541.078 1863.5C541.078 1859.64 543.211 1858.7 553.745 1857.9L563.078 1857.24V1850.57V1843.9L524.678 1843.5C492.678 1843.24 486.278 1843.5 485.611 1845.1Z" fill="#E6E8E9"/>
<path d="M3718.41 1850.44V1857.5L3728.01 1858.44C3733.21 1858.84 3737.74 1859.5 3737.88 1859.64C3738.01 1859.77 3750.81 1894.57 3766.41 1936.97L3794.81 2014.04L3806.28 2013.64L3817.61 2013.24L3848.41 1936.3L3879.08 1859.37L3888.41 1858.3L3897.74 1857.24V1850.57V1843.9L3867.48 1843.5L3837.08 1843.24V1850.57V1857.9H3844.54C3853.34 1857.9 3857.08 1859.64 3857.08 1863.5C3857.08 1868.04 3814.01 1976.84 3812.94 1974.97C3812.41 1974.04 3803.48 1949.24 3793.08 1919.9C3782.54 1890.57 3773.74 1865.9 3773.48 1864.97C3773.08 1864.17 3774.14 1862.17 3775.61 1860.7C3777.88 1858.44 3780.14 1857.9 3787.08 1857.9H3795.74V1850.57V1843.24H3757.08H3718.41V1850.44Z" fill="#E6E8E9"/>
<path d="M2339.08 2143.9C2338.41 2144.17 2332.54 2146.04 2326.14 2147.9C2315.61 2151.1 2314.41 2151.77 2314.41 2154.7C2314.41 2157.77 2314.81 2157.9 2321.74 2157.9H2329.08L2328.81 2218.84L2328.41 2279.9L2321.48 2281.1C2315.34 2282.17 2314.41 2282.84 2314.41 2285.5V2288.57H2338.41H2362.41V2285.5C2362.41 2282.84 2361.48 2282.17 2355.48 2281.1L2348.41 2279.9L2348.01 2211.5L2347.74 2143.24L2344.01 2143.37C2342.01 2143.37 2339.88 2143.64 2339.08 2143.9Z" fill="#E6E8E9"/>
<path d="M3185.74 2143.9C3185.08 2144.17 3179.21 2146.04 3172.81 2147.9C3162.28 2151.1 3161.08 2151.77 3161.08 2154.7C3161.08 2157.77 3161.48 2157.9 3168.41 2157.9H3175.74V2223.24V2288.57H3196.81C3218.81 2288.57 3226.54 2287.24 3236.68 2282.04C3252.94 2273.77 3262.68 2253.5 3260.68 2232.04C3259.08 2214.57 3251.34 2201.9 3238.68 2195.64C3228.41 2190.57 3214.94 2190.57 3202.81 2195.64L3194.41 2199.1V2171.1V2143.24L3190.81 2143.37C3188.68 2143.37 3186.54 2143.64 3185.74 2143.9ZM3227.61 2207.64C3235.61 2212.97 3240.14 2223.37 3240.81 2237.9C3241.61 2253.64 3238.81 2263.24 3231.34 2270.7C3224.94 2277.1 3219.61 2278.97 3204.81 2280.17L3194.41 2280.97V2243.5V2205.9L3198.14 2205.1C3200.14 2204.7 3202.41 2204.04 3203.08 2203.77C3203.88 2203.5 3208.41 2203.5 3213.34 2203.77C3220.28 2204.17 3223.61 2204.97 3227.61 2207.64Z" fill="#E6E8E9"/>
<path d="M3782.81 2147.37C3771.61 2150.97 3770.41 2151.64 3770.41 2154.57C3770.41 2157.77 3770.81 2157.9 3777.74 2157.9H3785.08V2176.04V2194.17L3781.48 2193.37C3770.81 2191.37 3766.14 2191.24 3757.74 2192.57C3740.81 2195.24 3727.08 2206.17 3720.81 2221.64C3718.28 2228.04 3717.74 2231.77 3717.74 2244.57C3717.74 2258.97 3718.01 2260.44 3721.88 2268.57C3728.94 2283.5 3737.21 2289.77 3751.21 2290.97C3760.68 2291.64 3767.74 2289.64 3777.74 2283.5L3784.41 2279.37L3784.81 2283.9L3785.21 2288.57H3800.54C3815.48 2288.57 3815.74 2288.57 3815.74 2285.5C3815.74 2282.97 3814.81 2282.17 3810.14 2281.1L3804.41 2279.9L3803.74 2211.9L3803.08 2143.9L3799.08 2143.64C3796.94 2143.5 3789.48 2145.24 3782.81 2147.37ZM3782.01 2202.7L3785.08 2203.5L3784.81 2237.77L3784.41 2271.9L3778.41 2274.84C3771.48 2278.3 3760.54 2278.84 3754.01 2276.04C3748.28 2273.64 3743.21 2267.9 3739.61 2259.9C3736.01 2251.9 3735.34 2234.3 3738.28 2224.17C3740.14 2217.77 3748.28 2207.1 3753.61 2204.3C3760.14 2200.84 3771.61 2200.17 3782.01 2202.7Z" fill="#E6E8E9"/>
<path d="M4485.74 2143.9C4485.08 2144.17 4479.21 2146.04 4472.81 2147.9C4462.28 2151.1 4461.08 2151.77 4461.08 2154.7C4461.08 2157.77 4461.48 2157.9 4468.41 2157.9H4475.74V2175.9V2194.04L4470.81 2192.97C4461.61 2191.1 4446.28 2192.17 4438.14 2195.24C4418.54 2202.57 4406.28 2224.44 4408.14 2248.7C4409.34 2263.1 4413.34 2273.1 4421.61 2281.24C4435.08 2294.7 4451.74 2294.84 4472.14 2281.37L4475.74 2278.97V2283.77V2288.57H4491.08C4506.28 2288.57 4506.41 2288.57 4506.41 2285.37C4506.41 2282.84 4505.48 2282.04 4500.81 2281.1L4495.08 2279.9L4494.68 2211.5L4494.41 2143.24L4490.68 2143.37C4488.68 2143.37 4486.54 2143.64 4485.74 2143.9ZM4469.08 2202.04L4475.74 2203.5V2237.9V2272.3L4468.81 2275.24C4458.81 2279.5 4447.08 2278.7 4440.14 2272.97C4422.01 2258.44 4422.68 2220.97 4441.21 2206.84C4448.94 2200.97 4457.48 2199.5 4469.08 2202.04Z" fill="#E6E8E9"/>
<path d="M1358.28 2145.9C1357.08 2146.57 1350.81 2153.37 1344.28 2160.84C1337.88 2168.44 1331.48 2175.9 1330.01 2177.5L1327.34 2180.57H1332.68C1336.94 2180.57 1340.94 2178.7 1354.81 2169.77C1373.08 2158.17 1375.34 2155.37 1371.61 2148.7C1369.48 2144.97 1362.28 2143.5 1358.28 2145.9Z" fill="#E6E8E9"/>
<path d="M2399.88 2163.5L2387.88 2179.9L2393.34 2180.3C2398.54 2180.7 2399.34 2180.3 2409.34 2170.3L2419.74 2159.9L2430.14 2170.3C2440.14 2180.3 2440.94 2180.7 2446.14 2180.3L2451.61 2179.9L2439.34 2163.5L2427.21 2147.24H2419.48H2411.88L2399.88 2163.5Z" fill="#E6E8E9"/>
<path d="M877.745 2153.24C870.545 2160.3 875.745 2173.1 885.611 2173.1C895.878 2173.1 901.345 2160.57 894.278 2153.1C890.145 2148.7 882.145 2148.7 877.745 2153.24Z" fill="#E6E8E9"/>
<path d="M1479.74 2153.24C1472.68 2160.84 1478.14 2173.1 1488.54 2173.1C1498.41 2173.1 1503.61 2160.3 1496.41 2153.24C1491.88 2148.57 1484.01 2148.7 1479.74 2153.24Z" fill="#E6E8E9"/>
<path d="M2691.74 2153.24C2684.68 2160.84 2690.14 2173.1 2700.54 2173.1C2710.41 2173.1 2715.61 2160.3 2708.41 2153.24C2703.88 2148.57 2696.01 2148.7 2691.74 2153.24Z" fill="#E6E8E9"/>
<path d="M4535.08 2153.24C4527.88 2160.3 4533.08 2173.1 4542.95 2173.1C4553.35 2173.1 4558.81 2160.84 4551.75 2153.24C4547.48 2148.7 4539.61 2148.57 4535.08 2153.24Z" fill="#E6E8E9"/>
<path d="M4769.08 2153.24C4762.01 2160.84 4767.48 2173.1 4777.88 2173.1C4787.75 2173.1 4792.95 2160.3 4785.75 2153.24C4781.21 2148.57 4773.35 2148.7 4769.08 2153.24Z" fill="#E6E8E9"/>
<path d="M49.478 2155.77C38.0113 2158.7 27.478 2164.57 18.9446 2173.1C5.21131 2186.84 -1.05536 2204.84 0.144643 2226.57C3.07798 2276.7 46.678 2303.5 99.3447 2287.5L107.078 2285.1L107.478 2268.84L107.878 2252.44L102.278 2252.84L96.5447 2253.24L94.278 2264.3C92.9447 2270.3 91.478 2275.9 91.078 2276.57C90.678 2277.24 86.9446 2278.84 82.8113 2280.04C62.4113 2285.9 38.9446 2275.64 28.9446 2256.3C22.9446 2244.57 20.5446 2220.17 23.878 2204.3C28.8113 2180.97 44.8113 2166.17 66.4113 2164.84C74.4113 2164.44 77.878 2164.84 84.1446 2167.24C92.8113 2170.44 92.9447 2170.7 94.9447 2183.1L96.4113 2191.9L102.145 2192.3L107.745 2192.7V2176.84V2160.97L96.8113 2157.9C83.478 2154.17 60.1446 2153.1 49.478 2155.77Z" fill="#E6E8E9"/>
<path d="M1413.21 2180.57C1408.94 2190.84 1408.41 2191.37 1402.28 2194.04C1397.08 2196.3 1395.74 2197.5 1395.74 2200.04C1395.74 2202.97 1396.28 2203.24 1401.61 2203.24H1407.61L1408.01 2240.84C1408.41 2274.3 1408.68 2279.1 1410.81 2282.97C1415.48 2291.5 1430.28 2293.77 1446.41 2288.17C1454.14 2285.5 1455.08 2284.84 1455.48 2281.37C1455.88 2278.17 1455.61 2277.64 1453.48 2278.44C1447.48 2280.84 1437.21 2280.97 1433.61 2278.7C1427.08 2274.3 1426.41 2270.17 1426.41 2235.24V2203.24H1440.41H1454.41V2198.57V2193.9H1440.41H1426.41V2181.9V2169.9H1422.14C1417.88 2169.9 1417.61 2170.44 1413.21 2180.57Z" fill="#E6E8E9"/>
<path d="M4833.21 2172.84C4827.21 2188.57 4825.21 2191.37 4818.55 2194.3C4813.48 2196.57 4811.75 2197.9 4811.75 2200.17C4811.75 2202.7 4812.55 2203.1 4818.15 2203.5L4824.41 2203.9L4825.08 2241.9C4825.61 2269.77 4826.15 2280.7 4827.48 2282.97C4832.41 2291.5 4846.81 2293.64 4863.08 2288.44C4871.21 2285.77 4871.75 2285.24 4871.75 2281.64C4871.75 2278.3 4871.35 2277.77 4869.48 2278.57C4864.68 2280.57 4855.75 2280.84 4851.75 2279.24C4843.75 2275.9 4843.08 2272.84 4842.68 2236.17L4842.28 2203.24H4856.28H4870.41V2198.57V2193.9H4856.41H4842.41V2181.9V2169.9H4838.41C4835.48 2169.9 4834.01 2170.7 4833.21 2172.84Z" fill="#E6E8E9"/>
<path d="M160.145 2192.57C145.611 2195.64 134.011 2204.57 128.278 2217.24C118.811 2237.9 121.745 2261.64 135.878 2277.1C145.478 2287.5 152.945 2290.57 169.745 2290.57C180.945 2290.57 184.011 2290.04 189.211 2287.5C199.211 2282.57 205.878 2275.9 210.678 2266.3C214.545 2258.44 215.078 2255.9 215.478 2244.04C216.145 2228.84 213.878 2220.04 206.678 2209.64C197.478 2196.17 177.478 2188.97 160.145 2192.57ZM180.678 2203.24C190.945 2209.5 196.411 2224.7 195.478 2245.1C194.545 2265.5 187.345 2278.84 175.345 2282.04C156.811 2286.97 143.745 2270.17 143.745 2241.24C143.745 2222.44 148.411 2210.3 158.278 2203.64C164.145 2199.64 174.545 2199.5 180.678 2203.24Z" fill="#E6E8E9"/>
<path d="M284.811 2192.7C280.811 2193.64 269.345 2198.57 260.811 2202.97C260.145 2203.24 259.745 2201.37 259.745 2198.7C259.745 2194.17 259.478 2193.9 255.478 2194.04C253.078 2194.04 246.011 2195.77 239.745 2197.77C230.411 2200.7 228.278 2201.77 228.011 2204.3C227.611 2206.97 228.145 2207.24 234.278 2207.24H241.078L240.811 2243.5L240.411 2279.9L234.145 2281.1C228.678 2282.17 227.745 2282.84 227.745 2285.5V2288.57H249.745H271.745V2285.5C271.745 2282.97 270.811 2282.17 266.145 2281.1L260.411 2279.9L260.011 2245.64L259.745 2211.24L264.678 2209.1C267.745 2207.64 273.478 2206.7 279.345 2206.7C287.745 2206.57 289.345 2206.97 292.278 2209.77C297.878 2214.97 298.545 2220.3 298.145 2251.24L297.745 2279.9L292.145 2281.1C287.345 2282.04 286.411 2282.84 286.411 2285.37V2288.57H307.745H329.078V2285.37C329.078 2282.7 328.278 2282.04 323.211 2281.37C319.745 2280.84 316.945 2279.64 316.545 2278.44C316.145 2277.24 315.745 2261.77 315.745 2243.9V2211.5L322.145 2208.97C326.011 2207.5 331.878 2206.57 337.345 2206.57C345.211 2206.57 346.811 2206.97 349.745 2210.04C351.745 2211.9 353.745 2215.77 354.411 2218.7C355.745 2224.44 356.278 2275.1 354.945 2278.44C354.545 2279.64 351.745 2280.84 348.278 2281.37C343.211 2282.04 342.411 2282.7 342.411 2285.37V2288.57H364.411H386.411V2285.5C386.411 2282.84 385.478 2282.17 380.145 2281.1L373.745 2279.9L373.078 2245.24C372.411 2212.44 372.278 2210.3 369.345 2204.3C364.278 2194.17 354.145 2189.77 341.611 2192.57C338.145 2193.37 330.411 2196.44 324.678 2199.37L314.011 2204.7L308.545 2199.24C300.945 2191.9 295.078 2190.3 284.811 2192.7Z" fill="#E6E8E9"/>
<path d="M448.945 2192.97C445.611 2193.9 439.478 2196.57 435.345 2198.97L427.745 2203.24V2198.57C427.745 2194.3 427.345 2193.9 424.145 2193.9C422.011 2193.9 415.078 2195.64 408.411 2197.64C398.411 2200.7 396.278 2201.9 396.011 2204.3C395.611 2206.97 396.145 2207.24 402.278 2207.24H409.078L408.811 2264.84L408.411 2322.57L402.145 2323.77C396.278 2324.97 395.745 2325.37 395.745 2328.84V2332.57H419.745H443.745V2328.7C443.745 2325.24 443.345 2324.84 437.078 2324.17C433.345 2323.77 429.745 2322.97 429.078 2322.57C428.278 2322.04 427.745 2314.84 427.745 2306.17V2290.57H444.011C458.945 2290.57 461.078 2290.3 467.878 2287.1C477.611 2282.57 485.745 2274.3 490.145 2264.7C494.811 2254.84 495.878 2234.3 492.411 2222.44C486.145 2200.17 467.745 2187.77 448.945 2192.97ZM459.611 2208.3C469.878 2213.9 476.678 2230.84 475.345 2247.5C473.345 2271.5 457.478 2285.77 437.078 2281.9C433.211 2281.24 429.611 2280.3 428.945 2279.9C428.278 2279.37 427.745 2264.44 427.745 2245.1V2211.1L433.478 2208.57C440.811 2205.1 453.478 2205.1 459.611 2208.3Z" fill="#E6E8E9"/>
<path d="M559.744 2193.37C557.211 2194.44 551.344 2199.1 546.811 2203.64L538.411 2211.77V2202.84C538.411 2194.04 538.411 2193.9 534.811 2193.9C532.678 2193.9 525.744 2195.64 519.078 2197.77C509.211 2200.84 506.944 2202.04 506.678 2204.3C506.278 2206.97 506.811 2207.24 513.611 2207.24H521.078L520.811 2243.5L520.411 2279.9L513.478 2281.1C507.344 2282.17 506.411 2282.84 506.411 2285.5V2288.57H531.078H555.744V2285.37C555.744 2282.57 555.078 2282.17 547.878 2281.37C542.678 2280.7 539.744 2279.77 539.211 2278.44C538.811 2277.24 538.411 2263.9 538.411 2248.7V2221.1L542.144 2217.64C551.611 2208.7 560.544 2206.3 566.811 2211.24C568.678 2212.7 571.744 2213.9 573.611 2213.9C577.078 2213.9 577.078 2213.77 577.078 2204.04V2194.17L571.211 2192.7C564.144 2190.97 565.478 2190.84 559.744 2193.37Z" fill="#E6E8E9"/>
<path d="M622.411 2192.97C601.078 2197.77 588.145 2214.3 586.678 2238.7C584.811 2270.57 605.478 2292.7 635.478 2290.97C654.011 2289.9 666.945 2281.24 674.945 2264.57C678.811 2256.57 679.078 2254.84 679.078 2241.9C679.078 2230.3 678.411 2226.57 675.878 2219.9C671.611 2209.24 660.278 2197.9 651.078 2194.84C641.611 2191.77 630.945 2191.1 622.411 2192.97ZM643.078 2202.7C648.145 2205.1 653.345 2211.9 656.545 2220.57C659.878 2229.5 659.878 2252.17 656.545 2262.44C648.545 2286.57 623.345 2290.17 612.411 2268.57C601.345 2246.84 607.078 2210.44 622.811 2202.7C628.278 2200.04 637.478 2200.04 643.078 2202.7Z" fill="#E6E8E9"/>
<path d="M745.078 2193.77C741.078 2195.1 734.678 2197.77 730.811 2199.64C726.944 2201.64 723.478 2203.24 723.078 2203.24C722.678 2203.24 722.411 2201.1 722.411 2198.57C722.411 2192.57 720.678 2192.57 704.144 2197.5C693.478 2200.7 691.744 2201.64 691.744 2204.17C691.744 2206.7 692.544 2207.1 698.144 2207.5L704.411 2207.9V2243.9V2279.9L697.478 2281.1C691.344 2282.17 690.411 2282.84 690.411 2285.5V2288.57H713.078H735.744V2285.37C735.744 2282.7 734.944 2282.04 729.878 2281.37C726.411 2280.84 723.611 2279.64 723.211 2278.44C722.811 2277.24 722.411 2261.77 722.411 2243.9V2211.5L728.144 2209.24C735.344 2206.3 747.344 2205.24 752.011 2207.1C754.144 2207.9 756.944 2210.44 758.411 2212.84C760.811 2216.97 761.078 2219.64 761.078 2248.84V2280.44L755.078 2281.37C749.878 2282.04 749.078 2282.7 749.078 2285.37V2288.57H770.411H791.744V2285.37C791.744 2282.84 790.811 2282.04 786.144 2281.1L780.411 2279.9V2245.24V2210.7L787.744 2208.3C803.211 2203.5 814.278 2206.44 817.078 2216.17C818.011 2219.37 818.411 2231.9 818.144 2250.57L817.744 2279.9L812.144 2281.1C807.344 2282.17 806.411 2282.97 806.411 2285.5V2288.57H828.411H850.411V2285.24C850.411 2282.57 849.744 2281.9 847.211 2281.9C845.344 2281.9 842.411 2281.37 840.544 2280.7L837.344 2279.37L836.811 2245.64C836.411 2216.7 836.011 2211.1 834.011 2206.57C828.278 2193.77 818.278 2189.37 803.611 2193.1C799.078 2194.3 791.344 2197.5 786.411 2200.04L777.611 2204.84L772.278 2199.5C767.478 2194.7 759.744 2191.1 754.411 2191.37C753.344 2191.37 749.078 2192.44 745.078 2193.77Z" fill="#E6E8E9"/>
<path d="M874.411 2195.1C864.278 2198.44 863.078 2199.1 862.678 2202.3C862.278 2205.77 862.411 2205.9 868.944 2205.9H875.744L875.478 2242.84L875.078 2279.9L868.811 2281.1C863.344 2282.17 862.411 2282.84 862.411 2285.5V2288.57H885.078H907.744V2285.37C907.744 2282.7 906.944 2282.17 902.411 2281.5C892.678 2280.17 893.078 2282.44 893.078 2234.44V2191.24L889.478 2191.37C887.344 2191.5 880.678 2193.1 874.411 2195.1Z" fill="#E6E8E9"/>
<path d="M947.878 2192.57C939.478 2194.3 933.211 2198.04 928.544 2203.77C924.678 2208.44 924.411 2209.64 924.411 2219.5V2230.17L930.011 2235.24C933.078 2237.9 941.744 2243.37 949.078 2247.24C964.678 2255.5 969.078 2259.77 969.078 2267.24C969.078 2278.04 957.878 2285.1 945.478 2282.04C935.078 2279.37 933.611 2277.9 932.544 2268.7L931.611 2260.57H927.078H922.411V2273.64V2286.84L927.478 2288.44C936.278 2291.37 955.611 2291.9 964.144 2289.37C977.744 2285.37 986.278 2274.7 986.411 2261.5C986.411 2249.5 982.011 2244.7 961.344 2234.04C945.878 2226.17 941.078 2221.37 941.078 2214.04C941.078 2204.17 951.344 2198.57 963.478 2201.9C971.078 2203.9 973.078 2206.3 973.078 2213.37V2219.24H978.411H983.878L983.478 2207.64L983.078 2196.17L978.011 2194.44C971.211 2192.04 955.078 2191.1 947.878 2192.57Z" fill="#E6E8E9"/>
<path d="M1027.34 2192.57C1018.68 2194.04 1012.01 2197.77 1007.21 2203.77C1003.88 2207.77 1003.08 2210.17 1002.68 2217.1C1001.74 2231.1 1005.21 2235.24 1028.94 2247.77C1043.48 2255.5 1047.74 2259.9 1047.74 2267.24C1047.74 2278.04 1036.54 2285.1 1024.14 2282.04C1013.74 2279.37 1012.28 2277.9 1011.21 2268.7L1010.28 2260.57H1005.74H1001.08V2273.64V2286.84L1006.14 2288.44C1014.94 2291.37 1034.28 2291.9 1042.81 2289.37C1056.41 2285.37 1064.94 2274.7 1065.08 2261.5C1065.08 2249.5 1060.14 2244.17 1039.74 2233.9C1024.68 2226.3 1019.74 2221.37 1019.74 2214.04C1019.74 2204.3 1030.28 2198.57 1042.14 2201.9C1049.74 2203.9 1051.74 2206.3 1051.74 2213.37V2219.24H1057.08H1062.54L1062.14 2207.64L1061.74 2196.17L1056.94 2194.57C1050.41 2192.3 1034.94 2191.24 1027.34 2192.57Z" fill="#E6E8E9"/>
<path d="M1116.28 2192.57C1101.88 2195.64 1090.54 2204.7 1084.28 2218.3C1080.68 2225.9 1080.41 2227.77 1080.41 2241.9C1080.41 2255.64 1080.81 2258.04 1083.88 2264.7C1088.68 2274.84 1095.88 2282.44 1104.81 2286.84C1111.61 2290.17 1113.88 2290.57 1125.74 2290.57C1137.61 2290.57 1139.88 2290.17 1146.68 2286.84C1171.21 2274.84 1180.14 2241.64 1166.01 2214.84C1161.34 2205.77 1155.21 2200.04 1145.74 2195.77C1138.14 2192.3 1124.54 2190.84 1116.28 2192.57ZM1136.54 2203.1C1146.81 2209.37 1152.01 2221.77 1152.14 2240.57C1152.41 2268.44 1140.68 2285.24 1122.68 2282.57C1109.61 2280.57 1101.34 2266.97 1100.14 2245.24C1098.94 2224.84 1105.08 2208.3 1115.74 2202.97C1121.88 2199.77 1131.34 2199.9 1136.54 2203.1Z" fill="#E6E8E9"/>
<path d="M1334.94 2193.1C1326.41 2195.24 1317.08 2200.57 1312.54 2206.04C1294.68 2227.24 1296.01 2263.64 1315.21 2280.57C1322.28 2286.7 1331.08 2290.17 1342.01 2290.97C1353.21 2291.64 1360.81 2290.04 1373.48 2284.3L1382.41 2280.17V2274.44V2268.7L1371.48 2273.9C1362.14 2278.44 1359.34 2279.24 1351.88 2279.24C1332.41 2279.1 1322.41 2268.57 1318.94 2244.17L1318.14 2237.9H1350.28H1382.41V2230.17C1382.41 2225.9 1381.48 2219.37 1380.41 2215.64C1378.01 2207.37 1369.61 2197.64 1362.68 2194.84C1355.21 2191.77 1342.81 2191.1 1334.94 2193.1ZM1354.54 2203.9C1358.94 2206.17 1362.68 2213.9 1363.48 2222.17L1364.14 2228.57H1341.74H1319.48L1320.41 2223.5C1323.61 2205.77 1339.88 2196.44 1354.54 2203.9Z" fill="#E6E8E9"/>
<path d="M1476.14 2195.37C1464.94 2198.97 1463.74 2199.64 1463.74 2202.57C1463.74 2205.77 1464.14 2205.9 1471.08 2205.9H1478.41V2241.1C1478.41 2260.44 1478.01 2277.24 1477.61 2278.44C1477.08 2279.77 1474.41 2280.84 1470.28 2281.37C1464.54 2282.17 1463.74 2282.57 1463.74 2285.37V2288.57H1487.08H1510.41V2285.5C1510.41 2282.84 1509.48 2282.17 1503.48 2281.1L1496.41 2279.9L1496.01 2235.5L1495.74 2191.24L1492.01 2191.37C1490.01 2191.37 1482.81 2193.24 1476.14 2195.37Z" fill="#E6E8E9"/>
<path d="M1561.61 2192.57C1541.74 2196.7 1528.41 2211.1 1524.94 2232.44C1521.08 2255.64 1530.94 2278.04 1548.81 2286.84C1555.61 2290.17 1557.88 2290.57 1569.74 2290.57C1581.61 2290.57 1584.14 2290.04 1592.41 2286.57C1601.74 2282.57 1601.74 2282.44 1602.14 2276.97L1602.54 2271.37L1594.81 2274.84C1565.74 2288.17 1541.74 2269.37 1544.14 2235.24C1544.54 2228.97 1545.88 2222.3 1547.61 2218.44C1553.74 2204.7 1565.88 2197.1 1576.28 2200.57L1581.08 2202.17V2211.24V2220.44L1586.28 2222.04C1590.28 2223.24 1592.14 2223.24 1595.21 2221.77C1606.28 2216.44 1602.81 2200.17 1589.34 2194.84C1582.94 2192.3 1568.68 2191.1 1561.61 2192.57Z" fill="#E6E8E9"/>
<path d="M1650.14 2192.57C1632.94 2195.24 1621.08 2203.9 1621.08 2213.77C1621.08 2220.04 1622.14 2220.57 1633.88 2220.57H1642.41V2211.9C1642.41 2201.5 1642.81 2201.24 1656.01 2201.24C1664.41 2201.24 1665.34 2201.5 1669.34 2205.5C1673.34 2209.5 1673.74 2210.7 1674.14 2219.5L1674.54 2229.24L1659.48 2232.97C1626.54 2241.1 1613.61 2251.9 1616.28 2269.1C1620.01 2291.77 1642.41 2297.77 1666.54 2282.7C1670.41 2280.17 1674.01 2278.3 1674.54 2278.7C1675.08 2278.97 1675.88 2281.37 1676.28 2283.9L1677.21 2288.57H1691.74H1706.41V2285.24C1706.41 2282.57 1705.74 2281.9 1703.21 2281.9C1701.34 2281.9 1698.41 2281.37 1696.54 2280.7L1693.34 2279.37L1692.81 2245.64C1692.41 2212.7 1692.28 2211.77 1689.08 2205.24C1686.54 2200.04 1684.41 2197.9 1679.74 2195.64C1672.68 2192.17 1660.81 2190.97 1650.14 2192.57ZM1674.41 2253.9V2271.24L1668.01 2274.44C1664.54 2276.17 1659.08 2278.3 1656.01 2279.24C1644.28 2282.3 1635.74 2275.5 1635.74 2263.1C1635.74 2252.84 1642.54 2246.44 1660.28 2240.44C1666.28 2238.3 1671.88 2236.7 1672.81 2236.57C1674.01 2236.57 1674.41 2240.84 1674.41 2253.9Z" fill="#E6E8E9"/>
<path d="M1810.41 2192.97C1791.08 2197.24 1778.94 2211.37 1775.48 2233.1C1770.54 2264.7 1787.88 2289.1 1816.68 2290.97C1827.88 2291.64 1835.48 2290.04 1848.14 2284.3L1857.08 2280.17V2274.44V2268.7L1846.14 2273.9C1836.81 2278.44 1834.01 2279.24 1826.54 2279.24C1807.21 2279.1 1796.94 2268.3 1793.61 2244.17L1792.81 2237.9H1824.94H1857.08V2230.17C1857.08 2225.9 1856.14 2219.37 1855.08 2215.64C1852.68 2207.5 1844.28 2197.64 1837.34 2194.84C1830.01 2191.9 1818.81 2191.1 1810.41 2192.97ZM1829.21 2203.9C1833.61 2206.17 1837.34 2213.9 1838.14 2222.17L1838.81 2228.57H1816.41H1794.14L1795.08 2223.5C1798.28 2205.77 1814.54 2196.44 1829.21 2203.9Z" fill="#E6E8E9"/>
<path d="M1965.08 2192.97C1955.61 2195.24 1950.14 2198.17 1943.74 2204.57C1936.94 2211.37 1933.34 2218.57 1930.81 2230.44C1926.28 2252.04 1933.08 2272.7 1948.14 2283.1C1963.74 2293.77 1984.14 2293.77 2005.48 2283.1C2012.81 2279.37 2013.08 2278.97 2013.08 2273.9C2013.08 2270.97 2012.81 2268.57 2012.41 2268.57C2012.14 2268.57 2007.61 2270.84 2002.28 2273.5C1985.34 2282.44 1967.21 2280.84 1957.88 2269.77C1953.74 2264.84 1949.74 2253.9 1948.68 2244.84L1947.88 2237.9H1979.88C2006.54 2237.9 2012.01 2237.64 2012.54 2236.04C2013.74 2232.84 2010.54 2215.37 2007.88 2210.17C2004.54 2203.77 1997.61 2197.24 1991.74 2194.7C1984.81 2191.9 1973.34 2191.1 1965.08 2192.97ZM1985.21 2204.7C1989.61 2207.77 1993.08 2216.04 1993.08 2223.24V2228.57H1970.94H1948.81L1949.74 2224.17C1951.21 2216.84 1955.74 2208.7 1960.01 2205.77C1967.88 2200.17 1978.28 2199.77 1985.21 2204.7Z" fill="#E6E8E9"/>
<path d="M2163.74 2192.97C2153.48 2195.37 2146.54 2199.37 2140.01 2206.44C2130.28 2216.97 2128.41 2222.57 2128.41 2241.9C2128.41 2256.17 2128.81 2259.5 2131.34 2264.84C2135.34 2273.37 2144.28 2282.7 2152.41 2286.97C2164.94 2293.37 2184.54 2292.3 2200.01 2284.44C2204.54 2282.04 2205.08 2281.37 2205.08 2276.57V2271.37L2198.28 2274.84C2190.01 2278.97 2177.08 2280.3 2169.74 2277.9C2162.94 2275.64 2154.54 2267.77 2151.48 2260.84C2143.48 2242.84 2147.48 2215.77 2159.74 2205.5C2165.08 2200.97 2173.61 2198.57 2178.94 2200.17C2182.94 2201.24 2183.08 2201.64 2183.74 2210.57C2184.28 2218.84 2184.81 2220.04 2187.74 2221.64C2192.01 2223.77 2198.14 2222.7 2202.01 2218.97C2205.61 2215.5 2206.01 2208.97 2202.94 2203.1C2198.68 2194.57 2178.81 2189.5 2163.74 2192.97Z" fill="#E6E8E9"/>
<path d="M2256.28 2192.57C2241.88 2195.64 2230.54 2204.7 2224.28 2218.3C2220.68 2225.9 2220.41 2227.77 2220.41 2242.57C2220.41 2257.1 2220.68 2259.24 2223.88 2265.9C2235.61 2290.57 2264.81 2298.3 2293.08 2284.17C2301.48 2280.04 2301.74 2279.77 2302.14 2274.17C2302.41 2271.1 2302.28 2268.57 2302.01 2268.57C2301.74 2268.57 2296.81 2270.97 2290.94 2274.04C2280.81 2279.24 2280.14 2279.5 2269.61 2278.97C2257.34 2278.57 2251.48 2275.5 2245.88 2267.1C2241.88 2261.24 2238.41 2249.9 2238.41 2242.97V2237.9H2270.54H2302.81L2302.01 2228.17C2300.81 2212.04 2294.28 2200.57 2283.34 2195.5C2276.41 2192.3 2264.01 2190.97 2256.28 2192.57ZM2274.41 2204.44C2279.21 2207.77 2282.41 2214.97 2282.41 2222.17V2228.57H2261.08H2239.74V2224.84C2239.88 2219.9 2244.01 2211.24 2248.14 2207.5C2255.48 2200.57 2267.21 2199.24 2274.41 2204.44Z" fill="#E6E8E9"/>
<path d="M2412.14 2192.57C2391.88 2196.7 2378.81 2211.5 2375.74 2233.64C2371.34 2265.5 2388.41 2289.1 2417.61 2290.97C2428.68 2291.64 2438.28 2289.37 2450.68 2283.1C2458.14 2279.37 2458.41 2278.97 2458.41 2273.9C2458.41 2270.97 2458.14 2268.57 2457.74 2268.57C2457.48 2268.57 2452.94 2270.84 2447.61 2273.5C2429.61 2282.97 2411.48 2280.84 2402.28 2268.17C2398.14 2262.57 2395.08 2253.37 2394.01 2243.64L2393.34 2237.9L2425.48 2237.64L2457.74 2237.24L2457.48 2229.64C2456.94 2213.24 2450.54 2201.37 2439.34 2196.04C2431.48 2192.3 2420.41 2190.84 2412.14 2192.57ZM2430.14 2204.17C2434.41 2206.84 2438.41 2215.9 2438.41 2222.84V2228.57H2416.41H2394.41L2395.21 2224.84C2397.48 2214.57 2399.34 2211.24 2406.01 2205.37C2411.88 2200.44 2423.48 2199.77 2430.14 2204.17Z" fill="#E6E8E9"/>
<path d="M2526.14 2192.57C2523.34 2193.37 2516.94 2195.9 2511.74 2198.57C2506.68 2201.1 2502.14 2203.24 2501.74 2203.24C2501.34 2203.24 2501.08 2201.1 2501.08 2198.57C2501.08 2194.17 2500.81 2193.9 2496.81 2194.04C2494.41 2194.04 2487.34 2195.77 2481.08 2197.77C2471.74 2200.7 2469.61 2201.77 2469.34 2204.3C2468.94 2206.97 2469.48 2207.24 2475.61 2207.24H2482.41V2243.24V2279.24L2478.94 2280.57C2477.08 2281.37 2474.14 2281.9 2472.28 2281.9C2469.74 2281.9 2469.08 2282.57 2469.08 2285.24V2288.57H2491.08H2513.08V2285.37C2513.08 2282.84 2512.14 2282.04 2507.48 2281.1L2501.74 2279.9L2501.34 2245.64L2501.08 2211.5L2507.34 2208.97C2511.48 2207.5 2517.21 2206.57 2523.34 2206.57C2531.61 2206.57 2533.34 2206.97 2536.28 2209.77C2538.14 2211.64 2540.28 2215.24 2541.08 2217.77C2542.54 2222.84 2542.94 2274.97 2541.61 2278.44C2541.21 2279.64 2538.41 2280.84 2534.94 2281.37C2529.88 2282.04 2529.08 2282.7 2529.08 2285.37V2288.57H2551.08H2573.08V2285.37C2573.08 2282.7 2572.28 2282.04 2567.21 2281.37C2563.74 2280.84 2560.94 2279.64 2560.54 2278.44C2560.14 2277.24 2559.74 2262.44 2559.74 2245.5C2559.74 2228.3 2559.08 2212.3 2558.41 2209.64C2556.68 2203.77 2551.61 2197.24 2546.54 2194.7C2541.61 2192.17 2532.01 2191.1 2526.14 2192.57Z" fill="#E6E8E9"/>
<path d="M2621.61 2192.57C2601.34 2196.84 2588.01 2211.5 2584.68 2232.84C2581.08 2255.9 2590.94 2278.04 2608.81 2286.84C2615.61 2290.17 2617.88 2290.57 2629.74 2290.57C2641.61 2290.57 2644.14 2290.04 2652.41 2286.57C2661.74 2282.57 2661.74 2282.44 2662.14 2276.97L2662.54 2271.37L2654.81 2274.97C2648.54 2277.9 2645.21 2278.57 2637.08 2278.57C2624.94 2278.57 2618.41 2275.64 2612.14 2267.37C2606.28 2259.64 2604.41 2252.7 2604.41 2237.9C2604.54 2227.1 2604.94 2224.17 2607.88 2217.9C2614.28 2204.04 2625.88 2197.1 2636.28 2200.57L2641.08 2202.17V2211.24V2220.44L2646.14 2222.04C2660.54 2226.3 2667.74 2208.84 2655.61 2198.7C2649.08 2193.24 2632.68 2190.17 2621.61 2192.57Z" fill="#E6E8E9"/>
<path d="M2688.14 2195.37C2676.94 2198.97 2675.74 2199.64 2675.74 2202.57C2675.74 2205.77 2676.14 2205.9 2683.08 2205.9H2690.41V2241.1C2690.41 2260.44 2690.01 2277.24 2689.61 2278.44C2689.08 2279.77 2686.41 2280.84 2682.28 2281.37C2676.54 2282.17 2675.74 2282.57 2675.74 2285.37V2288.57H2699.08H2722.41V2285.5C2722.41 2282.84 2721.48 2282.17 2715.48 2281.1L2708.41 2279.9L2708.01 2235.5L2707.74 2191.24L2704.01 2191.37C2702.01 2191.37 2694.81 2193.24 2688.14 2195.37Z" fill="#E6E8E9"/>
<path d="M2769.74 2192.7C2759.21 2194.3 2746.41 2200.57 2743.48 2205.64C2740.41 2210.7 2740.28 2218.7 2743.21 2219.77C2744.41 2220.17 2749.08 2220.57 2753.74 2220.57H2762.28L2762.68 2211.5L2763.08 2202.57L2769.21 2201.37C2777.48 2199.77 2784.28 2201.24 2789.48 2205.77C2793.34 2209.37 2793.74 2210.3 2794.14 2219.37L2794.54 2229.24L2779.48 2232.97C2762.68 2237.1 2747.61 2243.64 2742.14 2249.24C2736.94 2254.44 2735.08 2262.17 2736.81 2270.84C2741.34 2292.57 2764.14 2297.64 2787.61 2282.04C2790.94 2279.77 2794.01 2278.3 2794.54 2278.57C2795.08 2278.97 2795.88 2281.37 2796.28 2283.9L2797.21 2288.57H2811.74H2826.41V2285.24C2826.41 2282.57 2825.74 2281.9 2823.21 2281.9C2821.34 2281.9 2818.41 2281.37 2816.68 2280.7L2813.34 2279.37L2812.81 2245.64C2812.41 2212.7 2812.28 2211.77 2809.08 2205.24C2806.54 2200.04 2804.41 2197.9 2799.74 2195.64C2792.54 2192.17 2780.81 2190.97 2769.74 2192.7ZM2794.41 2253.9V2271.24L2788.01 2274.44C2784.54 2276.17 2779.08 2278.3 2776.01 2279.24C2764.28 2282.3 2755.74 2275.64 2755.74 2262.97C2755.74 2256.04 2759.21 2250.84 2766.81 2246.04C2771.08 2243.37 2789.61 2236.7 2792.81 2236.57C2794.01 2236.57 2794.41 2240.84 2794.41 2253.9Z" fill="#E6E8E9"/>
<path d="M2948.81 2192.57C2946.01 2193.37 2939.61 2195.9 2934.41 2198.57C2929.34 2201.1 2924.81 2203.24 2924.41 2203.24C2924.01 2203.24 2923.74 2201.1 2923.74 2198.57C2923.74 2194.17 2923.48 2193.9 2919.48 2194.04C2917.08 2194.04 2910.01 2195.77 2903.74 2197.77C2894.41 2200.7 2892.28 2201.77 2892.01 2204.3C2891.61 2206.97 2892.14 2207.24 2898.28 2207.24H2905.08V2243.24V2279.24L2901.61 2280.57C2899.74 2281.37 2896.81 2281.9 2894.94 2281.9C2892.41 2281.9 2891.74 2282.57 2891.74 2285.24V2288.57H2913.74H2935.74V2285.37C2935.74 2282.84 2934.81 2282.04 2930.14 2281.1L2924.41 2279.9L2924.01 2245.64L2923.74 2211.5L2930.01 2208.97C2934.14 2207.5 2939.88 2206.57 2946.01 2206.57C2954.28 2206.57 2956.01 2206.97 2958.94 2209.77C2960.81 2211.64 2962.94 2215.24 2963.74 2217.77C2965.21 2222.84 2965.61 2274.97 2964.28 2278.44C2963.88 2279.64 2961.08 2280.84 2957.61 2281.37C2952.54 2282.04 2951.74 2282.7 2951.74 2285.37V2288.57H2973.74H2995.74V2285.37C2995.74 2282.7 2994.94 2282.04 2989.88 2281.37C2986.41 2280.84 2983.61 2279.64 2983.21 2278.44C2982.81 2277.24 2982.41 2262.44 2982.41 2245.5C2982.41 2228.3 2981.74 2212.3 2981.08 2209.64C2979.34 2203.77 2974.28 2197.24 2969.21 2194.7C2964.28 2192.17 2954.68 2191.1 2948.81 2192.57Z" fill="#E6E8E9"/>
<path d="M3041.61 2192.44C3027.48 2194.7 3016.14 2200.44 3013.21 2206.7C3011.08 2211.64 3011.34 2218.84 3013.88 2219.77C3015.08 2220.17 3019.74 2220.57 3024.41 2220.57H3032.94L3033.34 2211.5L3033.74 2202.57L3039.88 2201.37C3048.14 2199.77 3054.94 2201.24 3060.14 2205.77C3064.01 2209.37 3064.41 2210.44 3064.81 2219.37L3065.34 2229.24L3052.54 2232.17C3029.74 2237.5 3014.54 2244.84 3009.48 2253.24C3006.28 2258.7 3006.41 2271.5 3009.61 2278.3C3011.08 2281.24 3014.54 2285.1 3017.48 2286.97C3022.01 2290.04 3024.28 2290.57 3032.28 2290.57C3042.01 2290.57 3049.88 2287.77 3060.68 2280.57C3065.34 2277.5 3065.34 2277.5 3066.94 2284.84L3067.74 2288.57H3082.41H3097.08V2285.24C3097.08 2282.57 3096.41 2281.9 3093.88 2281.9C3092.01 2281.9 3089.08 2281.37 3087.34 2280.7L3084.01 2279.37L3083.61 2245.64C3083.08 2212.84 3082.94 2211.77 3079.74 2205.24C3077.21 2200.17 3075.08 2197.9 3070.41 2195.64C3063.61 2192.3 3051.61 2190.97 3041.61 2192.44ZM3065.08 2253.9V2271.24L3058.68 2274.44C3055.21 2276.17 3049.74 2278.3 3046.68 2279.24C3035.08 2282.3 3026.41 2275.5 3026.41 2263.5C3026.41 2252.44 3032.41 2246.84 3050.68 2240.44C3056.81 2238.3 3062.54 2236.57 3063.48 2236.57C3064.68 2236.57 3065.08 2240.97 3065.08 2253.9Z" fill="#E6E8E9"/>
<path d="M3284.14 2195.37C3272.94 2198.97 3271.74 2199.64 3271.74 2202.57C3271.74 2205.77 3272.14 2205.9 3279.08 2205.9H3286.41V2237.5C3286.41 2271.1 3287.21 2276.84 3292.54 2283.1C3302.28 2294.7 3320.68 2293.64 3340.81 2280.44L3345.08 2277.64V2283.1V2288.57H3360.41C3375.61 2288.57 3375.74 2288.57 3375.74 2285.37C3375.74 2282.84 3374.94 2282.17 3370.94 2281.5C3362.01 2280.04 3362.41 2282.04 3362.41 2234.44C3362.41 2184.04 3364.68 2188.84 3343.61 2195.37C3331.61 2199.1 3330.41 2199.77 3330.41 2202.7C3330.41 2205.64 3330.81 2205.9 3337.74 2205.9H3345.08V2239.1V2272.44L3337.74 2275.1C3323.74 2280.3 3311.48 2278.17 3306.81 2269.5C3304.68 2265.77 3304.41 2260.57 3304.01 2228.17L3303.61 2191.24L3300.01 2191.37C3298.01 2191.37 3290.81 2193.24 3284.14 2195.37Z" fill="#E6E8E9"/>
<path d="M3414.28 2192.57C3407.21 2193.77 3398.81 2197.77 3395.48 2201.5C3389.34 2208.17 3387.21 2222.44 3391.08 2229.9C3393.61 2234.84 3398.68 2238.57 3413.74 2246.57C3430.14 2255.24 3432.81 2257.37 3434.14 2262.44C3435.88 2268.7 3434.68 2273.37 3430.28 2277.9C3424.94 2283.1 3417.34 2284.17 3407.74 2280.97C3400.01 2278.44 3399.74 2277.9 3397.74 2265.5C3396.94 2260.97 3396.68 2260.57 3392.41 2260.57H3387.74V2273.77V2286.97L3397.21 2289.24C3409.21 2292.17 3425.88 2291.5 3434.41 2287.64C3441.74 2284.3 3448.54 2277.64 3450.54 2271.5C3451.34 2268.97 3451.74 2263.37 3451.48 2259.1C3450.94 2252.3 3450.28 2250.57 3446.41 2246.57C3444.01 2244.04 3435.48 2238.57 3427.48 2234.44C3419.48 2230.3 3411.48 2225.1 3409.74 2222.97C3405.08 2217.5 3405.34 2211.24 3410.28 2205.64C3413.88 2201.64 3414.81 2201.24 3422.01 2201.37C3432.28 2201.37 3437.61 2204.04 3438.14 2209.24C3438.94 2218.3 3439.48 2219.24 3444.41 2219.24H3449.08V2207.37V2195.5L3443.48 2194.17C3434.94 2192.04 3421.21 2191.24 3414.28 2192.57Z" fill="#E6E8E9"/>
<path d="M3503.74 2192.57C3488.81 2195.77 3477.21 2204.97 3470.54 2219.1C3467.48 2225.77 3467.08 2228.17 3467.08 2241.9C3467.08 2255.9 3467.34 2257.9 3470.81 2265.24C3482.68 2290.57 3511.08 2298.57 3538.68 2284.44C3543.21 2282.17 3543.74 2281.37 3543.74 2276.7V2271.64L3536.81 2274.97C3527.61 2279.37 3515.08 2280.44 3507.08 2277.37C3499.08 2274.3 3490.94 2264.97 3488.28 2255.5C3484.94 2244.04 3486.14 2225.9 3490.81 2216.17C3492.94 2212.04 3496.28 2207.24 3498.54 2205.37C3503.74 2200.97 3512.28 2198.7 3517.61 2200.17C3521.61 2201.24 3521.74 2201.5 3522.14 2210.3C3522.54 2218.84 3522.68 2219.37 3526.68 2221.37C3530.14 2223.1 3531.74 2223.24 3535.88 2222.04C3538.68 2221.1 3541.61 2219.37 3542.41 2217.9C3544.41 2214.3 3544.01 2207.64 3541.61 2203.1C3537.48 2195.1 3518.01 2189.64 3503.74 2192.57Z" fill="#E6E8E9"/>
<path d="M3589.48 2193.1C3579.21 2195.1 3569.21 2200.04 3565.88 2204.84C3564.68 2206.44 3563.34 2209.9 3562.94 2212.44C3561.74 2218.7 3564.54 2220.57 3575.34 2220.57H3583.74V2211.9V2203.37L3588.81 2202.04C3595.61 2200.04 3601.61 2200.17 3607.08 2202.44C3613.74 2205.24 3616.14 2209.9 3616.28 2220.17L3616.41 2228.97L3602.41 2232.57C3568.54 2241.5 3558.41 2248.97 3558.41 2265.24C3558.41 2276.3 3563.34 2284.57 3572.41 2288.7C3582.54 2293.37 3596.81 2290.84 3609.74 2281.9C3613.08 2279.5 3616.14 2277.9 3616.41 2278.17C3616.68 2278.3 3617.34 2280.7 3618.01 2283.24L3619.21 2287.9L3633.48 2288.3L3647.74 2288.7V2285.37C3647.74 2282.7 3646.94 2282.04 3641.88 2281.37C3638.41 2280.84 3635.61 2279.64 3635.21 2278.44C3634.81 2277.24 3634.41 2262.44 3634.41 2245.5C3634.41 2228.3 3633.74 2212.3 3633.08 2209.64C3631.21 2203.37 3625.74 2196.7 3620.28 2194.44C3613.74 2191.77 3600.14 2191.1 3589.48 2193.1ZM3617.08 2253.77V2271.1L3608.28 2275.37C3602.14 2278.44 3597.48 2279.77 3592.81 2279.77C3586.94 2279.9 3585.74 2279.37 3582.41 2275.64C3574.14 2266.44 3576.01 2254.84 3586.94 2247.64C3592.54 2243.77 3610.68 2236.84 3615.48 2236.57C3616.68 2236.57 3617.08 2240.84 3617.08 2253.77Z" fill="#E6E8E9"/>
<path d="M3865.48 2192.57C3851.74 2195.37 3840.14 2203.9 3834.41 2215.37C3830.01 2223.9 3827.34 2238.44 3828.41 2248.57C3832.41 2286.44 3866.54 2302.04 3904.14 2283.1C3911.48 2279.37 3911.74 2278.97 3911.74 2273.9C3911.74 2270.97 3911.48 2268.57 3911.08 2268.57C3910.81 2268.57 3906.28 2270.84 3900.94 2273.5C3883.08 2282.97 3864.68 2280.84 3855.74 2268.3C3851.48 2262.44 3848.41 2253.64 3847.21 2244.17L3846.41 2237.9H3878.54C3906.41 2237.9 3910.54 2237.64 3911.34 2235.77C3912.54 2232.7 3909.34 2215.64 3906.54 2210.17C3899.48 2196.17 3882.54 2188.97 3865.48 2192.57ZM3883.88 2204.7C3888.28 2207.77 3891.74 2216.04 3891.74 2223.24V2228.57H3869.61H3847.48L3848.41 2224.17C3852.41 2204.97 3870.41 2195.1 3883.88 2204.7Z" fill="#E6E8E9"/>
<path d="M4009.21 2192.57C4000.81 2194.3 3994.54 2198.04 3989.88 2203.77C3986.28 2208.17 3985.74 2210.04 3985.34 2218.7L3984.81 2228.7L3990.54 2234.3C3993.88 2237.37 4002.54 2243.1 4010.14 2247.1C4026.01 2255.5 4030.41 2259.77 4030.41 2267.24C4030.41 2278.04 4019.21 2285.1 4006.81 2282.04C3996.41 2279.37 3994.94 2277.9 3993.88 2268.7L3992.94 2260.57H3987.61H3982.28L3982.68 2273.5L3983.08 2286.3L3988.41 2288.17C3997.08 2291.37 4016.54 2291.9 4025.48 2289.37C4039.21 2285.37 4047.61 2274.7 4047.74 2261.24C4047.74 2249.64 4042.28 2243.9 4020.41 2232.84C4006.28 2225.77 4002.41 2221.9 4002.41 2214.7C4002.41 2211.64 4003.34 2207.9 4004.41 2206.3C4008.41 2200.57 4020.41 2199.24 4029.61 2203.37C4033.08 2204.97 4034.41 2208.04 4034.41 2214.84C4034.41 2219.1 4034.68 2219.24 4039.74 2219.24H4045.21L4044.81 2207.64L4044.41 2196.04L4038.68 2194.44C4030.68 2192.04 4016.14 2191.24 4009.21 2192.57Z" fill="#E6E8E9"/>
<path d="M4098.94 2192.57C4085.08 2195.5 4073.08 2204.84 4066.81 2217.77C4063.74 2224.04 4063.08 2227.37 4062.68 2239.5C4061.74 2263.5 4068.41 2277.1 4085.34 2285.77C4101.08 2293.77 4117.88 2292.97 4137.34 2283.1C4144.81 2279.37 4145.08 2279.1 4145.08 2273.77C4145.08 2270.84 4144.68 2268.57 4144.14 2268.84C4143.48 2268.97 4138.94 2271.37 4133.74 2273.9C4125.21 2278.17 4123.48 2278.57 4112.94 2278.57C4102.14 2278.57 4100.94 2278.3 4095.48 2274.57C4087.74 2269.1 4082.41 2258.44 4081.48 2246.7L4080.68 2237.9L4112.54 2237.64L4144.41 2237.24L4144.14 2228.17C4143.88 2218.97 4141.08 2210.7 4135.74 2203.24C4130.01 2195.24 4111.74 2189.9 4098.94 2192.57ZM4116.81 2204.17C4121.08 2206.84 4125.08 2215.9 4125.08 2222.84V2228.57H4103.08H4081.21L4082.01 2224.17C4085.48 2205.9 4103.48 2195.5 4116.81 2204.17Z" fill="#E6E8E9"/>
<path d="M4168.15 2195.37C4156.95 2198.97 4155.75 2199.64 4155.75 2202.57C4155.75 2205.64 4156.28 2205.9 4162.28 2205.9H4168.81L4169.35 2238.17C4170.01 2278.04 4171.48 2282.84 4184.41 2288.7C4194.68 2293.5 4208.95 2290.97 4222.41 2281.9L4228.41 2277.9L4228.81 2283.24L4229.21 2288.57H4244.55C4259.75 2288.57 4259.75 2288.57 4259.75 2285.37C4259.75 2282.7 4258.95 2282.04 4253.88 2281.37C4250.41 2280.84 4247.61 2279.64 4247.21 2278.44C4246.81 2277.24 4246.41 2257.24 4246.41 2233.77V2191.24H4243.61C4242.01 2191.24 4234.81 2193.1 4227.61 2195.24C4215.61 2198.97 4214.41 2199.64 4214.41 2202.57C4214.41 2205.77 4214.81 2205.9 4221.75 2205.9H4229.08V2239.1V2272.44L4221.48 2275.24C4215.61 2277.37 4211.61 2278.04 4205.48 2277.64C4195.88 2276.97 4191.21 2273.77 4189.08 2266.04C4188.41 2263.37 4187.75 2245.5 4187.75 2226.17V2191.24L4184.15 2191.37C4182.01 2191.37 4174.81 2193.24 4168.15 2195.37Z" fill="#E6E8E9"/>
<path d="M4297.21 2192.57C4288.95 2194.3 4282.55 2198.04 4277.88 2203.77C4274.55 2207.77 4273.75 2210.17 4273.35 2217.1C4272.41 2231.1 4276.68 2236.04 4300.01 2248.17C4313.88 2255.24 4318.41 2260.04 4318.41 2267.24C4318.41 2278.04 4307.21 2285.1 4294.81 2282.04C4284.41 2279.37 4282.95 2277.9 4281.88 2268.7L4280.95 2260.57H4276.41H4271.75V2273.64V2286.84L4276.81 2288.44C4285.61 2291.37 4304.95 2291.9 4313.48 2289.37C4327.08 2285.37 4335.61 2274.7 4335.75 2261.5C4335.75 2249.5 4331.35 2244.7 4310.68 2234.04C4295.21 2226.17 4290.41 2221.37 4290.41 2214.04C4290.41 2204.17 4300.68 2198.57 4312.81 2201.9C4320.41 2203.9 4322.41 2206.3 4322.41 2213.37V2219.24H4327.75H4333.21L4332.81 2207.64L4332.41 2196.17L4327.61 2194.44C4320.95 2192.17 4304.28 2191.1 4297.21 2192.57Z" fill="#E6E8E9"/>
<path d="M4531.75 2195.1C4521.61 2198.44 4520.41 2199.1 4520.01 2202.3C4519.61 2205.77 4519.75 2205.9 4526.28 2205.9H4533.08L4532.81 2242.84L4532.41 2279.9L4526.15 2281.1C4520.68 2282.17 4519.75 2282.84 4519.75 2285.5V2288.57H4542.41H4565.08V2285.37C4565.08 2282.7 4564.28 2282.17 4559.48 2281.5C4556.41 2281.1 4553.08 2279.64 4552.15 2278.44C4550.81 2276.57 4550.41 2266.04 4550.41 2233.64V2191.24L4546.81 2191.37C4544.68 2191.5 4538.01 2193.1 4531.75 2195.1Z" fill="#E6E8E9"/>
<path d="M4629.74 2193.37C4627.61 2194.44 4622.01 2199.1 4617.48 2203.64L4609.08 2211.77V2202.84C4609.08 2194.04 4609.08 2193.9 4605.48 2193.9C4603.34 2193.9 4596.41 2195.64 4589.74 2197.64C4579.88 2200.7 4577.61 2201.9 4577.34 2204.17C4576.94 2206.84 4577.61 2207.1 4584.01 2207.5L4591.08 2207.9L4591.48 2242.7C4591.88 2281.64 4592.14 2280.17 4582.41 2281.5C4577.88 2282.17 4577.08 2282.7 4577.08 2285.37V2288.57H4601.74H4626.41V2285.37C4626.41 2282.57 4625.74 2282.17 4619.08 2281.5C4615.08 2281.1 4611.21 2280.44 4610.41 2279.9C4609.61 2279.37 4609.08 2268.44 4609.08 2249.9V2220.84L4615.21 2215.37C4623.21 2208.44 4629.08 2207.24 4636.28 2211.1C4639.34 2212.57 4643.08 2213.9 4644.81 2213.9C4647.61 2213.9 4647.74 2213.37 4647.74 2204.04V2194.17L4641.88 2192.7C4634.41 2190.84 4634.54 2190.84 4629.74 2193.37Z" fill="#E6E8E9"/>
<path d="M4693.61 2192.57C4679.21 2195.5 4667.88 2204.7 4661.61 2218.3C4658.01 2225.9 4657.75 2227.77 4657.75 2242.57C4657.75 2257.1 4658.01 2259.24 4661.21 2266.04C4672.68 2290.57 4701.75 2298.17 4730.41 2284.17C4738.81 2280.04 4739.08 2279.77 4739.48 2274.17C4739.75 2271.1 4739.61 2268.57 4739.21 2268.57C4738.81 2268.57 4734.55 2270.7 4729.61 2273.5C4722.41 2277.5 4719.08 2278.44 4711.08 2278.97C4699.35 2279.64 4693.61 2278.04 4687.08 2271.64C4680.81 2265.64 4677.08 2256.97 4676.15 2246.3L4675.35 2237.9H4707.61H4739.75V2232.17C4739.75 2223.5 4736.15 2211.77 4731.61 2204.97C4724.68 2195.1 4708.01 2189.5 4693.61 2192.57ZM4711.35 2204.04C4715.75 2206.84 4719.75 2215.64 4719.75 2222.57V2228.57H4697.88H4676.01L4677.21 2223.1C4677.88 2220.04 4679.35 2216.04 4680.28 2214.04C4686.28 2202.7 4701.61 2197.77 4711.35 2204.04Z" fill="#E6E8E9"/>
<path d="M4765.48 2195.37C4754.28 2198.97 4753.08 2199.64 4753.08 2202.57C4753.08 2205.77 4753.48 2205.9 4760.41 2205.9H4767.74V2241.1C4767.74 2260.44 4767.34 2277.24 4766.94 2278.44C4766.41 2279.77 4763.74 2280.84 4759.61 2281.37C4753.88 2282.17 4753.08 2282.57 4753.08 2285.37V2288.57H4776.41H4799.74V2285.5C4799.74 2282.84 4798.81 2282.17 4792.81 2281.1L4785.74 2279.9L4785.34 2235.5L4785.08 2191.24L4781.34 2191.37C4779.34 2191.37 4772.14 2193.24 4765.48 2195.37Z" fill="#E6E8E9"/>
<path d="M4918.28 2192.57C4904.15 2195.1 4892.01 2204.7 4885.48 2218.57C4882.01 2225.9 4881.75 2227.9 4881.75 2241.9C4881.75 2255.64 4882.15 2258.04 4885.21 2264.7C4890.01 2274.84 4897.21 2282.44 4906.15 2286.84C4912.95 2290.17 4915.21 2290.57 4927.08 2290.57C4938.95 2290.57 4941.21 2290.17 4948.01 2286.84C4982.95 2269.64 4982.81 2211.77 4947.88 2196.04C4939.48 2192.3 4927.48 2190.84 4918.28 2192.57ZM4938.55 2203.64C4952.41 2212.97 4958.01 2238.44 4951.21 2261.1C4946.55 2276.44 4936.41 2284.44 4923.88 2282.57C4918.95 2281.9 4916.68 2280.44 4912.28 2275.9C4905.61 2268.97 4902.41 2260.57 4901.48 2247.1C4900.01 2227.37 4906.68 2208.57 4917.08 2202.97C4923.61 2199.64 4932.95 2199.77 4938.55 2203.64Z" fill="#E6E8E9"/>
<path d="M5017.08 2192.04C5000.94 2195.1 4992.14 2202.7 4989.88 2215.5C4987.61 2228.3 4994.01 2236.17 5015.61 2247.24C5031.21 2255.24 5035.74 2259.77 5035.74 2267.24C5035.74 2280.7 5017.74 2287.64 5004.14 2279.37C5000.54 2277.1 4999.88 2275.9 4999.08 2268.7L4998.14 2260.57H4992.94H4987.61L4988.01 2273.5L4988.41 2286.57L4993.74 2288.44C5002.68 2291.37 5022.01 2291.9 5030.81 2289.37C5047.88 2284.44 5057.48 2266.84 5051.21 2251.9C5048.81 2246.44 5041.48 2240.84 5025.88 2232.97C5010.68 2225.37 5007.74 2222.44 5007.74 2214.97C5007.74 2211.77 5008.68 2207.9 5009.74 2206.3C5013.74 2200.57 5025.74 2199.24 5034.94 2203.37C5038.14 2204.84 5039.74 2209.24 5039.74 2216.04C5039.74 2218.84 5040.41 2219.24 5045.08 2219.24H5050.54L5050.14 2207.64L5049.74 2196.04L5044.01 2194.44C5037.48 2192.44 5022.01 2191.1 5017.08 2192.04Z" fill="#E6E8E9"/>
<path d="M2022.41 2197.9C2022.41 2201.1 2022.94 2201.9 2025.48 2201.9C2032.94 2201.9 2034.68 2203.64 2047.88 2223.5L2061.21 2243.24L2046.81 2261.9C2036.81 2274.97 2031.61 2280.57 2029.74 2280.57C2023.88 2280.57 2021.08 2282.17 2021.08 2285.37V2288.57H2039.74H2058.41V2285.37C2058.41 2282.7 2057.61 2282.04 2053.08 2281.24C2050.14 2280.7 2047.74 2279.64 2047.74 2278.84C2047.74 2277.1 2066.14 2252.57 2067.48 2252.57C2069.08 2252.7 2085.21 2277.9 2084.41 2279.24C2084.01 2279.77 2081.88 2280.7 2079.74 2281.24C2076.68 2281.9 2075.74 2282.84 2075.74 2285.37V2288.57H2097.08H2118.41V2285.37C2118.41 2282.04 2116.28 2280.57 2111.08 2280.57C2108.41 2280.57 2105.21 2276.7 2093.08 2258.97C2080.28 2240.17 2078.68 2237.1 2080.01 2235.1C2080.94 2233.77 2086.81 2226.04 2093.08 2218.04C2103.61 2204.44 2104.81 2203.37 2110.14 2202.57C2115.21 2201.64 2115.74 2201.24 2115.74 2197.77V2193.9H2097.74H2079.74V2197.9C2079.74 2201.64 2080.14 2201.9 2084.41 2201.9C2087.34 2201.9 2089.48 2202.7 2089.88 2203.77C2090.28 2204.84 2086.81 2210.57 2081.61 2217.1L2072.68 2228.57L2064.94 2217.5C2060.54 2211.5 2057.21 2205.64 2057.34 2204.57C2057.61 2203.5 2059.48 2202.44 2061.48 2202.17C2064.54 2201.77 2065.08 2201.1 2065.08 2197.77V2193.9H2043.74H2022.41V2197.9Z" fill="#E6E8E9"/>
<path d="M1195.88 2269.5C1192.14 2274.04 1191.21 2278.3 1192.68 2282.84C1193.88 2286.17 1194.68 2286.57 1200.81 2286.97L1207.74 2287.37V2292.3C1207.61 2302.84 1200.41 2312.04 1190.14 2314.57C1187.34 2315.24 1186.41 2316.3 1186.41 2318.7C1186.41 2322.84 1190.14 2322.97 1199.08 2318.7C1212.68 2312.44 1219.61 2301.77 1219.74 2287.5C1219.74 2272.84 1214.81 2265.9 1204.28 2265.9C1199.74 2265.9 1198.01 2266.57 1195.88 2269.5Z" fill="#E6E8E9"/>
<path d="M5077.61 2267.9C5073.08 2270.97 5071.21 2276.97 5073.08 2282.44C5077.48 2295.77 5096.15 2293.64 5098.01 2279.64C5098.68 2274.7 5098.28 2273.64 5094.68 2269.9C5090.15 2265.37 5082.41 2264.44 5077.61 2267.9Z" fill="#E6E8E9"/>
</svg>
