<svg width="416" height="53" viewBox="0 0 416 53" fill="none" xmlns="http://www.w3.org/2000/svg">
<path d="M38.9538 0.0541497C34.4538 0.23415 29.6604 1.14082 25.3538 2.63415C22.9538 3.46748 21.2404 4.18748 18.9871 5.31415C16.3804 6.62082 15.0604 7.40748 11.5804 9.73415L11.4004 9.85415L11.1938 9.41415C10.9271 8.83415 10.3938 8.30748 9.80709 8.02748C9.38043 7.82748 9.30709 7.81415 8.62043 7.81415C7.92709 7.81415 7.86042 7.82748 7.44709 8.02748C6.63376 8.43415 6.10042 9.06082 5.88709 9.88082C5.54709 11.1941 6.17376 12.5675 7.38042 13.1408C7.60042 13.2475 7.78709 13.3608 7.78709 13.3875C7.78709 13.4075 6.44042 16.6808 4.79376 20.6542L1.80042 27.8808L1.11376 27.9142C0.320425 27.9608 0.220425 27.9942 0.0870913 28.2542C-0.106242 28.6208 0.033758 29.0475 0.393758 29.1742C0.693758 29.2808 16.6671 29.2808 16.8738 29.1742C17.2738 28.9675 17.3804 28.4675 17.0938 28.1342C16.9404 27.9542 16.9004 27.9475 16.1804 27.9142L15.4271 27.8808L12.4071 20.6208C10.7471 16.6275 9.39376 13.3542 9.40709 13.3475C9.41376 13.3408 9.52709 13.2942 9.65376 13.2475C10.7071 12.8408 11.4538 11.7541 11.4538 10.6208V10.2008L13.6404 9.32748C15.8671 8.44082 18.2138 7.58082 19.5871 7.16082C20.0071 7.02748 20.8471 6.76748 21.4538 6.58082C24.4204 5.67415 28.9271 4.70082 32.1204 4.28748C35.2404 3.88082 36.7938 3.76748 39.6538 3.73415C42.7404 3.69415 44.7804 3.78082 47.3204 4.04082C54.2738 4.76748 60.7204 6.42082 68.1138 9.38082C70.3138 10.2608 70.1138 10.1475 70.0738 10.4408C70.0271 10.7875 70.2204 11.6141 70.4271 11.9675C70.7271 12.4808 71.1738 12.9008 71.6604 13.1342L72.1071 13.3542L69.1004 20.6342L66.0871 27.9142H65.4071C64.7471 27.9142 64.7138 27.9208 64.5071 28.1075C64.2138 28.3675 64.2004 28.7608 64.4738 29.0275L64.6538 29.2142L72.8138 29.2342C77.9538 29.2408 81.0404 29.2275 81.1471 29.1875C81.5538 29.0275 81.6738 28.4342 81.3604 28.1208C81.2004 27.9608 81.1338 27.9475 80.4471 27.9142L79.7138 27.8808L76.7471 20.7475C75.1204 16.8208 73.7671 13.5542 73.7471 13.4808C73.7204 13.3742 73.7871 13.3142 74.1071 13.1675C75.2338 12.6475 75.8871 11.4341 75.7138 10.1875C75.5804 9.26748 74.9538 8.44748 74.0738 8.03415C73.2804 7.66082 72.2404 7.70748 71.4871 8.15415C71.0538 8.40748 70.5938 8.91415 70.3604 9.39415L70.1471 9.83415L68.8138 8.94082C64.4138 5.96082 60.0604 3.84082 55.1871 2.29415C53.4071 1.72748 52.8738 1.58082 51.3871 1.24748C48.3138 0.560816 46.5204 0.300816 43.4538 0.11415C41.2671 -0.0258503 41.0804 -0.0258503 38.9538 0.0541497ZM8.38709 20.6808V27.9142H5.34709C2.48042 27.9142 2.30709 27.9075 2.34042 27.7942C2.35376 27.7342 3.68042 24.5142 5.28709 20.6475C6.88709 16.7808 8.21376 13.5742 8.23376 13.5275C8.25376 13.4875 8.29376 13.4475 8.32709 13.4475C8.36043 13.4475 8.38709 16.4808 8.38709 20.6808ZM11.9071 20.5608C13.5271 24.4808 14.8671 27.7342 14.8938 27.7942C14.9338 27.9075 14.7604 27.9142 11.8938 27.9142H8.85376V20.6808C8.85376 16.7008 8.88043 13.4475 8.90709 13.4475C8.93376 13.4475 10.2871 16.6475 11.9071 20.5608ZM72.6538 20.6808V27.9142H69.6138C67.6671 27.9142 66.5871 27.8875 66.6004 27.8475C66.7604 27.3742 72.5671 13.4475 72.6071 13.4475C72.6338 13.4475 72.6538 16.7008 72.6538 20.6808ZM76.2271 20.6342C77.8538 24.5675 79.1871 27.8142 79.1871 27.8542C79.1871 27.8875 78.0138 27.9142 76.1538 27.9142H73.1204V20.6742C73.1204 15.5275 73.1404 13.4408 73.1938 13.4608C73.2338 13.4742 74.5938 16.7008 76.2271 20.6342Z" fill="#273F4B"/>
<path d="M39.3538 7.64742C37.1738 7.79409 34.9138 8.27409 32.8938 9.02742C31.8404 9.42075 29.8804 10.3808 28.9404 10.9674C19.9738 16.5741 16.0671 27.5008 19.4804 37.4341C21.1471 42.2674 24.4604 46.4408 28.8604 49.2208C29.7938 49.8074 31.6871 50.7474 32.7871 51.1608C35.4071 52.1541 37.8804 52.6008 40.7538 52.6074C42.8404 52.6074 44.3138 52.4274 46.2538 51.9408C55.4071 49.6408 62.1671 41.8474 63.1604 32.4474C63.3071 31.0341 63.2604 28.2808 63.0604 26.9674C62.5204 23.3408 61.2338 20.1141 59.1671 17.1674C55.7271 12.2741 50.3671 8.88742 44.5204 7.92075C42.8938 7.65409 40.9004 7.54742 39.3538 7.64742ZM43.5871 9.88075C45.9338 10.2474 47.7404 10.8074 49.6871 11.7541C53.6804 13.6941 56.9804 16.9474 58.9804 20.9141C60.0338 22.9941 60.6338 24.8808 61.0004 27.2474C61.1271 28.0808 61.1471 28.4808 61.1471 30.1141C61.1471 31.7541 61.1271 32.1474 60.9938 32.9808C60.4338 36.5874 59.1871 39.5741 57.0671 42.4008C56.2404 43.5074 54.5204 45.2741 53.4738 46.1008C50.7538 48.2474 47.6271 49.6474 44.2538 50.2408C43.0804 50.4474 42.2338 50.5141 40.7271 50.5141C37.4138 50.5141 34.6138 49.8541 31.6471 48.3674C26.8738 45.9874 23.2338 41.8474 21.4804 36.8141C20.3538 33.5941 20.0538 30.0474 20.6271 26.7141C21.8338 19.6474 26.6604 13.7274 33.3538 11.0941C34.8938 10.4874 36.7338 10.0208 38.2538 9.85409C38.6004 9.81409 38.9804 9.76742 39.0871 9.75409C39.6204 9.68075 42.9204 9.77409 43.5871 9.88075Z" fill="#273F4B"/>
<path d="M28.3871 14.6341C28.0404 14.9141 27.4471 15.4408 27.0738 15.8074L26.3871 16.4674V30.1141V43.7608L27.1071 44.4541C27.5004 44.8341 28.0938 45.3674 28.4204 45.6274L29.0204 46.1074L29.0404 37.8474L29.0538 29.5808L30.2938 28.3674C30.9738 27.6941 31.5538 27.1408 31.5871 27.1274C31.6404 27.1074 31.8671 27.7208 33.3538 32.0474C34.2138 34.5474 35.0471 36.9474 37.4938 43.9474C37.9404 45.2274 37.7938 45.1141 39.0604 45.1141C39.9671 45.1141 40.1338 45.1008 40.1671 45.0074C40.1871 44.9474 40.1138 44.6541 39.9938 44.3541C39.8804 44.0474 39.7871 43.7008 39.7938 43.5741C39.8004 43.2808 42.1338 36.3474 42.2204 36.3541C42.2604 36.3608 42.6671 37.4541 43.1338 38.7874C44.8871 43.8074 45.2738 44.8808 45.3338 44.9941C45.3871 45.1008 45.5071 45.1141 46.4604 45.1141C47.3071 45.1141 47.5338 45.0941 47.5604 45.0208C47.5804 44.9674 47.5004 44.6274 47.3871 44.2608L47.1738 43.5941L50.3271 34.2074C52.1338 28.8074 53.5804 24.5941 53.7271 24.3008C54.0271 23.7074 54.3138 23.4008 54.7871 23.1808C54.9671 23.0941 55.1204 22.9808 55.1204 22.9341C55.1204 22.8608 54.8938 22.8474 53.9071 22.8608C52.6338 22.8808 52.4604 22.9274 52.8404 23.1474C52.9471 23.2141 53.0871 23.3541 53.1538 23.4674C53.3938 23.8674 53.3138 24.1674 51.2938 30.1674C48.2738 39.1608 47.0271 42.7941 46.9538 42.8074C46.8871 42.8141 46.5338 41.8408 44.2204 35.2141C43.4404 32.9741 42.3138 29.7674 41.7271 28.0808C40.6404 24.9874 40.4538 24.3608 40.4538 23.8008C40.4538 23.5274 40.4804 23.4674 40.7271 23.2408C40.8804 23.1008 40.9804 22.9541 40.9538 22.9208C40.9271 22.8674 40.2071 22.8474 38.7471 22.8474C37.0071 22.8474 36.5871 22.8674 36.5871 22.9341C36.5871 22.9808 36.7004 23.0741 36.8404 23.1408C37.3338 23.3741 37.5938 23.6074 37.8538 24.0408C38.1671 24.5674 38.3404 25.0208 39.6738 28.8474C41.7938 34.9141 41.9871 35.4808 41.9871 35.6141C41.9871 35.7541 39.6338 42.7541 39.5604 42.8274C39.5404 42.8541 39.4938 42.8408 39.4604 42.8074C39.4338 42.7741 38.8604 41.1541 38.1871 39.2141C37.5204 37.2674 36.1671 33.3741 35.1804 30.5608C34.1938 27.7408 33.3871 25.4141 33.3871 25.3941C33.3871 25.3274 41.5004 17.5074 41.9204 17.1674C42.8671 16.4074 43.6204 16.0008 44.8738 15.5808C45.6604 15.3141 45.7204 15.2808 45.7204 15.1274V14.9608L44.4071 15.0008C43.6871 15.0274 42.4138 15.0474 41.5738 15.0474C40.1271 15.0474 40.0538 15.0541 40.0538 15.1741C40.0538 15.2674 40.1204 15.3074 40.3404 15.3408C41.1338 15.4608 41.6338 16.1141 41.4138 16.7541C41.3604 16.9208 41.1804 17.1474 40.9271 17.3808C40.7071 17.5808 38.0004 20.1941 34.9204 23.1808C31.8338 26.1674 29.2604 28.6141 29.2004 28.6141C29.0938 28.6141 29.0871 28.1208 29.0538 21.3674L29.0204 14.1274L28.3871 14.6341Z" fill="#273F4B"/>
<path d="M1.18711 29.9139C1.11377 29.9873 1.05377 30.1139 1.05377 30.2006C1.05377 30.4006 2.67377 32.9873 2.86711 33.0939C3.05377 33.1939 14.0804 33.2206 14.3338 33.1206C14.5538 33.0339 16.1871 30.4539 16.1871 30.1873C16.1871 29.7539 16.6471 29.7806 8.60711 29.7806C1.40711 29.7806 1.32044 29.7806 1.18711 29.9139Z" fill="#273F4B"/>
<path d="M65.4537 29.9607C65.3671 30.074 65.3271 30.194 65.3471 30.2873C65.4071 30.5073 66.9004 32.854 67.0937 33.0273L67.2604 33.1807H72.8937C76.4137 33.1807 78.5737 33.154 78.6471 33.114C78.7671 33.054 80.2937 30.734 80.4604 30.3607C80.5337 30.2007 80.5271 30.154 80.4071 29.994L80.2737 29.814L72.9337 29.794L65.6004 29.7807L65.4537 29.9607Z" fill="#273F4B"/>
<path d="M277.516 19.0833V30.8528H278.15H278.783V19.0833V7.31388H278.15H277.516V19.0833Z" fill="#273F4B"/>
<path d="M207.934 9.03473L206.478 9.47807V9.81585V10.1642H207.322H208.167V17.0147C208.167 24.7836 208.24 24.2031 207.29 24.2031C206.583 24.2031 206.457 24.2981 206.499 24.7414L206.53 25.1003L209.254 25.132L211.967 25.1531V24.7414C211.967 24.2664 211.872 24.2031 211.133 24.2031C210.214 24.2031 210.278 24.8364 210.278 16.202V8.58084L209.834 8.5914C209.581 8.5914 208.726 8.80251 207.934 9.03473Z" fill="#273F4B"/>
<path d="M217.54 9.03473L216.083 9.46751V9.81585V10.1642H216.928H217.772V17.0042C217.772 24.7731 217.846 24.2031 216.907 24.2031C216.189 24.2031 216.083 24.2664 216.083 24.7414V25.1531H218.785H221.477L221.445 24.6992L221.414 24.2559L220.759 24.2031C220.4 24.1714 220.052 24.0975 219.999 24.0447C219.925 23.9709 219.873 21.4164 219.862 16.2864L219.83 8.63362L219.408 8.61251C219.155 8.60196 218.384 8.77084 217.54 9.03473Z" fill="#273F4B"/>
<path d="M320.879 9.03436L319.422 9.46714V9.81547V10.1532L320.245 10.1849L321.058 10.2166L321.09 12.2644L321.111 14.3121L320.72 14.2383C319.897 14.0905 318.398 14.0483 317.839 14.1538C315.791 14.5338 314.324 15.8533 313.659 17.901C313.426 18.6083 313.374 18.9777 313.363 19.9277C313.352 21.2683 313.49 21.9333 313.996 23.0099C314.429 23.9177 315.084 24.6038 315.917 25.0155C316.456 25.2794 316.635 25.311 317.575 25.311C318.546 25.311 318.694 25.2794 319.337 24.9733C319.728 24.7938 320.266 24.4877 320.52 24.3188C320.784 24.1394 321.016 23.9916 321.047 23.9916C321.079 23.9916 321.111 24.2555 321.111 24.5721V25.1527H322.863H324.605L324.573 24.6988L324.541 24.2555L323.929 24.2027C323.549 24.171 323.275 24.0866 323.222 23.9916C323.159 23.8966 323.116 20.7721 323.116 16.2016V8.58047L322.726 8.59103C322.504 8.59103 321.67 8.79158 320.879 9.03436ZM320.72 15.336L321.111 15.4521V19.2838V23.1155L320.351 23.4744C319.675 23.791 319.475 23.8333 318.736 23.8333C317.986 23.8333 317.828 23.8016 317.311 23.506C316.646 23.126 316.055 22.3555 315.759 21.4583C315.495 20.6455 315.495 18.5766 315.759 17.7638C316.171 16.5394 316.941 15.6844 317.986 15.3149C318.577 15.0933 319.96 15.1144 320.72 15.336Z" fill="#273F4B"/>
<path d="M395.295 9.03431L393.838 9.46708V9.81542V10.1638H394.683H395.527V12.2326V14.3015L395.189 14.2382C394.229 14.0588 392.709 14.0482 392.002 14.2171C389.426 14.8293 387.8 17.046 387.8 19.9804C387.79 24.4032 391.052 26.6515 394.503 24.6038C394.894 24.3715 395.242 24.1393 395.274 24.0865C395.422 23.8438 395.527 24.0443 395.527 24.5721V25.1526H397.279H399.021L398.989 24.6988L398.958 24.2554L398.409 24.2238C398.113 24.2026 397.818 24.1288 397.754 24.0549C397.67 23.9599 397.628 21.5321 397.617 16.2754L397.585 8.6332L397.163 8.61208C396.91 8.60153 396.139 8.77042 395.295 9.03431ZM395.137 15.336L395.527 15.4521V19.2943V23.1365L394.82 23.4743C394.187 23.7804 393.997 23.8226 393.205 23.8226C392.16 23.8332 391.695 23.6432 391.062 22.9465C390.555 22.3765 390.26 21.796 390.08 20.941C389.542 18.376 390.598 15.8954 392.487 15.2726C393.004 15.1038 394.482 15.1354 395.137 15.336Z" fill="#273F4B"/>
<path d="M140.379 9.4883C139.809 9.79441 139.588 10.7233 139.936 11.325C140.432 12.1589 141.815 12.1694 142.248 11.325C142.332 11.1561 142.406 10.7972 142.406 10.5227C142.406 10.1111 142.353 9.98441 142.047 9.6783C141.73 9.36163 141.625 9.31941 141.181 9.31941C140.896 9.32996 140.538 9.3933 140.379 9.4883Z" fill="#273F4B"/>
<path d="M198.962 9.49895C198.223 9.9634 198.149 11.0084 198.814 11.6101C199.553 12.2962 200.714 11.9795 200.999 11.019C201.263 10.1534 200.641 9.31951 199.743 9.31951C199.469 9.31951 199.121 9.40395 198.962 9.49895Z" fill="#273F4B"/>
<path d="M227.641 9.6677C226.734 10.5755 227.335 11.9583 228.623 11.9583C229.267 11.9583 229.805 11.4516 229.879 10.7866C229.985 9.87881 229.446 9.31936 228.475 9.31936C228.064 9.31936 227.937 9.37214 227.641 9.6677Z" fill="#273F4B"/>
<path d="M301.066 9.97418C301.024 10.1114 299.852 13.2781 298.469 17.0253C297.097 20.7725 295.946 23.8547 295.925 23.8759C295.904 23.897 295.619 23.9709 295.281 24.0342L294.669 24.1609L294.637 24.657L294.606 25.1531L296.854 25.132L299.102 25.1003L299.134 24.6675C299.166 24.1714 299.06 24.0975 298.237 24.0975C297.846 24.0975 297.466 23.897 297.466 23.6964C297.466 23.6542 297.804 22.7253 298.205 21.6275C298.617 20.5297 298.944 19.6114 298.944 19.5903C298.944 19.5797 300.116 19.5586 301.562 19.5586H304.169L304.94 21.6064C305.372 22.7359 305.7 23.7386 305.679 23.8547C305.657 23.992 305.541 24.0553 305.277 24.0764C304.264 24.1503 304.222 24.1714 304.222 24.6781V25.1531H306.871H309.51L309.479 24.657L309.447 24.1503L308.835 24.0447C308.486 23.992 308.18 23.8653 308.127 23.7809C308.064 23.6542 303.367 11.2514 302.934 10.027C302.829 9.75251 302.807 9.74196 301.995 9.74196C301.224 9.74196 301.15 9.76307 301.066 9.97418ZM302.723 15.6742L303.779 18.5031H301.562C299.493 18.5031 299.345 18.4925 299.419 18.3131C299.461 18.2181 299.947 16.9092 300.506 15.4103C301.055 13.9114 301.541 12.7292 301.583 12.7714C301.625 12.8136 302.142 14.1225 302.723 15.6742Z" fill="#273F4B"/>
<path d="M92.4464 10.1325C92.4042 10.1642 92.3725 10.3753 92.3725 10.5864C92.3725 10.9453 92.4042 10.9875 92.6997 11.0508C92.8792 11.0825 93.1853 11.1142 93.3858 11.1142C94.0931 11.1142 94.0614 10.787 94.0614 17.6059C94.0614 24.4247 94.0931 24.0975 93.3858 24.0975C93.1853 24.0975 92.8792 24.1292 92.6997 24.1609C92.3831 24.2242 92.3619 24.2559 92.3936 24.6675L92.4253 25.1003L95.2542 25.132L98.0725 25.1531V24.6886C98.0725 24.2559 98.0514 24.2242 97.7453 24.1609C97.5658 24.1292 97.2281 24.0975 97.0064 24.0975C96.2992 24.0975 96.2675 23.992 96.2992 21.0259L96.3308 18.4503H97.1225H97.9036L99.9936 21.4481C101.693 23.8864 102.084 24.5092 102.084 24.8047V25.1531H104.036H105.989V24.6886C105.989 24.2559 105.968 24.2242 105.662 24.1609C105.483 24.1292 105.124 24.0975 104.87 24.0975C104.321 24.0975 104.638 24.4881 101.619 20.0547L99.3286 16.6981L101.609 13.9642C102.918 12.4125 103.994 11.2197 104.121 11.1775C104.248 11.1458 104.501 11.1142 104.67 11.1142C105.345 11.1036 105.461 11.0192 105.461 10.5231V10.0586H103.086H100.711V10.5231C100.711 11.0297 100.828 11.1142 101.514 11.1142C101.946 11.1142 102.158 11.3464 101.957 11.6208C101.883 11.7264 100.754 13.1092 99.4553 14.6925C97.1014 17.5636 97.0908 17.5636 96.7108 17.532L96.3308 17.5003L96.2992 14.5553C96.2675 11.1881 96.2886 11.1142 97.0064 11.1142C97.2281 11.1142 97.5658 11.0825 97.7453 11.0508C98.0514 10.9875 98.0725 10.9558 98.0725 10.5231V10.0586H95.2964C93.7658 10.0586 92.4781 10.0903 92.4464 10.1325Z" fill="#273F4B"/>
<path d="M172.668 10.1323C172.531 10.2589 172.594 10.9873 172.742 11.04C172.816 11.0717 173.112 11.135 173.376 11.1667C173.745 11.23 173.893 11.3039 173.956 11.4728C174.009 11.5889 174.843 14.7978 175.814 18.5767L177.587 25.4695H178.389H179.192L180.976 19.4211C181.957 16.1067 182.791 13.32 182.823 13.2461C182.865 13.1723 183.731 15.8745 184.754 19.2628L186.602 25.4167H187.436H188.259L189.927 18.5028C190.834 14.7028 191.626 11.515 191.679 11.4306C191.732 11.3461 191.953 11.2406 192.186 11.1984C193.136 11.0084 193.083 11.04 193.051 10.5545L193.019 10.1111L190.782 10.0795L188.533 10.0584V10.5228C188.533 11.0506 188.618 11.1139 189.336 11.1139C189.874 11.1139 190.222 11.2617 190.222 11.4728C190.222 11.6628 187.794 21.9123 187.731 21.9756C187.678 22.0389 187.742 22.2606 185.894 16.075C184.966 12.9717 184.174 10.3434 184.142 10.2378C184.089 10.0795 183.973 10.0584 183.234 10.0795L182.39 10.1111L181.398 13.3834C180.859 15.1778 180.068 17.7956 179.646 19.1784C179.107 20.9834 178.864 21.6378 178.801 21.5006C178.653 21.1311 176.183 11.6628 176.183 11.4517C176.183 11.2089 176.373 11.1139 176.901 11.1139C177.661 11.1139 177.767 11.0295 177.767 10.5228V10.0584H175.254C173.872 10.0584 172.7 10.09 172.668 10.1323Z" fill="#273F4B"/>
<path d="M113.621 14.2172C112.175 14.5866 111.035 15.5049 110.38 16.8349C108.892 19.8538 109.863 23.6011 112.449 24.8149C114.18 25.6383 115.922 25.5538 118.044 24.5511L119.078 24.0655V23.3899V22.7249L118.202 23.1999C116.946 23.8755 116.513 24.0022 115.5 24.0022C114.719 24.0022 114.529 23.9599 113.948 23.6749C112.692 23.0627 112.069 21.9333 111.848 19.8961L111.774 19.2416H115.436H119.11L119.057 18.2072C118.962 16.3811 118.276 15.1883 116.935 14.5022C116.313 14.1749 116.133 14.1433 115.204 14.1116C114.581 14.0905 113.959 14.1327 113.621 14.2172ZM115.436 15.2411C116.281 15.4733 116.861 16.4655 116.861 17.6794V18.2916H114.423H111.974L112.027 17.7638C112.059 17.4683 112.217 16.9616 112.386 16.6344C113.009 15.4311 114.18 14.8927 115.436 15.2411Z" fill="#273F4B"/>
<path d="M139.714 14.492L138.448 14.8931L138.416 15.2625L138.384 15.6425L139.155 15.6742L139.925 15.7058L139.957 19.7064C139.989 24.372 140.031 24.1714 139.06 24.2242L138.448 24.2559L138.416 24.6992L138.384 25.1531H140.981H143.578L143.546 24.6992L143.514 24.2559L142.849 24.2031C142.427 24.1714 142.153 24.0975 142.089 23.992C142.026 23.897 141.984 21.8386 141.984 18.9464V14.0697L141.488 14.0803C141.203 14.0803 140.411 14.2703 139.714 14.492Z" fill="#273F4B"/>
<path d="M153.806 14.3125C153.426 14.4497 152.729 14.7664 152.254 14.9986L151.378 15.442V14.9142V14.3864H150.85C150.523 14.3864 149.805 14.5447 149.056 14.777L147.789 15.1675V15.5158V15.8536L148.56 15.8853L149.32 15.917L149.351 19.812C149.383 24.3614 149.415 24.1714 148.454 24.2242L147.842 24.2559L147.81 24.6992L147.779 25.1531H150.27H152.761L152.729 24.6992L152.698 24.2559L152.138 24.2031C151.811 24.1714 151.536 24.0764 151.484 23.992C151.42 23.897 151.378 22.1975 151.378 20.0653V16.297L151.99 16.0753C153.31 15.5792 154.524 15.5581 155.199 16.0014C155.389 16.1281 155.653 16.4447 155.79 16.7086C156.012 17.1625 156.023 17.2575 156.023 20.5825C156.023 23.1792 155.991 24.0025 155.896 24.0659C155.822 24.1081 155.526 24.1714 155.231 24.2031L154.703 24.2559L154.671 24.6992L154.64 25.1531H157.078H159.516L159.485 24.6992L159.453 24.2559L158.925 24.2242C158.64 24.2031 158.345 24.1397 158.281 24.087C158.186 24.0131 158.144 22.9575 158.113 20.2659C158.06 16.107 158.018 15.8431 157.331 15.0408C156.783 14.397 156.234 14.1436 155.284 14.1014C154.65 14.0697 154.355 14.112 153.806 14.3125Z" fill="#273F4B"/>
<path d="M198.276 14.5025L196.978 14.9247V15.2836V15.6531H197.769H198.561V19.7381C198.561 22.1342 198.519 23.897 198.456 23.992C198.392 24.0975 198.118 24.1714 197.696 24.2031L197.031 24.2559L196.999 24.7097L196.967 25.1531L199.585 25.132L202.203 25.1003L202.234 24.7414C202.277 24.2981 202.15 24.2031 201.453 24.2031C200.514 24.2031 200.567 24.5197 200.567 18.9464V14.0697L200.071 14.0803C199.786 14.0803 198.983 14.2808 198.276 14.5025Z" fill="#273F4B"/>
<path d="M227.167 14.4814L225.953 14.872L225.921 15.2625L225.889 15.6531H226.628H227.378V19.812C227.378 23.0631 227.346 23.992 227.24 24.0764C227.167 24.1397 226.818 24.2031 226.48 24.2242L225.847 24.2559V24.6781V25.1003L228.465 25.132L231.083 25.1531L231.051 24.7097L231.019 24.2559L230.386 24.2242C230.048 24.2031 229.7 24.1397 229.626 24.0764C229.52 23.992 229.489 22.9153 229.489 19.0203V14.0697L228.94 14.0803C228.613 14.0908 227.874 14.2597 227.167 14.4814Z" fill="#273F4B"/>
<path d="M239.569 14.1326C239.453 14.1537 239.094 14.2276 238.778 14.291C237.965 14.4493 236.962 14.956 236.571 15.3887C236.213 15.8004 235.98 16.4971 236.086 16.8876C236.17 17.236 236.529 17.3415 237.574 17.3415H238.461V16.3915C238.461 15.2515 238.503 15.2093 239.833 15.146C240.614 15.1143 240.794 15.146 241.205 15.3571C241.891 15.7054 242.155 16.2754 242.155 17.4154V18.281L241.765 18.3865C241.543 18.4393 240.963 18.5871 240.466 18.7137C237.796 19.3893 236.329 20.1598 235.801 21.1837C235.453 21.8593 235.484 23.0415 235.864 23.8226C236.614 25.3426 238.387 25.786 240.276 24.9098C240.72 24.7093 241.3 24.3926 241.564 24.2132C241.818 24.0337 242.081 23.886 242.134 23.886C242.187 23.886 242.293 24.171 242.356 24.5193L242.483 25.1526H244.119H245.755L245.723 24.6987L245.692 24.2554L245.111 24.2026C244.794 24.171 244.467 24.1076 244.404 24.0654C244.298 24.0021 244.266 23.1893 244.266 20.6348C244.266 17.1726 244.182 16.2121 243.844 15.5576C243.57 15.0193 243.021 14.5337 242.472 14.3226C242.008 14.1537 240.044 14.0271 239.569 14.1326ZM242.134 21.1098L242.103 23.0943L241.205 23.5482C239.253 24.5298 237.933 24.0865 237.754 22.3765C237.616 21.0148 238.598 20.1493 241.142 19.3998C241.606 19.2626 242.029 19.1465 242.081 19.1465C242.124 19.136 242.145 20.0226 242.134 21.1098Z" fill="#273F4B"/>
<path d="M255.582 14.3336C255.16 14.4814 254.474 14.777 254.051 14.9986C253.629 15.2097 253.26 15.3997 253.218 15.4208C253.165 15.442 253.133 15.2203 253.133 14.9247V14.3864H252.637C252.352 14.3864 251.56 14.5553 250.843 14.777L249.544 15.1781V15.5158V15.8642H250.336H251.128V19.8436C251.128 22.1764 251.085 23.897 251.022 23.992C250.959 24.0975 250.684 24.1714 250.262 24.2031L249.597 24.2559L249.565 24.6992L249.534 25.1531H252.078H254.621L254.59 24.6992L254.558 24.2559L254.009 24.2242C253.101 24.1714 253.133 24.3086 253.133 20.0653V16.392L253.376 16.2442C253.872 15.9275 254.78 15.7164 255.614 15.7058C256.701 15.7058 257.197 15.9381 257.545 16.6031C257.767 17.057 257.778 17.152 257.778 20.5192C257.778 23.1792 257.746 23.992 257.64 24.0764C257.566 24.1397 257.271 24.2031 256.986 24.2242L256.458 24.2559L256.426 24.7097L256.395 25.1531L258.854 25.132L261.314 25.1003V24.6781V24.2559L260.712 24.2031C260.385 24.1714 260.058 24.0975 260.005 24.0447C259.941 23.9814 259.889 22.4297 259.868 20.1392L259.836 16.3392L259.488 15.6214C259.097 14.8297 258.664 14.4392 257.925 14.2175C257.197 14.0064 256.458 14.0381 255.582 14.3336Z" fill="#273F4B"/>
<path d="M347.489 14.2594C345.716 14.7239 344.354 16.1489 343.858 18.0489C343.647 18.8405 343.657 20.6033 343.858 21.4055C344.354 23.3267 345.694 24.7305 347.51 25.2055C348.259 25.4061 349.621 25.4061 350.402 25.2055C352.249 24.72 353.59 23.295 354.107 21.2472C354.244 20.73 354.266 20.2761 354.223 19.4C354.171 18.2178 354.002 17.5528 353.516 16.6028C353.21 15.9905 352.123 14.9244 351.511 14.6289C350.349 14.0589 348.798 13.9216 347.489 14.2594ZM350.107 15.3255C351.268 15.9166 351.933 17.5105 351.933 19.7166C351.933 21.4372 351.574 22.6617 350.814 23.5589C350.001 24.53 348.397 24.6672 347.426 23.8333C346.908 23.39 346.391 22.44 346.18 21.5533C345.948 20.5611 345.969 18.7244 346.233 17.7322C346.571 16.3705 347.331 15.3889 348.217 15.1355C348.766 14.9878 349.611 15.0722 350.107 15.3255Z" fill="#273F4B"/>
<path d="M362.172 14.2593C360.842 14.6182 359.828 15.4732 359.459 16.5288C359.195 17.3204 359.227 18.5132 359.522 19.2099C359.881 20.0332 361.19 21.1415 361.802 21.1415C362.024 21.1415 362.003 21.2154 361.644 21.6693C360.979 22.5138 360.747 23.4849 361.053 24.2027C361.106 24.3293 361.011 24.3927 360.673 24.4877C359.533 24.7938 358.794 25.7965 358.794 27.0421C358.794 27.9393 359.121 28.6465 359.797 29.2482C360.514 29.8816 361.253 30.1349 362.604 30.1982C364.716 30.2932 366.436 29.6599 367.682 28.3299C368.473 27.5065 368.716 26.9365 368.716 25.9654C368.716 24.266 367.038 23.3054 363.533 22.9888C362.763 22.9149 362.721 22.9043 362.668 22.6299C362.604 22.3449 362.71 21.6904 362.847 21.4688C362.889 21.4054 363.196 21.3527 363.523 21.3527C365.233 21.3527 366.901 20.4027 367.449 19.1149C367.787 18.3127 367.777 17.236 367.407 16.4443C367.259 16.1065 367.133 15.8215 367.133 15.8004C367.133 15.7793 367.629 15.7582 368.241 15.7582H369.349V15.2304V14.7027H367.829C366.447 14.7027 366.246 14.6815 365.592 14.4282C364.621 14.0588 363.164 13.9849 362.172 14.2593ZM363.987 15.0193C365.771 15.5154 366.204 18.7138 364.663 20.0543C363.998 20.6454 362.879 20.6032 362.203 19.9593C361.475 19.2627 361.179 17.7743 361.528 16.571C361.707 15.9377 362.309 15.2621 362.858 15.0721C363.375 14.8927 363.491 14.8821 363.987 15.0193ZM364.336 24.7938C365.444 24.9732 366.299 25.3532 366.616 25.7965C367.281 26.736 366.468 28.4143 365.053 29.0266C364.547 29.2377 363.111 29.2693 362.552 29.0688C361.992 28.8788 361.232 28.161 360.979 27.591C360.483 26.4827 360.916 25.2793 362.013 24.6882C362.362 24.5088 362.657 24.5193 364.336 24.7938Z" fill="#273F4B"/>
<path d="M376.918 14.2277C376.168 14.3861 375.25 14.7555 374.722 15.1355C374.31 15.4205 373.994 16.0644 373.994 16.5922C373.994 17.2149 374.237 17.3416 375.44 17.3416H376.422V16.3599V15.3677L376.833 15.2516C377.34 15.0933 378.533 15.0933 378.923 15.2411C379.683 15.5261 380.021 16.1383 380.095 17.3627L380.148 18.2811L379.842 18.3444C377.562 18.8616 375.63 19.5161 374.754 20.0861C373.73 20.7405 373.403 21.4055 373.487 22.6616C373.593 24.2344 374.574 25.2266 376.126 25.3427C377.065 25.4061 378.047 25.0999 379.219 24.3611L380.105 23.8016L380.243 24.4561L380.38 25.0999L382.048 25.1316L383.715 25.1633L383.684 24.7094L383.652 24.2555L382.998 24.2027C382.639 24.1711 382.312 24.1077 382.259 24.0655C382.217 24.0127 382.153 22.2288 382.122 20.1072L382.069 16.2333L381.752 15.5999C381.383 14.8505 380.739 14.3649 379.905 14.1855C379.198 14.0377 377.804 14.0588 376.918 14.2277ZM380.095 21.0994L380.063 23.0733L379.272 23.4744C377.857 24.2027 376.949 24.2661 376.263 23.6644C375.64 23.1155 375.45 22.0177 375.852 21.2472C376.179 20.5927 377.15 20.0122 378.744 19.5055C379.24 19.3472 379.694 19.2099 379.747 19.1888C380.116 19.0622 380.116 19.1044 380.095 21.0994Z" fill="#273F4B"/>
<path d="M407.275 14.2175C405.386 14.682 403.972 16.1808 403.486 18.2497C403.359 18.7881 403.328 19.2736 403.37 20.0864C403.454 21.7014 403.866 22.7781 404.805 23.802C406.621 25.7864 410.136 25.9131 412.163 24.0659C413.366 22.9681 413.915 21.5958 413.915 19.717C413.915 18.4186 413.683 17.5003 413.144 16.5397C412.785 15.8958 411.783 14.9247 411.17 14.6081C410.189 14.1014 408.458 13.9325 407.275 14.2175ZM409.429 15.1781C410.326 15.442 411.044 16.3814 411.424 17.7747C411.814 19.1997 411.624 21.5853 411.033 22.757C410.643 23.5064 410.02 24.087 409.376 24.2664C407.824 24.7203 406.494 23.7914 405.914 21.8597C405.608 20.8464 405.629 18.5031 405.945 17.5003C406.347 16.2442 406.959 15.4842 407.867 15.1675C408.373 14.9881 408.785 14.9881 409.429 15.1781Z" fill="#273F4B"/>
<path d="M123.089 14.7979V15.2096L123.67 15.2518C123.986 15.2835 124.261 15.3257 124.282 15.3468C124.303 15.3679 125.095 17.5002 126.045 20.0863C126.984 22.6724 127.808 24.8679 127.86 24.9735C127.945 25.1318 128.071 25.1529 128.652 25.1318L129.338 25.1002L131.28 20.2552C132.336 17.5952 133.233 15.389 133.265 15.3574C133.296 15.3257 133.56 15.2835 133.856 15.2518L134.384 15.199V14.7979V14.3863H132.484H130.584V14.8085V15.2307H131.048C131.66 15.2307 131.85 15.3152 131.85 15.5685C131.85 15.7796 129.254 22.4929 129.116 22.6407C129.053 22.7146 126.573 15.8957 126.573 15.6318C126.573 15.3574 126.826 15.2307 127.385 15.2307H127.945V14.8085V14.3863H125.517H123.089V14.7979Z" fill="#273F4B"/>
<path d="M328.309 14.777C328.341 15.1781 328.341 15.1781 328.911 15.252C329.217 15.2836 329.513 15.3575 329.555 15.4103C329.597 15.4525 330.442 17.6692 331.413 20.3186L333.197 25.1531H333.893H334.601L336.522 20.3186C337.588 17.6692 338.496 15.4525 338.538 15.3997C338.58 15.347 338.865 15.2836 339.15 15.252L339.688 15.1992V14.7981V14.3864H337.725H335.772L335.804 14.777L335.836 15.1781L336.406 15.2308C336.775 15.2625 337.018 15.347 337.081 15.4525C337.166 15.5897 336.881 16.4342 335.836 19.0942C335.086 21.0047 334.442 22.6092 334.411 22.6514C334.326 22.7464 331.867 15.9064 331.877 15.5897C331.877 15.3047 332.057 15.2308 332.732 15.2308H333.249V14.8086V14.3864H330.758H328.278L328.309 14.777Z" fill="#273F4B"/>
<path d="M178.484 33.4916C178.294 33.6077 176.606 35.5394 176.606 35.6449C176.606 35.6766 176.732 35.7083 176.88 35.7083C177.049 35.7083 177.619 35.4127 178.252 35.0116C179.297 34.3466 179.35 34.2938 179.35 33.956C179.35 33.6605 179.297 33.576 179.076 33.4916C178.748 33.3649 178.717 33.3649 178.484 33.4916Z" fill="#273F4B"/>
<path d="M239.918 33.6185C239.369 33.7874 239.2 33.8824 239.2 34.0301C239.2 34.199 239.284 34.2307 239.675 34.2307H240.15V38.0835C240.15 41.7779 240.139 41.9362 239.949 42.0418C239.833 42.0946 239.622 42.1474 239.474 42.1474C239.274 42.1474 239.2 42.2001 239.2 42.3585C239.2 42.559 239.274 42.5696 240.73 42.5696C242.187 42.5696 242.261 42.559 242.261 42.3585C242.261 42.1896 242.187 42.1474 241.913 42.1474C241.723 42.1474 241.512 42.0946 241.438 42.0207C241.343 41.9257 241.311 40.8068 241.311 37.6401V33.3862L240.973 33.3968C240.783 33.4074 240.308 33.5024 239.918 33.6185Z" fill="#273F4B"/>
<path d="M293.645 33.629C293.107 33.7979 292.927 33.8929 292.927 34.0407C292.927 34.199 293.012 34.2307 293.402 34.2307H293.877V38.4001V42.5696H295.229C296.791 42.5696 297.435 42.4218 298.121 41.9046C299.387 40.9546 299.651 38.5057 298.617 37.2496C297.952 36.4579 296.78 36.2257 295.651 36.6585C295.345 36.7746 295.081 36.8696 295.07 36.8696C295.049 36.8696 295.039 36.0885 295.039 35.1279V33.3862L294.701 33.3968C294.511 33.4074 294.036 33.5129 293.645 33.629ZM297.213 37.4712C297.772 37.8724 297.941 38.3579 297.941 39.5612C297.941 40.8596 297.772 41.2818 297.076 41.6935C296.717 41.9046 296.411 41.9785 295.82 42.0207L295.039 42.0735V39.6879C295.039 36.954 294.933 37.1862 296.147 37.2179C296.717 37.239 296.96 37.2918 297.213 37.4712Z" fill="#273F4B"/>
<path d="M332.384 33.6183C331.846 33.7872 331.666 33.8822 331.666 34.03C331.666 34.1778 331.761 34.2306 332.12 34.2517L332.563 34.2833L332.595 35.3917L332.627 36.5H331.487C330.146 36.5 329.745 36.6583 329.048 37.45C328.172 38.4422 327.982 40.0572 328.584 41.3345C328.943 42.1156 329.376 42.4956 330.115 42.675C330.716 42.8333 331.36 42.7067 331.993 42.3056C332.511 41.9783 332.616 41.9783 332.616 42.3056C332.616 42.5695 332.627 42.5695 333.566 42.5695C334.442 42.5695 334.516 42.5589 334.516 42.3583C334.516 42.2106 334.442 42.1472 334.295 42.1472C334.178 42.1472 333.988 42.0945 333.872 42.0417C333.682 41.9361 333.672 41.7672 333.672 37.6611V33.3861L333.387 33.3967C333.218 33.3967 332.775 33.5022 332.384 33.6183ZM332.447 37.1439C332.595 37.2072 332.616 37.4606 332.595 39.3395L332.563 41.4611L332.088 41.7039C331.202 42.1683 330.22 41.8517 329.735 40.9545C329.545 40.585 329.502 40.3422 329.502 39.5083C329.502 38.6111 329.534 38.4528 329.787 38.02C330.083 37.5239 330.431 37.2283 330.917 37.07C331.191 36.975 332.141 37.0278 332.447 37.1439Z" fill="#273F4B"/>
<path d="M376.263 33.6291C375.778 33.7874 375.514 33.9352 375.493 34.0513C375.461 34.1991 375.535 34.2307 375.936 34.2307H376.422V35.3602V36.5002H375.345C374.427 36.5002 374.194 36.5318 373.825 36.7324C373.202 37.0596 372.738 37.5663 372.421 38.2418C372.041 39.0441 372.031 40.4479 372.4 41.2713C372.854 42.2952 373.814 42.8863 374.764 42.7385C375.197 42.6646 375.936 42.3374 376.242 42.0629C376.411 41.9152 376.422 41.9257 376.422 42.2318V42.5696H377.424C378.353 42.5696 378.427 42.5591 378.427 42.3585C378.427 42.2002 378.353 42.1474 378.132 42.1474C377.973 42.1474 377.783 42.0946 377.709 42.0207C377.614 41.9257 377.583 40.8068 377.583 37.6402V33.3863L377.298 33.3968C377.129 33.3968 376.675 33.5024 376.263 33.6291ZM376.031 37.0913L376.422 37.1968V39.3607V41.5246L375.936 41.7463C375.039 42.1368 374.247 41.8941 373.709 41.0813C373.466 40.7118 373.413 40.5113 373.382 39.7302C373.339 38.9596 373.371 38.7274 373.572 38.2735C373.846 37.6296 374.152 37.3235 374.701 37.1335C375.187 36.9541 375.503 36.9435 376.031 37.0913Z" fill="#273F4B"/>
<path d="M244.604 34.6212L243.855 35.6557L244.171 35.6874C244.446 35.719 244.604 35.624 245.185 35.0646L245.86 34.4101L246.525 35.0646C247.106 35.6346 247.233 35.719 247.528 35.6874L247.866 35.6557L247.095 34.6212L246.335 33.5974H245.85H245.364L244.604 34.6212Z" fill="#273F4B"/>
<path d="M148.106 33.84C147.515 34.1355 147.599 35.0011 148.254 35.2122C149.035 35.4761 149.552 34.1672 148.792 33.8294C148.454 33.6711 148.433 33.6711 148.106 33.84Z" fill="#273F4B"/>
<path d="M186.348 33.8295C186.063 33.9668 185.894 34.4206 186.011 34.7268C186.137 35.0645 186.559 35.3073 186.887 35.2229C187.214 35.1384 187.351 34.9906 187.436 34.5895C187.541 34.0195 186.887 33.5551 186.348 33.8295Z" fill="#273F4B"/>
<path d="M263.235 33.914C263.024 34.0829 262.95 34.2307 262.95 34.4946C262.95 35.2018 263.784 35.4974 264.248 34.9485C264.808 34.294 263.921 33.3757 263.235 33.914Z" fill="#273F4B"/>
<path d="M380.359 33.8295C379.842 34.0828 379.873 34.9484 380.422 35.1701C381.003 35.4234 381.583 34.9062 381.425 34.2834C381.393 34.1462 381.309 33.9773 381.235 33.9245C381.034 33.7556 380.602 33.7028 380.359 33.8295Z" fill="#273F4B"/>
<path d="M395.253 33.8297C394.915 33.9881 394.746 34.4103 394.894 34.7586C395.147 35.3603 395.928 35.4025 396.224 34.8431C396.361 34.5792 396.361 34.4736 396.255 34.2097C396.182 34.0408 396.013 33.8508 395.875 33.7981C395.569 33.6819 395.538 33.6819 395.253 33.8297Z" fill="#273F4B"/>
<path d="M95.0958 34.22C93.9664 34.5894 93.1008 35.3389 92.6364 36.3628C91.4542 38.9489 92.6997 41.8833 95.2647 42.6222C96.0247 42.8439 97.5975 42.7911 98.4736 42.5272L99.0225 42.3478V41.3555V40.3528H98.6636C98.3153 40.3528 98.3047 40.3739 98.2308 40.8489C98.1147 41.6089 97.9986 41.8305 97.5975 41.9889C97.1225 42.1894 96.4575 42.1894 95.7608 41.9783C95.043 41.7672 94.283 41.0705 93.9453 40.3211C93.7236 39.8355 93.6919 39.6139 93.6919 38.4C93.6919 37.1861 93.7236 36.9644 93.9453 36.4789C94.283 35.7294 95.043 35.0328 95.7608 34.8217C96.4575 34.6105 96.7319 34.6105 97.418 34.8111C98.0303 35.0011 98.1358 35.1278 98.2414 35.8983C98.3047 36.4367 98.3153 36.4472 98.6636 36.4472H99.0225V35.455V34.4733L98.4208 34.2939C97.4814 34.0089 95.8347 33.9667 95.0958 34.22Z" fill="#273F4B"/>
<path d="M181.936 35.7508C181.693 36.3314 181.598 36.4475 181.239 36.5847C180.944 36.7008 180.828 36.8064 180.828 36.9647C180.828 37.1547 180.891 37.1864 181.25 37.1864H181.672V39.5614C181.672 42.0841 181.714 42.3375 182.179 42.5802C182.802 42.918 184.628 42.5908 184.628 42.1475C184.628 41.9786 184.564 41.9575 184.047 42.0102C183.329 42.0841 182.992 41.8941 182.844 41.3347C182.781 41.113 182.728 40.0891 182.728 39.0547V37.1864H183.625H184.522V36.8697V36.553H183.625H182.728V35.8141C182.728 35.1069 182.717 35.0752 182.474 35.0752C182.263 35.0752 182.179 35.1914 181.936 35.7508Z" fill="#273F4B"/>
<path d="M398.905 35.7191C398.683 36.2785 398.588 36.3946 398.198 36.5846C397.585 36.8802 397.575 37.1863 398.166 37.1863H398.588V39.5296C398.588 42.1685 398.62 42.2952 399.264 42.6118C399.633 42.7913 399.76 42.8018 400.319 42.7068C401.227 42.5485 401.544 42.4007 401.544 42.1474C401.544 41.9574 401.491 41.9468 401.079 41.9996C399.855 42.1685 399.749 41.9468 399.749 39.2446V37.1863H400.594H401.438V36.8696V36.5529H400.594H399.749V35.8141C399.749 35.0752 399.749 35.0752 399.454 35.0752C399.2 35.0752 399.137 35.1491 398.905 35.7191Z" fill="#273F4B"/>
<path d="M102.084 36.5423C101.281 36.7956 100.637 37.3762 100.279 38.1889C100.004 38.8012 99.9514 40.0256 100.162 40.7434C100.352 41.3978 100.901 42.0523 101.556 42.4112C102.052 42.6751 102.252 42.7173 102.928 42.7173C104.722 42.7173 105.884 41.5245 105.905 39.6878C105.926 37.7456 104.765 36.4367 103.034 36.4578C102.654 36.4578 102.231 36.5001 102.084 36.5423ZM103.667 37.1545C104.385 37.6506 104.659 38.4528 104.596 39.8673C104.564 40.6378 104.501 40.9228 104.3 41.2923C103.941 41.9362 103.572 42.179 102.981 42.179C102.4 42.179 102.02 41.9362 101.693 41.3451C100.986 40.0678 101.313 37.6612 102.274 37.1439C102.664 36.9223 103.35 36.9328 103.667 37.1545Z" fill="#273F4B"/>
<path d="M109.641 36.7112C109.304 36.8485 108.966 37.0174 108.913 37.0701C108.723 37.2601 108.628 37.1968 108.628 36.8696C108.628 36.479 108.522 36.4685 107.467 36.7957C106.517 37.0807 106.337 37.3657 107.066 37.4185L107.52 37.4501L107.551 39.6668C107.583 42.1051 107.572 42.1474 106.918 42.1474C106.696 42.1474 106.622 42.2001 106.622 42.3585C106.622 42.559 106.696 42.5696 108.047 42.5696C109.399 42.5696 109.472 42.559 109.472 42.3585C109.472 42.2107 109.399 42.1474 109.251 42.1474C109.135 42.1474 108.945 42.0946 108.829 42.0418C108.639 41.9362 108.628 41.799 108.628 39.8146V37.7035L108.976 37.5557C109.937 37.1546 110.707 37.2707 110.992 37.8618C111.13 38.1468 111.161 38.6007 111.161 40.0574C111.161 42.0418 111.13 42.1474 110.612 42.1474C110.391 42.1474 110.317 42.2001 110.317 42.3585C110.317 42.559 110.391 42.5696 111.689 42.5696C112.987 42.5696 113.061 42.559 113.061 42.3585C113.061 42.2212 112.987 42.1474 112.861 42.1474C112.312 42.1474 112.322 42.179 112.322 39.8146V37.619L112.871 37.4501C113.505 37.2707 113.79 37.2496 114.159 37.3974C114.676 37.5874 114.75 37.9462 114.75 40.0679C114.75 42.1474 114.75 42.1474 114.212 42.1474C114.085 42.1474 114.011 42.2212 114.011 42.3585C114.011 42.559 114.085 42.5696 115.384 42.5696C116.682 42.5696 116.756 42.559 116.756 42.3585C116.756 42.2001 116.682 42.1474 116.45 42.1474C116.281 42.1474 116.101 42.084 116.038 42.0101C115.975 41.9362 115.911 40.9968 115.89 39.7196C115.859 37.4185 115.806 37.1862 115.278 36.7112C115.088 36.5424 114.898 36.5001 114.328 36.5001C113.716 36.5001 113.515 36.5529 112.882 36.8801L112.143 37.2601L111.71 36.8485C111.33 36.5001 111.214 36.4474 110.771 36.4474C110.486 36.4474 110 36.5635 109.641 36.7112Z" fill="#273F4B"/>
<path d="M120.366 36.6054C120.176 36.6898 119.88 36.8587 119.722 36.9748C119.395 37.2071 119.289 37.1648 119.289 36.7954C119.289 36.4893 119.141 36.4893 118.128 36.7954C117.178 37.0909 116.999 37.3654 117.727 37.4182L118.181 37.4498L118.213 40.8804C118.223 42.7698 118.213 44.4165 118.181 44.5326C118.149 44.7015 118.023 44.7754 117.706 44.8282C117.379 44.8809 117.284 44.9443 117.284 45.1026C117.284 45.3032 117.358 45.3137 118.814 45.3137C120.271 45.3137 120.345 45.3032 120.345 45.1026C120.345 44.9443 120.25 44.8809 119.923 44.8282C119.669 44.7859 119.448 44.6804 119.395 44.5643C119.331 44.4587 119.289 44.0048 119.289 43.5404V42.7065L120.324 42.7171C121.495 42.7276 122.181 42.4954 122.751 41.9043C123.522 41.1126 123.828 39.4976 123.459 38.3048C123.248 37.6187 122.635 36.8798 122.097 36.6159C121.654 36.4048 120.83 36.4048 120.366 36.6054ZM121.4 37.4921C121.654 37.6187 121.865 37.8721 122.076 38.2732C122.329 38.7587 122.371 38.9804 122.371 39.6559C122.371 40.3315 122.329 40.5637 122.076 41.0704C121.664 41.8937 121.253 42.1471 120.376 42.1471C119.236 42.1471 119.289 42.2632 119.289 39.8143V37.7032L119.743 37.5026C120.303 37.2387 120.936 37.2387 121.4 37.4921Z" fill="#273F4B"/>
<path d="M127.09 37.049L126.467 37.6401V37.1018C126.467 36.4474 126.404 36.4262 125.2 36.7957C124.25 37.0807 124.071 37.3657 124.799 37.4185L125.253 37.4501L125.285 39.6668C125.316 42.1051 125.306 42.1474 124.651 42.1474C124.43 42.1474 124.356 42.2001 124.356 42.3585C124.356 42.559 124.43 42.5696 125.939 42.5696C127.449 42.5696 127.523 42.559 127.523 42.3585C127.523 42.1896 127.449 42.1474 127.164 42.1474C126.446 42.1474 126.467 42.2212 126.467 40.089V38.1574L126.91 37.8301C127.396 37.4712 127.934 37.3974 128.156 37.6612C128.23 37.7457 128.42 37.8196 128.589 37.8196C128.884 37.8196 128.895 37.809 128.895 37.239C128.895 36.5846 128.758 36.4474 128.103 36.4474C127.776 36.4474 127.618 36.5424 127.09 37.049Z" fill="#273F4B"/>
<path d="M131.164 36.69C130.51 37.0067 130.035 37.5028 129.718 38.1889C129.391 38.9067 129.38 40.2789 129.697 40.9967C130.225 42.1367 131.101 42.7172 132.325 42.7278C133.307 42.7278 133.919 42.485 134.521 41.8517C135.154 41.1656 135.376 40.49 135.313 39.3606C135.207 37.545 134.268 36.5633 132.536 36.4789C131.808 36.4367 131.618 36.4683 131.164 36.69ZM133.223 37.2494C133.74 37.6928 133.993 38.2839 134.046 39.2339C134.141 40.7961 133.655 41.915 132.8 42.1472C131.586 42.4744 130.774 41.4506 130.753 39.5611C130.753 38.7483 130.795 38.5267 131.027 38.0094C131.354 37.2917 131.798 36.975 132.452 36.975C132.769 36.975 132.98 37.0489 133.223 37.2494Z" fill="#273F4B"/>
<path d="M139.334 36.6057C139.134 36.6796 138.764 36.8379 138.521 36.9646L138.078 37.1862V36.8696C138.078 36.479 137.909 36.4685 136.864 36.7957C136.379 36.954 136.115 37.1018 136.094 37.2179C136.062 37.3657 136.136 37.3974 136.484 37.3974H136.917V39.709C136.917 42.2107 136.938 42.1474 136.326 42.1474C136.146 42.1474 136.072 42.2107 136.072 42.3585C136.072 42.559 136.146 42.5696 137.497 42.5696C138.849 42.5696 138.922 42.559 138.922 42.3585C138.922 42.2001 138.849 42.1474 138.616 42.1474C138.099 42.1474 138.067 42.0312 138.099 39.7618L138.131 37.6612L138.754 37.4607C139.503 37.2179 140.01 37.3024 140.337 37.7457C140.537 38.0201 140.559 38.2101 140.59 39.9624C140.622 41.6935 140.611 41.894 140.442 42.0101C140.337 42.084 140.147 42.1474 140.01 42.1474C139.841 42.1474 139.767 42.2107 139.767 42.3585C139.767 42.559 139.841 42.5696 141.139 42.5696C142.437 42.5696 142.511 42.559 142.511 42.3585C142.511 42.2001 142.437 42.1474 142.258 42.1474C141.709 42.1474 141.667 41.989 141.667 39.7618V37.7035L142.026 37.5557C142.606 37.3129 143.219 37.2496 143.577 37.3974C144.116 37.6296 144.2 37.9885 144.2 40.1312C144.2 42.1474 144.2 42.1474 143.662 42.1474C143.535 42.1474 143.461 42.2212 143.461 42.3585C143.461 42.559 143.535 42.5696 144.834 42.5696C146.132 42.5696 146.206 42.559 146.206 42.3585C146.206 42.2001 146.132 42.1474 145.921 42.1474C145.752 42.1474 145.572 42.1051 145.499 42.0629C145.414 42.0101 145.372 41.3135 145.34 39.8251C145.298 37.3974 145.214 37.0385 144.601 36.6585C144.084 36.3312 143.261 36.4051 142.321 36.8801L141.582 37.239L141.15 36.8485C140.78 36.5001 140.664 36.4474 140.221 36.4579C139.946 36.4579 139.545 36.5212 139.334 36.6057Z" fill="#273F4B"/>
<path d="M147.61 36.6796C147.103 36.8379 146.945 36.9329 146.945 37.0912C146.945 37.2601 147.019 37.2918 147.367 37.2918H147.789V39.6562C147.789 42.2212 147.81 42.1474 147.198 42.1474C147.019 42.1474 146.945 42.2107 146.945 42.3585C146.945 42.559 147.019 42.5696 148.423 42.5696C149.826 42.5696 149.9 42.559 149.9 42.3585C149.9 42.1896 149.826 42.1474 149.552 42.1474C149.362 42.1474 149.151 42.0946 149.077 42.0207C148.982 41.9257 148.95 41.1446 148.95 39.1707V36.4474L148.613 36.4579C148.423 36.4685 147.969 36.5635 147.61 36.6796Z" fill="#273F4B"/>
<path d="M151.98 36.5953C151.251 36.8592 150.85 37.4187 150.85 38.1892C150.85 38.9492 151.199 39.287 152.845 40.1525C153.31 40.3953 153.563 40.5959 153.669 40.8387C154.123 41.7675 152.93 42.5487 151.853 42.0314C151.589 41.9048 151.526 41.7992 151.441 41.3242C151.357 40.807 151.325 40.7753 151.051 40.7753H150.745V41.6198V42.4537L151.199 42.5803C151.959 42.802 153.257 42.7598 153.764 42.4853C154.365 42.1792 154.724 41.7148 154.809 41.1553C154.946 40.2581 154.619 39.8253 153.268 39.1287C152.244 38.6009 152.043 38.4214 151.948 37.9675C151.821 37.3025 152.624 36.817 153.426 37.0809C153.848 37.2181 154.017 37.4503 154.017 37.862C154.017 38.0942 154.059 38.1364 154.334 38.1364H154.65V37.4081V36.6798L154.186 36.5637C153.553 36.4053 152.476 36.4264 151.98 36.5953Z" fill="#273F4B"/>
<path d="M157.025 36.5844C156.434 36.8167 156.255 36.975 156.023 37.4606C155.716 38.0833 155.78 38.6639 156.202 39.1072C156.36 39.2761 156.92 39.635 157.437 39.9094C157.944 40.1839 158.461 40.5217 158.566 40.6589C158.851 41.0178 158.82 41.4506 158.461 41.8517C158.197 42.1472 158.091 42.1894 157.648 42.1894C156.941 42.1789 156.445 41.915 156.445 41.535C156.445 40.965 156.339 40.775 156.012 40.775H155.706V41.6089V42.4322L156.213 42.58C156.487 42.6644 157.068 42.7278 157.511 42.7278C158.925 42.7172 159.812 42.01 159.823 40.9017C159.823 40.0572 159.495 39.7194 157.996 38.9806C157.205 38.59 156.973 38.3472 156.973 37.8933C156.973 37.2494 157.49 36.8906 158.208 37.0278C158.862 37.1439 158.978 37.2494 158.978 37.7139C158.978 38.115 158.999 38.1361 159.295 38.1361H159.611V37.3972V36.6689L159.221 36.5633C158.693 36.4156 157.426 36.4261 157.025 36.5844Z" fill="#273F4B"/>
<path d="M162.62 36.6162C162.007 36.8273 161.501 37.2917 161.142 37.9356C160.72 38.7167 160.646 40.0151 160.973 40.8912C161.427 42.084 162.377 42.7173 163.728 42.7173C164.984 42.7173 165.892 42.1367 166.388 41.0178C166.979 39.6878 166.567 37.7562 165.512 36.9856C164.794 36.4578 163.527 36.2889 162.62 36.6162ZM164.361 37.1334C165.522 37.7351 165.776 40.6062 164.752 41.7145C164.235 42.274 163.485 42.3584 162.873 41.9256C162.166 41.4295 161.828 39.6562 162.197 38.4001C162.44 37.5345 163 36.9751 163.612 36.9751C163.855 36.9751 164.192 37.0489 164.361 37.1334Z" fill="#273F4B"/>
<path d="M176.817 36.5422C175.962 36.8061 175.244 37.5133 174.959 38.3789C174.853 38.685 174.79 39.2339 174.79 39.7194C174.79 40.7222 175.075 41.4506 175.666 41.9889C176.268 42.5378 176.753 42.7067 177.661 42.7067C178.305 42.7172 178.59 42.6539 179.192 42.4006C179.91 42.105 179.931 42.0733 179.962 41.6933L179.994 41.2922L179.329 41.6406C177.651 42.4956 176.162 41.7356 176.004 39.9306L175.941 39.2972H177.967H179.983V38.7378C179.983 38.1467 179.635 37.2706 179.287 36.9539C178.78 36.5106 177.587 36.31 176.817 36.5422ZM178.031 37.1228C178.474 37.3128 178.696 37.6506 178.78 38.2733L178.854 38.7694H177.408H175.972L176.036 38.4739C176.173 37.8511 176.458 37.45 176.922 37.2072C177.471 36.9328 177.556 36.9222 178.031 37.1228Z" fill="#273F4B"/>
<path d="M185.821 36.6901C185.346 36.8485 185.156 36.9646 185.156 37.0912C185.156 37.239 185.261 37.2918 185.609 37.3129L186.053 37.3446L186.084 39.5824C186.116 42.0418 186.084 42.1474 185.462 42.1474C185.229 42.1474 185.156 42.2001 185.156 42.3585C185.156 42.559 185.229 42.5696 186.633 42.5696C188.037 42.5696 188.111 42.559 188.111 42.3585C188.111 42.2001 188.037 42.1474 187.837 42.1474C187.689 42.1474 187.478 42.0946 187.362 42.0418C187.172 41.9362 187.161 41.7885 187.161 39.1918V36.4474L186.823 36.4579C186.633 36.4579 186.179 36.5635 185.821 36.6901Z" fill="#273F4B"/>
<path d="M190.813 36.6584C190.148 36.9223 189.557 37.4923 189.262 38.1784C188.924 38.949 188.924 40.2896 189.262 41.0601C189.547 41.7146 190.233 42.3796 190.813 42.5801C191.457 42.8018 192.502 42.749 193.231 42.4534C193.801 42.2212 193.864 42.1684 193.896 41.8623L193.927 41.5246L193.431 41.7357C192.84 41.9996 191.869 42.0312 191.415 41.7884C190.613 41.3768 190.148 40.2896 190.264 39.0968C190.328 38.3157 190.666 37.5768 191.077 37.2707C191.426 37.0068 192.006 36.8801 192.312 36.9857C192.513 37.0596 192.544 37.1546 192.544 37.5873C192.544 38.1996 192.671 38.3473 193.178 38.3473C193.843 38.3473 194.149 37.6718 193.748 37.0912C193.304 36.4684 191.848 36.2573 190.813 36.6584Z" fill="#273F4B"/>
<path d="M196.387 36.6374C195.605 36.9119 195.32 37.123 195.183 37.5558C195.004 38.0941 195.162 38.2419 195.88 38.2419H196.45V37.7141C196.45 37.2285 196.482 37.1758 196.745 37.0702C197.199 36.8908 197.907 37.0174 198.223 37.3341C198.455 37.5663 198.508 37.7035 198.508 38.1996V38.7908L197.611 39.023C196.503 39.308 195.489 39.7619 195.173 40.0996C194.824 40.4796 194.772 41.5352 195.078 42.0208C195.299 42.3797 195.996 42.7702 196.418 42.7808C196.767 42.7808 197.59 42.4852 198.065 42.1791C198.508 41.9047 198.656 41.9574 198.667 42.3797C198.667 42.5485 198.783 42.5697 199.617 42.5697C200.493 42.5697 200.567 42.5591 200.567 42.3585C200.567 42.2002 200.493 42.1474 200.282 42.1474C200.113 42.1474 199.933 42.1052 199.859 42.063C199.775 42.0102 199.733 41.3135 199.701 39.8252C199.659 37.3024 199.574 36.9858 198.835 36.648C198.265 36.3946 197.115 36.3841 196.387 36.6374ZM198.561 40.3952V41.4824L197.938 41.7674C196.957 42.2002 196.418 42.0947 196.133 41.4191C195.827 40.6696 196.26 40.0258 197.315 39.6352C197.622 39.5191 197.949 39.403 198.033 39.3713C198.54 39.1813 198.561 39.2341 198.561 40.3952Z" fill="#273F4B"/>
<path d="M206.847 36.5844C205.929 36.9433 205.359 37.5766 205.063 38.5477C204.62 40.0466 205.116 41.6722 206.214 42.3055C207.195 42.8861 208.388 42.8755 209.602 42.2738C210.119 42.0205 210.172 41.9677 210.172 41.6405C210.172 41.4505 210.14 41.3027 210.098 41.3238C210.045 41.345 209.782 41.4822 209.486 41.63C207.787 42.5272 206.362 41.7672 206.108 39.8461L206.034 39.2972H208.114H210.204L210.14 38.685C210.056 37.6611 209.486 36.8272 208.705 36.5633C208.251 36.4155 207.259 36.4261 206.847 36.5844ZM208.209 37.1227C208.61 37.2916 208.905 37.8194 208.905 38.3894V38.7694H207.533C205.982 38.7694 205.992 38.7694 206.362 37.9777C206.583 37.4816 206.868 37.2072 207.28 37.0805C207.713 36.9538 207.818 36.9538 208.209 37.1227Z" fill="#273F4B"/>
<path d="M216.453 36.7007C215.323 37.2284 214.774 38.189 214.764 39.614C214.764 40.7646 214.975 41.3346 215.65 41.9679C216.263 42.5484 216.769 42.7279 217.73 42.7173C218.342 42.7068 218.617 42.6434 219.229 42.3584C219.957 42.0207 219.989 41.9996 219.989 41.6512C219.989 41.4507 219.957 41.3029 219.915 41.324C219.862 41.3451 219.588 41.4823 219.282 41.6407C217.561 42.5484 216.104 41.704 215.957 39.7196L215.925 39.3501L217.962 39.3184L219.989 39.2973V38.8962C219.989 37.9146 219.493 37.0068 218.785 36.6584C218.152 36.3523 217.149 36.3734 216.453 36.7007ZM218.036 37.1229C218.469 37.3023 218.722 37.7562 218.722 38.3473V38.7696H217.339H215.957L216.03 38.4212C216.189 37.714 216.558 37.2496 217.097 37.0807C217.54 36.954 217.635 36.954 218.036 37.1229Z" fill="#273F4B"/>
<path d="M229.383 36.5422C228.518 36.8061 227.705 37.6083 227.473 38.4211C227.24 39.2022 227.293 40.4055 227.578 41.06C228.106 42.2633 229.33 42.9177 230.608 42.7066C230.956 42.6433 231.473 42.4955 231.737 42.3794C232.17 42.1894 232.233 42.1155 232.233 41.8411C232.233 41.6616 232.223 41.5139 232.202 41.5139C232.18 41.5139 231.959 41.6089 231.705 41.7355C230.85 42.1472 229.763 41.9994 229.214 41.3872C228.729 40.8594 228.602 40.4477 228.592 39.4555C228.592 38.6533 228.634 38.4211 228.855 37.9777C229.204 37.2811 229.689 36.9539 230.333 36.9961L230.808 37.0277L230.84 37.6083C230.882 38.2522 230.956 38.3472 231.515 38.3472C232.159 38.3472 232.455 37.6611 232.064 37.0911C231.684 36.5527 230.28 36.2677 229.383 36.5422Z" fill="#273F4B"/>
<path d="M235.041 36.6057C234.439 36.8168 233.911 37.2918 233.553 37.9357C233.299 38.4107 233.236 38.6535 233.204 39.4029C233.183 39.899 233.215 40.5007 233.278 40.7435C233.553 41.7462 234.576 42.5907 235.674 42.7385C236.276 42.8124 237.247 42.6012 237.933 42.2529C238.303 42.0629 238.355 41.989 238.355 41.6724V41.3029L237.701 41.6512C236.434 42.3162 235.189 42.0312 234.671 40.944C234.534 40.6801 234.408 40.2051 234.376 39.8779L234.313 39.2974H236.339H238.355V38.7379C238.355 38.1468 238.007 37.2707 237.659 36.954C237.099 36.4685 235.885 36.2996 235.041 36.6057ZM236.751 37.3235C236.983 37.5451 237.194 38.1046 237.194 38.5268C237.194 38.7696 237.173 38.7696 235.78 38.7696H234.365L234.439 38.4212C234.587 37.7879 234.872 37.3868 235.326 37.1757C235.854 36.9329 236.392 36.9857 236.751 37.3235Z" fill="#273F4B"/>
<path d="M244.741 36.7007C243.612 37.2284 243.063 38.189 243.053 39.614C243.053 40.7646 243.264 41.3346 243.939 41.9679C244.551 42.5484 245.058 42.7279 246.019 42.7173C246.631 42.7068 246.905 42.6434 247.518 42.3584C248.246 42.0207 248.278 41.9996 248.278 41.6512C248.278 41.4507 248.246 41.3029 248.204 41.324C248.151 41.3451 247.876 41.4823 247.57 41.6407C245.85 42.5484 244.393 41.704 244.245 39.7196L244.214 39.3501L246.251 39.3184L248.278 39.2973V38.8962C248.278 37.9146 247.781 37.0068 247.074 36.6584C246.441 36.3523 245.438 36.3734 244.741 36.7007ZM246.325 37.1229C246.758 37.3023 247.011 37.7562 247.011 38.3473V38.7696H245.639C244.087 38.7696 244.098 38.7696 244.467 37.9779C244.689 37.4818 244.974 37.2073 245.385 37.0807C245.829 36.954 245.924 36.954 246.325 37.1229Z" fill="#273F4B"/>
<path d="M252.278 36.5951C252.078 36.669 251.708 36.8379 251.465 36.9646L251.022 37.1862V36.8696C251.022 36.4685 250.822 36.4579 249.798 36.7957C248.922 37.0912 248.732 37.3974 249.428 37.3974H249.861V39.709C249.861 42.2107 249.882 42.1474 249.27 42.1474C249.09 42.1474 249.017 42.2107 249.017 42.3585C249.017 42.559 249.09 42.5696 250.389 42.5696C251.687 42.5696 251.761 42.559 251.761 42.3585C251.761 42.2212 251.687 42.1474 251.56 42.1474C251.012 42.1474 251.022 42.1685 251.022 39.8251V37.6401L251.613 37.4501C252.363 37.2179 252.964 37.2812 253.334 37.6507C253.608 37.9251 253.608 37.9357 253.64 39.899C253.672 41.6935 253.661 41.8835 253.492 42.0101C253.387 42.084 253.197 42.1474 253.059 42.1474C252.89 42.1474 252.817 42.2107 252.817 42.3585C252.817 42.559 252.89 42.5696 254.189 42.5696C255.487 42.5696 255.561 42.559 255.561 42.3585C255.561 42.2001 255.487 42.1474 255.308 42.1474C254.759 42.1474 254.717 41.989 254.717 39.7618C254.717 37.5451 254.664 37.239 254.147 36.7746C253.809 36.4579 252.869 36.3735 252.278 36.5951Z" fill="#273F4B"/>
<path d="M258.274 36.5951C257.007 37.0701 256.3 38.1362 256.3 39.614C256.3 40.8807 256.838 41.8835 257.799 42.4112C258.548 42.8229 259.625 42.844 260.575 42.4535C261.145 42.2212 261.208 42.1685 261.24 41.8518C261.282 41.4507 261.271 41.4507 260.712 41.7357C260.216 41.989 259.224 42.0418 258.823 41.8307C257.925 41.3662 257.514 40.4901 257.588 39.2023C257.683 37.6823 258.538 36.7218 259.572 36.9751C259.804 37.0279 259.836 37.1018 259.868 37.6084C259.91 38.2418 259.994 38.3473 260.501 38.3473C260.891 38.3473 261.261 38.0412 261.261 37.714C261.261 37.3446 260.955 36.8801 260.596 36.6901C260.142 36.4579 258.801 36.3946 258.274 36.5951Z" fill="#273F4B"/>
<path d="M262.823 36.6796C262.285 36.8485 262.105 36.9435 262.105 37.0912C262.105 37.239 262.2 37.2918 262.559 37.3129L263.003 37.3446L263.034 39.614C263.066 42.1157 263.055 42.1474 262.401 42.1474C262.179 42.1474 262.105 42.2001 262.105 42.3585C262.105 42.559 262.179 42.5696 263.583 42.5696C264.987 42.5696 265.061 42.559 265.061 42.3585C265.061 42.2001 264.987 42.1474 264.786 42.1474C264.639 42.1474 264.428 42.0946 264.311 42.0418C264.121 41.9362 264.111 41.7885 264.111 39.1918V36.4474L263.826 36.4579C263.657 36.4579 263.214 36.5635 262.823 36.6796Z" fill="#273F4B"/>
<path d="M267.573 36.5844C266.919 36.7744 266.359 37.2072 266.275 37.6083C266.169 38.0833 266.359 38.2416 267.024 38.2416H267.594V37.6716V37.091L268.08 37.0172C269.051 36.8799 269.589 37.281 269.684 38.231L269.726 38.7588L269.273 38.8749C267.573 39.3077 266.834 39.6033 266.401 40.0149C265.557 40.8172 265.969 42.3794 267.109 42.6855C267.658 42.8333 268.143 42.7383 268.945 42.2949C269.304 42.0944 269.621 41.936 269.653 41.936C269.674 41.936 269.716 42.0733 269.758 42.2527L269.832 42.5694H270.771C271.637 42.5694 271.711 42.5588 271.711 42.3583C271.711 42.1999 271.637 42.1472 271.436 42.1472C271.289 42.1472 271.078 42.0944 270.961 42.0416C270.771 41.936 270.761 41.7988 270.761 39.7933C270.761 37.4499 270.698 37.1649 270.096 36.7216C269.726 36.4472 268.333 36.3733 267.573 36.5844ZM269.684 40.3738L269.653 41.461L269.083 41.746C268.323 42.1366 267.879 42.126 267.478 41.7355C267.246 41.4927 267.172 41.3238 267.172 41.0072C267.172 40.321 267.731 39.8144 268.914 39.4449C269.737 39.181 269.716 39.1599 269.684 40.3738Z" fill="#273F4B"/>
<path d="M278.656 36.8062L277.833 37.1651V36.859C277.833 36.479 277.654 36.4685 276.619 36.7957C276.134 36.954 275.87 37.1018 275.849 37.2179C275.817 37.3657 275.891 37.3974 276.239 37.3974H276.672V39.709C276.672 42.2107 276.693 42.1474 276.081 42.1474C275.901 42.1474 275.827 42.2107 275.827 42.3585C275.827 42.559 275.901 42.5696 277.252 42.5696C278.604 42.5696 278.677 42.559 278.677 42.3585C278.677 42.2001 278.604 42.1474 278.382 42.1474C277.854 42.1474 277.833 42.0524 277.833 39.7935V37.7035L278.192 37.5557C278.762 37.3129 279.364 37.2601 279.786 37.3974C280.387 37.5979 280.472 37.9146 280.472 40.0679C280.472 42.0418 280.44 42.1474 279.923 42.1474C279.701 42.1474 279.627 42.2001 279.627 42.3585C279.627 42.559 279.701 42.5696 281 42.5696C282.298 42.5696 282.372 42.559 282.372 42.3585C282.372 42.2107 282.298 42.1474 282.14 42.1474C281.665 42.1474 281.654 42.084 281.612 39.8251C281.58 37.8829 281.559 37.619 281.359 37.239C280.915 36.3735 279.986 36.2257 278.656 36.8062Z" fill="#273F4B"/>
<path d="M284.589 36.6477C283.902 36.8905 283.427 37.3655 283.427 37.8089C283.427 38.1677 283.575 38.2416 284.282 38.2416H284.8V37.6716V37.0911L285.264 37.0277C286.256 36.88 286.731 37.2072 286.858 38.1466C286.9 38.4422 286.911 38.6955 286.879 38.7272C286.858 38.7589 286.394 38.8961 285.866 39.0333C284.557 39.3922 283.945 39.6666 283.522 40.0994C283.195 40.4372 283.164 40.5216 283.164 41.0916C283.164 41.5561 283.227 41.7883 283.385 41.9994C284.019 42.8544 284.821 42.96 286.024 42.3583C286.425 42.1577 286.784 41.9783 286.816 41.9572C286.858 41.9466 286.911 42.0733 286.942 42.2527L287.016 42.5694H287.914C288.737 42.5694 288.811 42.5483 288.811 42.3583C288.811 42.2 288.737 42.1472 288.515 42.1472C287.987 42.1472 287.966 42.0522 287.966 39.7827C287.966 37.45 287.903 37.165 287.301 36.7216C286.869 36.405 285.391 36.3627 284.589 36.6477ZM286.89 40.3739L286.858 41.4505L286.372 41.7039C286.098 41.8411 285.686 41.9783 285.454 42.01C285.074 42.0627 284.979 42.0311 284.694 41.7461C284.441 41.4822 284.377 41.3344 284.377 40.965C284.388 40.2789 284.736 39.9411 285.813 39.5611C286.964 39.1494 286.921 39.1177 286.89 40.3739Z" fill="#273F4B"/>
<path d="M300.665 36.6899C300.179 36.8482 300 36.9643 300 37.1016C300 37.2493 300.084 37.2916 300.411 37.2916H300.823L300.865 39.4238C300.897 41.1549 300.928 41.6299 301.076 41.8832C301.615 42.8754 302.776 43.0232 304.042 42.2421C304.317 42.0732 304.56 41.936 304.591 41.936C304.623 41.936 304.644 42.0732 304.644 42.2527V42.5693H305.594C306.47 42.5693 306.544 42.5588 306.544 42.3582C306.544 42.1999 306.47 42.1471 306.291 42.1471C305.721 42.1471 305.7 42.0416 305.7 39.1282V36.4471H305.415C305.256 36.4471 304.813 36.5527 304.412 36.6793C303.873 36.8482 303.694 36.9643 303.694 37.1016C303.694 37.2599 303.778 37.2916 304.169 37.2916H304.644V39.4132V41.5243L304.253 41.6932C303.705 41.9254 302.966 41.9782 302.638 41.8093C302.079 41.5138 302.005 41.1443 302.005 38.6849V36.4471L301.667 36.4577C301.477 36.4577 301.023 36.5632 300.665 36.6899Z" fill="#273F4B"/>
<path d="M308.602 36.5739C307.779 36.8694 307.294 37.6294 307.42 38.4106C307.515 38.9489 307.916 39.3289 309.014 39.9094C309.521 40.1839 310.038 40.5217 310.144 40.6589C310.429 41.0178 310.397 41.4506 310.038 41.8517C309.774 42.1472 309.669 42.1894 309.225 42.1894C308.518 42.1789 308.022 41.915 308.022 41.535C308.022 40.965 307.916 40.775 307.589 40.775H307.283V41.6089V42.4322L307.79 42.58C308.064 42.6644 308.645 42.7278 309.088 42.7278C310.502 42.7172 311.389 42.01 311.4 40.9017C311.4 40.0572 311.199 39.8356 309.658 39.0439C309.257 38.8328 308.835 38.5583 308.74 38.4317C308.486 38.1467 308.497 37.5872 308.75 37.2811C308.919 37.07 309.046 37.0278 309.521 37.0383C310.323 37.0489 310.555 37.1967 310.555 37.7139C310.555 38.115 310.576 38.1361 310.872 38.1361H311.189V37.3972V36.6689L310.798 36.5633C310.291 36.4156 309.014 36.4261 308.602 36.5739Z" fill="#273F4B"/>
<path d="M314.155 36.6268C313.511 36.859 312.751 37.6401 312.529 38.2946C312.413 38.6112 312.35 39.139 312.35 39.6668C312.35 40.4374 312.392 40.6062 312.698 41.2079C313.458 42.7174 315.031 43.1607 316.815 42.3585C317.247 42.1685 317.311 42.0946 317.311 41.8307C317.311 41.4612 317.3 41.4612 316.878 41.6724C316.097 42.084 315.062 42.0524 314.429 41.5985C313.595 40.9968 313.3 39.1496 313.87 37.9885C314.197 37.3235 314.661 36.9751 315.231 36.9751C315.865 36.9751 315.938 37.0385 315.938 37.6612C315.938 38.2629 316.012 38.3474 316.572 38.3474C316.983 38.3474 317.205 38.094 317.205 37.619C317.205 36.8696 316.466 36.4368 315.242 36.4579C314.893 36.4579 314.408 36.5424 314.155 36.6268Z" fill="#273F4B"/>
<path d="M319.633 36.6584C318.894 36.9117 318.451 37.3867 318.493 37.8512C318.525 38.189 318.525 38.189 319.19 38.2206L319.844 38.2523V37.6717V37.0912L320.319 37.0173C320.878 36.9329 321.206 37.0067 321.543 37.2812C321.755 37.4501 321.797 37.5767 321.797 38.1362V38.8012L320.847 39.0545C319.696 39.3501 318.63 39.8567 318.398 40.2051C317.891 40.9862 318.229 42.1684 319.073 42.5801C319.517 42.7912 319.612 42.8017 320.15 42.6962C320.477 42.6223 320.963 42.4323 321.248 42.2529C321.871 41.8623 321.934 41.8623 321.976 42.2212C322.008 42.5167 322.008 42.5167 322.937 42.5484C323.802 42.5801 323.855 42.5695 323.855 42.3584C323.855 42.2001 323.792 42.1473 323.56 42.1473C323.032 42.1473 323.011 42.0523 323.011 39.8251C323.011 37.8934 323 37.7245 322.778 37.2917C322.441 36.6479 322.008 36.4473 321.005 36.4473C320.509 36.4579 319.992 36.5317 319.633 36.6584ZM321.85 40.3845V41.4717L321.396 41.704C320.287 42.2529 319.675 42.0945 319.39 41.1762C319.285 40.849 319.527 40.2684 319.865 40.0256C320.224 39.7723 321.364 39.3079 321.67 39.3079C321.828 39.2973 321.85 39.4134 321.85 40.3845Z" fill="#273F4B"/>
<path d="M337.366 36.5422C336.511 36.8061 335.793 37.5133 335.508 38.3894C335.392 38.7167 335.329 39.2339 335.329 39.73C335.34 40.7222 335.635 41.4611 336.216 41.9889C336.817 42.5378 337.303 42.7067 338.211 42.7067C338.855 42.7172 339.14 42.6539 339.741 42.4006C340.459 42.105 340.48 42.0733 340.512 41.6933L340.543 41.2922L339.878 41.6406C338.601 42.295 337.366 42.0206 336.828 40.965C336.701 40.7222 336.575 40.2472 336.553 39.9094L336.49 39.2972H338.517H340.533V38.7378C340.533 38.1467 340.185 37.2706 339.836 36.9539C339.33 36.5106 338.137 36.31 337.366 36.5422ZM338.58 37.1228C339.023 37.3128 339.245 37.6506 339.33 38.2733L339.403 38.7694H337.957H336.522L336.585 38.4739C336.722 37.8511 337.007 37.45 337.472 37.2072C338.021 36.9328 338.105 36.9222 338.58 37.1228Z" fill="#273F4B"/>
<path d="M346.286 36.6477C345.737 36.901 345.431 37.2388 345.293 37.7666C345.061 38.6638 345.431 39.2127 346.761 39.8777C347.816 40.4055 348.133 40.7116 348.133 41.1866C348.133 41.3977 348.059 41.6721 347.974 41.7988C347.742 42.126 347.077 42.2949 346.581 42.1471C345.979 41.9888 345.906 41.9044 345.832 41.3449C345.768 40.8805 345.726 40.8277 345.462 40.796L345.177 40.7644V41.6088V42.4532L345.631 42.5905C345.874 42.6644 346.433 42.7171 346.866 42.7171C348.175 42.7277 349.009 42.1788 349.188 41.1971C349.357 40.2577 349.019 39.7932 347.668 39.1177C346.697 38.6321 346.338 38.3049 346.338 37.8721C346.338 37.1966 347.13 36.806 347.901 37.1016C348.228 37.2282 348.302 37.3021 348.376 37.6927C348.449 38.0938 348.492 38.136 348.777 38.136H349.083V37.4077V36.6794L348.618 36.5632C347.89 36.3838 346.771 36.426 346.286 36.6477Z" fill="#273F4B"/>
<path d="M351.965 36.6164C351.395 36.817 350.708 37.4926 350.423 38.1153C350.233 38.5164 350.191 38.812 350.191 39.667C350.191 40.6487 350.212 40.7648 350.518 41.3031C351.11 42.3692 352.366 42.9392 353.601 42.6859C353.907 42.6226 354.445 42.4431 354.793 42.2953C355.374 42.0314 355.416 41.9892 355.416 41.662C355.416 41.4614 355.395 41.3031 355.374 41.3031C355.353 41.3031 355.121 41.4192 354.878 41.567C353.136 42.5592 351.606 41.8098 351.342 39.8464L351.268 39.2976H353.347H355.416V38.9492C355.416 38.4003 355.121 37.5453 354.815 37.1759C354.234 36.4898 353.01 36.2576 351.965 36.6164ZM353.463 37.1442C353.875 37.3342 354.15 37.8409 354.15 38.3898V38.7698H352.777C351.468 38.7698 351.405 38.7592 351.405 38.5587C351.405 37.9781 351.954 37.2603 352.524 37.0809C352.967 36.9542 353.073 36.9542 353.463 37.1442Z" fill="#273F4B"/>
<path d="M356.82 36.6795C356.313 36.8378 356.155 36.9328 356.155 37.0912C356.155 37.2495 356.229 37.2917 356.567 37.2917H356.989L357.021 39.4978C357.052 41.9256 357.073 41.9784 357.781 42.5062C358.266 42.8756 359.111 42.8123 359.987 42.3373L360.694 41.9362V42.2528V42.5695H361.697C362.626 42.5695 362.699 42.559 362.699 42.3584C362.699 42.2106 362.626 42.1473 362.478 42.1473C362.362 42.1473 362.172 42.0945 362.056 42.0417C361.866 41.9362 361.855 41.7884 361.855 39.1917V36.4473H361.57C361.412 36.4473 360.968 36.5528 360.567 36.6795C360.029 36.8484 359.849 36.9645 359.849 37.1017C359.849 37.2495 359.934 37.2917 360.272 37.2917H360.694V39.4556V41.609L360.145 41.7778C359.501 41.9678 359.248 41.9784 358.826 41.8306C358.213 41.609 358.161 41.3662 358.161 38.7801V36.4473L357.823 36.4578C357.633 36.4684 357.179 36.5634 356.82 36.6795Z" fill="#273F4B"/>
<path d="M364.673 36.5953C363.934 36.8592 363.544 37.3975 363.544 38.1364C363.544 38.9492 363.861 39.2764 365.539 40.1525C366.003 40.3953 366.257 40.5959 366.362 40.8387C366.816 41.7675 365.623 42.5487 364.547 42.0314C364.283 41.9048 364.219 41.7992 364.135 41.3242C364.04 40.8175 364.008 40.7753 363.734 40.7753H363.438V41.6198V42.4537L363.892 42.5803C364.652 42.802 365.951 42.7598 366.457 42.4853C367.038 42.1898 367.418 41.7253 367.502 41.2081C367.661 40.2687 367.312 39.8148 365.877 39.0864C364.652 38.4742 364.346 37.9675 364.811 37.3659C365.074 37.0281 365.613 36.912 366.119 37.0809C366.542 37.2181 366.711 37.4503 366.711 37.862C366.711 38.0942 366.753 38.1364 367.027 38.1364H367.344V37.4081V36.6798L366.879 36.5637C366.246 36.4053 365.169 36.4264 364.673 36.5953Z" fill="#273F4B"/>
<path d="M379.831 36.6901C379.346 36.8485 379.166 36.9646 379.166 37.1018C379.166 37.2496 379.251 37.2918 379.588 37.2918H380.011V39.6562C380.011 42.2212 380.032 42.1474 379.419 42.1474C379.24 42.1474 379.166 42.2107 379.166 42.3585C379.166 42.559 379.24 42.5696 380.644 42.5696C382.048 42.5696 382.122 42.559 382.122 42.3585C382.122 42.1896 382.048 42.1474 381.773 42.1474C381.583 42.1474 381.372 42.0946 381.298 42.0207C381.203 41.9257 381.172 41.1446 381.172 39.1707V36.4474L380.834 36.4579C380.644 36.4579 380.19 36.5635 379.831 36.6901Z" fill="#273F4B"/>
<path d="M385.848 36.7535C385.615 36.9224 385.33 37.1862 385.214 37.334C385.088 37.4818 384.961 37.6085 384.929 37.6085C384.898 37.6085 384.866 37.3657 384.866 37.0807C384.866 36.6057 384.845 36.5529 384.634 36.5635C384.159 36.574 382.913 37.0279 382.882 37.2074C382.85 37.3446 382.945 37.3868 383.304 37.4185L383.758 37.4501L383.789 39.6351C383.821 42.0418 383.789 42.1474 383.167 42.1474C382.934 42.1474 382.86 42.2001 382.86 42.3585C382.86 42.559 382.934 42.5696 384.444 42.5696C385.953 42.5696 386.027 42.559 386.027 42.3585C386.027 42.179 385.953 42.1474 385.573 42.1474C385.32 42.1474 385.067 42.0946 384.993 42.0207C384.908 41.9362 384.866 41.3557 384.866 40.089V38.284L385.162 38.0096C385.721 37.4924 386.228 37.3657 386.618 37.6612C386.724 37.7457 386.924 37.8196 387.062 37.8196C387.273 37.8196 387.294 37.7774 387.294 37.1968C387.294 36.5107 387.23 36.4474 386.618 36.4474C386.407 36.4474 386.112 36.5635 385.848 36.7535Z" fill="#273F4B"/>
<path d="M389.732 36.6268C388.666 37.0068 387.927 38.2206 387.927 39.6034C387.927 41.3979 388.835 42.5168 390.492 42.7384C391.031 42.8123 392.097 42.5695 392.719 42.2212C393.078 42.0312 393.163 41.9256 393.184 41.6301C393.205 41.4401 393.184 41.2923 393.131 41.3134C393.089 41.3345 392.762 41.4929 392.413 41.6723C391.569 42.0945 390.682 42.1156 390.112 41.7251C389.616 41.3873 389.215 40.6484 389.131 39.899L389.057 39.2973H391.147H393.226L393.152 38.6851C393.015 37.5873 392.656 36.9962 391.886 36.6479C391.368 36.4051 390.387 36.3945 389.732 36.6268ZM391.453 37.2706C391.717 37.5029 391.938 38.0518 391.938 38.4529V38.7695H390.566C389.046 38.7695 389.046 38.7695 389.31 38.0623C389.658 37.1334 390.809 36.7112 391.453 37.2706Z" fill="#273F4B"/>
<path d="M394.714 36.6901C394.229 36.8485 394.049 36.9646 394.049 37.1018C394.049 37.2496 394.134 37.2918 394.472 37.2918H394.894V39.6562C394.894 42.2212 394.915 42.1474 394.303 42.1474C394.123 42.1474 394.049 42.2107 394.049 42.3585C394.049 42.559 394.123 42.5696 395.527 42.5696C396.931 42.5696 397.005 42.559 397.005 42.3585C397.005 42.1896 396.931 42.1474 396.657 42.1474C396.467 42.1474 396.256 42.0946 396.182 42.0207C396.087 41.9257 396.055 41.1446 396.055 39.1707V36.4474L395.717 36.4579C395.527 36.4579 395.073 36.5635 394.714 36.6901Z" fill="#273F4B"/>
<path d="M404.035 36.6057C403.433 36.8168 402.906 37.2918 402.547 37.9357C402.251 38.4635 402.23 38.5796 402.23 39.6141C402.23 40.6591 402.251 40.7541 402.557 41.303C403.602 43.1396 406.357 43.2346 407.529 41.4824C408.637 39.8252 407.919 37.1968 406.209 36.6163C405.618 36.4157 404.584 36.4052 404.035 36.6057ZM405.851 37.1863C406.41 37.5346 406.758 38.4002 406.758 39.5085C406.769 40.9335 406.347 41.8307 405.513 42.1474C404.742 42.4324 403.898 41.8413 403.592 40.8068C403.359 39.9941 403.433 38.5691 403.739 37.9674C404.225 37.0174 405.069 36.7113 405.851 37.1863Z" fill="#273F4B"/>
<path d="M410.252 36.5739C409.429 36.8694 408.943 37.6294 409.07 38.4106C409.165 38.9489 409.566 39.3289 410.664 39.9094C411.17 40.1839 411.688 40.5217 411.793 40.6589C412.078 41.0178 412.046 41.4506 411.688 41.8517C411.424 42.1472 411.318 42.1894 410.875 42.1894C410.168 42.1789 409.671 41.915 409.671 41.535C409.671 40.965 409.566 40.775 409.239 40.775H408.933V41.6089V42.4322L409.439 42.58C409.714 42.6644 410.294 42.7278 410.738 42.7278C412.152 42.7172 413.039 42.01 413.049 40.9017C413.049 40.0572 412.849 39.8356 411.308 39.0439C410.906 38.8328 410.484 38.5583 410.389 38.4317C410.136 38.1467 410.146 37.5872 410.4 37.2811C410.569 37.07 410.695 37.0278 411.17 37.0383C411.973 37.0489 412.205 37.1967 412.205 37.7139C412.205 38.115 412.226 38.1361 412.521 38.1361H412.838V37.3972V36.6689L412.448 36.5633C411.941 36.4156 410.664 36.4261 410.252 36.5739Z" fill="#273F4B"/>
<path d="M220.622 36.8168C220.622 37.0385 220.675 37.0807 220.918 37.0807C221.076 37.0807 221.255 37.1229 221.319 37.1651C221.509 37.2918 223.071 39.614 223.029 39.7196C222.923 40.0257 221.277 42.0312 221.129 42.0418C220.812 42.0418 220.622 42.1685 220.622 42.369C220.622 42.5485 220.717 42.5696 221.783 42.5696C222.87 42.5696 222.944 42.559 222.944 42.3585C222.944 42.2107 222.87 42.1474 222.712 42.1474C222.575 42.1474 222.406 42.1051 222.322 42.0524C222.163 41.9468 222.258 41.7779 223.134 40.6907L223.493 40.2368L224.053 41.0601C224.623 41.9046 224.654 42.1474 224.2 42.1474C224.074 42.1474 224 42.2212 224 42.3585C224 42.559 224.074 42.5696 225.372 42.5696C226.66 42.5696 226.744 42.559 226.744 42.3585C226.744 42.2107 226.649 42.1368 226.375 42.084C226.058 42.0312 225.921 41.8729 225.098 40.659C224.422 39.6668 224.2 39.2762 224.285 39.1707C224.338 39.0968 224.686 38.6535 225.045 38.189C225.815 37.2074 225.953 37.0807 226.29 37.0807C226.48 37.0807 226.533 37.0174 226.533 36.8168V36.5529H225.425H224.317V36.8168C224.317 37.0385 224.369 37.0807 224.633 37.0807C224.823 37.0807 224.95 37.1335 224.95 37.2074C224.939 37.2812 224.686 37.6612 224.38 38.0518L223.82 38.759L223.335 38.0835C222.765 37.3024 222.723 37.0807 223.103 37.0807C223.314 37.0807 223.367 37.0279 223.367 36.8168V36.5529H221.994H220.622V36.8168Z" fill="#273F4B"/>
<path d="M168.172 41.3452C167.992 41.5352 167.94 41.6935 167.971 41.9996C168.003 42.4008 168.013 42.4113 168.457 42.443C168.868 42.4746 168.9 42.4958 168.9 42.7913C168.9 43.488 168.467 44.0474 167.802 44.2163C167.623 44.2585 167.528 44.3535 167.528 44.4908C167.528 44.6808 167.581 44.7019 167.908 44.6491C168.467 44.5541 169.058 44.1213 169.386 43.5724C169.628 43.1502 169.66 43.0024 169.618 42.348C169.586 41.683 169.544 41.5669 169.291 41.3452C168.911 41.018 168.478 41.018 168.172 41.3452Z" fill="#273F4B"/>
<path d="M414.58 41.3555C413.841 42.0839 414.844 43.2239 415.635 42.5483C416.037 42.1894 416.047 41.6827 415.646 41.3344C415.277 41.0177 414.897 41.0283 414.58 41.3555Z" fill="#273F4B"/>
</svg>
